<?xml version="1.0" encoding="UTF-8" standalone="no"?>
<!-- Created with Inkscape (http://www.inkscape.org/) -->

<svg
   width="861.48676mm"
   height="246.62662mm"
   viewBox="0 0 861.48676 246.62662"
   version="1.1"
   id="svg1352"
   xmlns:inkscape="http://www.inkscape.org/namespaces/inkscape"
   xmlns:sodipodi="http://sodipodi.sourceforge.net/DTD/sodipodi-0.dtd"
   xmlns="http://www.w3.org/2000/svg"
   xmlns:svg="http://www.w3.org/2000/svg">
  <sodipodi:namedview
     id="namedview1354"
     pagecolor="#ffffff"
     bordercolor="#000000"
     borderopacity="0.25"
     inkscape:showpageshadow="2"
     inkscape:pageopacity="0.0"
     inkscape:pagecheckerboard="0"
     inkscape:deskcolor="#d1d1d1"
     inkscape:document-units="mm"
     showgrid="false"
     inkscape:zoom="0.2102413"
     inkscape:cx="1055.9295"
     inkscape:cy="-156.9625"
     inkscape:window-width="1280"
     inkscape:window-height="987"
     inkscape:window-x="0"
     inkscape:window-y="0"
     inkscape:window-maximized="1"
     inkscape:current-layer="layer1" />
  <defs
     id="defs1349">
    <clipPath
       clipPathUnits="userSpaceOnUse"
       id="clipPath146">
      <path
         d="M 2741.63,30681.5 4694.05,28031.7 2070.15,26060.1 117.738,28710 Z m 14.28,97.8 L 20.8906,28724.2 2035.15,25990.5 l 20.72,-28.2 2397.2,1801.3 337.82,253.8 z"
         id="path144" />
    </clipPath>
    <linearGradient
       x1="0"
       y1="0"
       x2="1"
       y2="0"
       gradientUnits="userSpaceOnUse"
       gradientTransform="matrix(4770,0,0,-4770,20.8907,28370.8)"
       spreadMethod="pad"
       id="linearGradient152">
      <stop
         style="stop-opacity:1;stop-color:#171a3a"
         offset="0"
         id="stop148" />
      <stop
         style="stop-opacity:1;stop-color:#72c833"
         offset="1"
         id="stop150" />
    </linearGradient>
    <linearGradient
       x1="0"
       y1="0"
       x2="1"
       y2="0"
       gradientUnits="userSpaceOnUse"
       gradientTransform="matrix(219.41056,0,0,-219.41056,-262.09436,2644.0862)"
       spreadMethod="pad"
       id="linearGradient160">
      <stop
         style="stop-opacity:1;stop-color:#171a3a"
         offset="0"
         id="stop156" />
      <stop
         style="stop-opacity:1;stop-color:#72c833"
         offset="1"
         id="stop158" />
    </linearGradient>
  </defs>
  <g
     inkscape:label="Layer 1"
     inkscape:groupmode="layer"
     id="layer1"
     transform="translate(272.96608,-150.09276)">
    <path
       d="m 192.44326,210.88703 v 2.19788 h -16.21762 v -25.80884 h 15.90481 v 2.19784 h -13.2528 v 9.34318 h 12.3814 v 2.20239 h -12.3814 v 9.86755 h 13.56561"
       style="fill:#171a3a;fill-opacity:1;fill-rule:nonzero;stroke:none;stroke-width:0.0455986"
       id="path54" />
    <path
       d="m 212.87008,210.88703 v 2.19788 h -14.86062 v -25.80884 h 2.65384 v 23.61096 h 12.20678"
       style="fill:#171a3a;fill-opacity:1;fill-rule:nonzero;stroke:none;stroke-width:0.0455986"
       id="path56" />
    <path
       d="m 239.98758,210.88703 v 2.19788 h -14.85604 v -25.80884 h 2.64926 v 23.61096 h 12.20678"
       style="fill:#171a3a;fill-opacity:1;fill-rule:nonzero;stroke:none;stroke-width:0.0455986"
       id="path58" />
    <path
       d="m 259.02044,204.12019 -5.85943,-13.63853 -5.89591,13.63853 z m 0.94389,2.23435 h -13.67505 l -2.89549,6.73037 h -2.82257 l 11.29936,-25.80884 h 2.51249 l 11.29933,25.80884 h -2.82258 l -2.89549,-6.73037"
       style="fill:#171a3a;fill-opacity:1;fill-rule:nonzero;stroke:none;stroke-width:0.0455986"
       id="path60" />
    <path
       d="m 291.79674,200.18047 c 0,8.09378 -4.74684,13.25097 -12.17486,13.25097 -7.60585,0 -12.66271,-5.29855 -12.66271,-13.25097 0,-7.95239 5.02038,-13.25552 12.66271,-13.25552 3.4199,0 6.10567,0.77064 8.61815,2.65384 l -1.74187,1.7054 c -1.85131,-1.50019 -4.12211,-2.16136 -6.87628,-2.16136 -5.92779,0 -9.8721,4.43216 -9.8721,11.05764 0,6.62548 3.94431,11.05768 9.90403,11.05768 5.51286,0 9.07412,-3.83942 9.35228,-9.62586 h -8.19863 v -2.23435 h 10.95735 c 0,0.27816 0.0319,0.5244 0.0319,0.80253"
       style="fill:#171a3a;fill-opacity:1;fill-rule:nonzero;stroke:none;stroke-width:0.0455986"
       id="path62" />
    <path
       d="m 317.80161,200.18047 c 0,-6.62548 -4.08107,-11.05764 -10.11375,-11.05764 -6.10566,0 -10.15026,4.43216 -10.15026,11.05764 0,6.62548 4.0446,11.05768 10.15026,11.05768 6.03268,0 10.11375,-4.4322 10.11375,-11.05768 z m -23.05466,0 c 0,-7.95239 5.19825,-13.25552 12.94091,-13.25552 7.70615,0 12.86793,5.30313 12.86793,13.25552 0,7.95242 -5.16178,13.25097 -12.86793,13.25097 -7.74266,0 -12.94091,-5.29855 -12.94091,-13.25097"
       style="fill:#171a3a;fill-opacity:1;fill-rule:nonzero;stroke:none;stroke-width:0.0455986"
       id="path64" />
    <path
       d="m 353.62846,200.24887 c 0,-6.48412 -3.97165,-10.77496 -9.97243,-10.77496 h -5.89132 v 21.41312 h 5.89132 c 6.00078,0 9.97243,-4.29084 9.97243,-10.63816 z m 2.75872,0 c 0,7.67426 -4.98849,12.83604 -12.52139,12.83604 h -8.75037 v -25.80884 h 8.75037 c 7.5329,0 12.52139,5.16177 12.52139,12.9728"
       style="fill:#171a3a;fill-opacity:1;fill-rule:nonzero;stroke:none;stroke-width:0.0455986"
       id="path66" />
    <path
       d="m 377.95989,210.88703 v 2.19788 h -16.21941 v -25.80884 h 15.90936 v 2.19784 h -13.25556 v 9.34318 h 12.38462 v 2.20239 h -12.38462 v 9.86755 h 13.56561"
       style="fill:#171a3a;fill-opacity:1;fill-rule:nonzero;stroke:none;stroke-width:0.0455986"
       id="path68" />
    <path
       d="m 40.447072,314.47342 c -7.292128,0 -14.116438,-1.18099 -20.474235,-3.54298 -6.356915,-2.36658 -11.8957738,-5.79102 -16.6175278,-10.28707 -4.62781,-4.40027 -8.273416,-9.84017 -10.937276,-16.3243 -2.6643192,-6.47958 -3.9967252,-13.60664 -3.9967252,-21.37664 0,-7.72439 1.344259,-14.86973 4.0309092,-21.4496 2.688978,-6.57532 6.462713,-12.27515 11.324414,-17.0949 4.768251,-4.72405 10.4936228,-8.39015 17.1783748,-10.98473 6.682952,-2.59912 13.836016,-3.89869 21.454604,-3.89869 5.515611,0 10.541036,0.67487 15.074478,2.0337 4.534324,1.35427 8.367325,2.87274 11.499498,4.55531 l 4.346011,-3.85307 h 6.101539 l 0.630202,36.31928 h -6.170401 c -3.50199,-11.10326 -7.703433,-19.25627 -12.604398,-24.45452 -4.902765,-5.2028 -10.879385,-7.80193 -17.925734,-7.80193 -8.779086,0 -15.455653,3.87587 -20.029629,11.62308 -4.574469,7.74721 -6.863503,18.62247 -6.863503,32.62125 0,7.91136 0.782919,14.66452 2.346501,20.25947 1.564005,5.59495 3.604578,10.1001 6.128455,13.52 2.707641,3.5567 5.905466,6.16952 9.594393,7.8293 3.688926,1.66434 7.774551,2.48966 12.256452,2.48966 6.536126,0 12.359041,-1.77377 17.472944,-5.32589 5.113443,-3.55215 9.76951,-8.92824 13.97187,-16.12826 l 6.029961,3.6479 c -2.010446,4.113 -4.300397,7.79279 -6.871265,11.04399 -2.570375,3.24662 -5.538859,6.04182 -8.904959,8.37646 -3.692102,2.57175 -7.770883,4.58266 -12.235004,6.03272 -4.463204,1.45002 -9.733951,2.17046 -15.809949,2.17046"
       style="fill:#171a3a;fill-opacity:1;fill-rule:nonzero;stroke:none;stroke-width:0.0455986"
       id="path70" />
    <path
       d="m 132.40354,280.9995 -11.00021,-27.47317 -10.83881,27.47317 z m 39.93618,30.74257 h -41.40218 v -4.1814 c 1.9238,-0.14132 4.18687,-0.48789 6.78872,-1.04419 2.60233,-0.55174 3.90278,-1.24029 3.90278,-2.06107 0,-0.28726 -0.0264,-0.60646 -0.0811,-0.96213 -0.0525,-0.35567 -0.20475,-0.83901 -0.45325,-1.45002 l -6.4878,-15.74521 h -26.23516 c -0.60371,1.46371 -1.26993,3.17821 -1.99814,5.14353 -0.72866,1.96529 -1.35699,3.71172 -1.88916,5.24838 -0.67394,2.00181 -1.07474,3.44728 -1.19969,4.341 -0.12492,0.88918 -0.18694,1.51388 -0.18694,1.8741 0,1.13997 0.86501,2.11579 2.59363,2.91377 1.73002,0.80708 4.61278,1.3862 8.6446,1.74184 v 4.1814 H 83.162502 v -4.1814 c 1.179618,-0.0684 2.507897,-0.25534 3.991681,-0.56085 1.480608,-0.30095 2.648832,-0.72044 3.506537,-1.25853 1.46463,-0.85725 2.70673,-1.91057 3.72357,-3.15997 1.01689,-1.2494 1.86546,-2.73135 2.5435,-4.44588 4.14037,-10.0317 8.29257,-20.08618 12.45298,-30.15436 4.15999,-10.06817 8.75679,-21.17143 13.79132,-33.30981 h 10.71157 c 6.99848,17.20893 12.47807,30.81102 16.4447,40.81079 3.96071,9.99521 7.33545,18.28048 10.12106,24.85125 0.46376,1.07156 1.05378,2.0428 1.76649,2.91832 0.71544,0.87549 1.7332,1.70536 3.05421,2.48966 0.99907,0.56998 2.15999,0.99861 3.48192,1.28591 1.32098,0.28727 2.51612,0.4651 3.58768,0.53347 v 4.1814"
       style="fill:#171a3a;fill-opacity:1;fill-rule:nonzero;stroke:none;stroke-width:0.0455986"
       id="path72" />
    <path
       d="m 223.38512,257.48428 c 0,-5.71351 -1.15366,-9.95419 -3.45638,-12.72201 -2.30276,-2.76327 -6.40207,-4.14948 -12.29339,-4.14948 h -4.44588 v 33.36908 h 2.25259 c 5.85484,0 10.30983,-1.34973 13.3604,-4.0446 3.05509,-2.6949 4.58266,-6.84893 4.58266,-12.45299 z m 20.88416,-2.73138 c 0,4.28629 -0.88004,7.97066 -2.64929,11.06223 -1.76922,3.08706 -4.2042,5.59495 -7.30945,7.5238 -3.21469,1.99722 -6.88541,3.44724 -11.00752,4.33642 -4.12668,0.89372 -8.7595,1.34059 -13.89845,1.34059 h -6.2151 v 21.36754 c 0,1.28587 0.24169,2.40305 0.72503,3.35149 0.48334,0.94389 1.39986,1.70081 2.75872,2.27535 0.71134,0.2873 1.8741,0.58822 3.47917,0.912 1.60961,0.31919 2.96389,0.5335 4.07197,0.63835 v 4.1814 h -41.18745 v -4.1814 c 1.03463,-0.10485 2.40944,-0.25534 4.12348,-0.45597 1.71408,-0.19152 2.90922,-0.43317 3.59001,-0.72047 1.38984,-0.56999 2.30865,-1.26764 2.75781,-2.08841 0.44548,-0.82078 0.66936,-1.96529 0.66936,-3.429 v -53.6103 c 0,-1.25399 -0.21386,-2.3301 -0.64294,-3.24207 -0.42863,-0.912 -1.35975,-1.66892 -2.78423,-2.27538 -1.00136,-0.42862 -2.33147,-0.81167 -3.99126,-1.15365 -1.66161,-0.33743 -2.90233,-0.56085 -3.72223,-0.67028 v -4.17685 h 41.93527 c 9.82193,0 17.15876,1.56404 22.01499,4.68753 4.85627,3.12353 7.28211,7.89771 7.28211,14.32708"
       style="fill:#171a3a;fill-opacity:1;fill-rule:nonzero;stroke:none;stroke-width:0.0455986"
       id="path74" />
    <path
       d="m 317.33196,255.12681 h -4.07197 c -1.03509,-2.8818 -2.81799,-5.80012 -5.35326,-8.75037 -2.53986,-2.95021 -5.05235,-4.69664 -7.55569,-5.23014 -1.07157,-0.24624 -2.56265,-0.39674 -4.47323,-0.45145 -1.90602,-0.0547 -3.4883,-0.0821 -4.7377,-0.0821 h -11.03489 v 29.29711 h 7.82017 c 1.96533,0 3.75278,-0.23256 5.35785,-0.69766 1.60962,-0.46055 3.07336,-1.35428 4.39117,-2.67663 0.82077,-0.82077 1.65064,-2.26624 2.48965,-4.341 0.83902,-2.06562 1.38166,-3.87131 1.637,-5.40798 h 4.07197 v 31.70926 h -4.07197 c -0.21431,-1.50019 -0.76151,-3.38342 -1.637,-5.64967 -0.87548,-2.26624 -1.70536,-3.83028 -2.48965,-4.68753 -1.18103,-1.28588 -2.57179,-2.1705 -4.17686,-2.64929 -1.60507,-0.48334 -3.46548,-0.725 -5.57216,-0.725 h -7.82017 v 21.90556 c 0,2.28452 0.16419,4.09477 0.50617,5.43994 0.33743,1.33604 0.97123,2.36199 1.90147,3.07788 0.89373,0.67487 2.12034,1.12173 3.67069,1.33604 1.5549,0.21432 3.67069,0.32378 6.35187,0.32378 1.2494,0 2.74959,-0.0182 4.49601,-0.0547 1.75102,-0.0319 3.28313,-0.14135 4.60548,-0.31919 1.50019,-0.18242 2.90008,-0.44686 4.20875,-0.80712 1.29956,-0.35567 2.27083,-0.87094 2.91376,-1.55035 1.7145,-1.75098 3.64332,-4.42306 5.78648,-8.00711 2.14312,-3.58863 3.55212,-6.27436 4.23153,-8.06185 h 3.90779 l -1.44547,23.67481 h -71.28888 v -4.1814 c 0.99406,-0.0684 2.35289,-0.20973 4.06739,-0.42404 1.7145,-0.21432 2.92742,-0.4651 3.64335,-0.75241 1.35428,-0.56998 2.26624,-1.29042 2.73134,-2.17046 0.46055,-0.87094 0.69766,-1.98812 0.69766,-3.34695 V 247.2565 c 0,-1.28591 -0.20063,-2.34834 -0.59278,-3.18735 -0.39214,-0.83901 -1.33604,-1.60052 -2.83622,-2.27993 -0.93024,-0.42408 -2.22981,-0.82078 -3.91238,-1.17645 -1.67802,-0.35567 -2.94111,-0.58822 -3.79836,-0.69765 v -4.17685 h 67.38109 v 19.38852"
       style="fill:#171a3a;fill-opacity:1;fill-rule:nonzero;stroke:none;stroke-width:0.0455986"
       id="path76" />
    <path
       d="m 370.8921,311.74207 h -42.15138 v -4.1814 c 0.96672,-0.0684 2.38482,-0.17784 4.25891,-0.31916 1.87414,-0.14136 3.16911,-0.35567 3.88045,-0.64297 1.32236,-0.53347 2.22522,-1.24026 2.70401,-2.11575 0.48334,-0.87549 0.72503,-1.98811 0.72503,-3.34694 v -53.87933 c 0,-1.21292 -0.23255,-2.28452 -0.69769,-3.21473 -0.4651,-0.9302 -1.37707,-1.67802 -2.73135,-2.25255 -0.85725,-0.35567 -2.12033,-0.72048 -3.80291,-1.09439 -1.67805,-0.37391 -3.12353,-0.6338 -4.33645,-0.77971 v -4.17685 h 42.15138 v 4.17685 c -1.07157,0.10943 -2.40761,0.25989 -4.01722,0.45596 -1.60507,0.19608 -2.96394,0.47424 -4.07198,0.82991 -1.39075,0.46511 -2.32096,1.19014 -2.78606,2.1705 -0.46055,0.98493 -0.69765,2.09752 -0.69765,3.34691 v 53.8292 c 0,1.28133 0.24165,2.38023 0.72499,3.29223 0.48334,0.91197 1.40444,1.65524 2.75872,2.22522 0.75237,0.31916 1.99267,0.6338 3.72541,0.93475 1.72818,0.30551 3.18734,0.49248 4.36379,0.56085 v 4.1814"
       style="fill:#171a3a;fill-opacity:1;fill-rule:nonzero;stroke:none;stroke-width:0.0455986"
       id="path78" />
    <path
       d="m 428.73397,255.23628 c 0,-5.07058 -1.41813,-8.77775 -4.25436,-11.1124 -2.84078,-2.33919 -6.88538,-3.51109 -12.13379,-3.51109 h -4.23157 v 31.81414 h 4.07197 c 5.24842,0 9.32035,-1.37707 12.2113,-4.1221 2.89098,-2.74959 4.33645,-7.10428 4.33645,-13.06855 z m 36.47433,56.50579 h -29.16488 c -5.02952,-7.71528 -9.21547,-13.85284 -12.55332,-18.42639 -3.33325,-4.569 -7.48273,-9.85386 -12.4393,-15.85465 h -2.93655 v 23.08659 c 0,1.28133 0.24169,2.37568 0.72503,3.26486 0.48334,0.89372 1.39989,1.64154 2.75872,2.25259 0.67486,0.28268 1.73732,0.57908 3.1828,0.88459 1.44547,0.30095 2.69031,0.50616 3.7254,0.61101 v 4.1814 h -40.54631 v -4.1814 c 1.03509,-0.10485 2.39851,-0.25534 4.09932,-0.45597 1.69171,-0.19152 2.90008,-0.43317 3.61597,-0.72047 1.35428,-0.56999 2.26624,-1.29043 2.7268,-2.17047 0.4651,-0.87094 0.69765,-1.98811 0.69765,-3.34694 v -53.6103 c 0,-1.28591 -0.19152,-2.35748 -0.58822,-3.21473 -0.39215,-0.85725 -1.34059,-1.60962 -2.83623,-2.25255 -1.14452,-0.46056 -2.48969,-0.85725 -4.0446,-1.17645 -1.5549,-0.31919 -2.77696,-0.55174 -3.67069,-0.69765 v -4.17685 h 42.63472 c 9.53011,0 16.77116,1.49108 21.71862,4.47322 4.94288,2.98217 7.41888,7.49187 7.41888,13.52455 0,5.32137 -1.52752,9.59852 -4.58265,12.82689 -3.05054,3.23296 -7.7016,5.75913 -13.95317,7.57851 2.43039,3.14174 5.25752,6.78509 8.49048,10.92543 3.23292,4.14492 6.59811,8.37646 10.1001,12.69464 1.10345,1.39534 2.61277,3.09615 4.52335,5.11619 1.91061,2.01546 3.59773,3.25572 5.06144,3.72082 0.82081,0.25082 1.865,0.46514 3.13263,0.64297 1.26764,0.17784 2.1705,0.28727 2.70401,0.31916 v 4.1814"
       style="fill:#171a3a;fill-opacity:1;fill-rule:nonzero;stroke:none;stroke-width:0.0455986"
       id="path80" />
    <path
       d="m 522.26588,271.49672 -14.40463,-35.96361 -14.19027,35.96361 z m 52.27426,40.24535 h -54.19853 v -5.47183 c 2.52159,-0.18693 5.48094,-0.64293 8.89173,-1.36338 3.40166,-0.72958 5.10703,-1.62789 5.10703,-2.69945 0,-0.37846 -0.0365,-0.79799 -0.10485,-1.26309 -0.073,-0.46965 -0.26906,-1.09894 -0.59736,-1.89688 l -8.48589,-20.61059 h -34.34945 c -0.78888,1.91513 -1.66437,4.15858 -2.61281,6.73037 -0.95758,2.57175 -1.77835,4.86078 -2.47601,6.87169 -0.88462,2.61736 -1.40444,4.5097 -1.56859,5.67704 -0.1687,1.17189 -0.24624,1.98808 -0.24624,2.45321 0,1.50019 1.13087,2.77238 3.39711,3.82115 2.2617,1.05333 6.03271,1.81483 11.31302,2.27993 v 5.47183 h -40.80623 v -5.47183 c 1.54125,-0.0912 3.28313,-0.33743 5.22108,-0.73413 1.9425,-0.39669 3.47003,-0.94844 4.59175,-1.65068 1.91971,-1.11718 3.54302,-2.49879 4.87451,-4.13579 1.33149,-1.63244 2.44408,-3.57494 3.32871,-5.8184 5.42166,-13.1324 10.85701,-26.29214 16.30151,-39.47471 5.44904,-13.18256 11.46347,-27.71941 18.05703,-43.61053 h 14.02158 c 9.16076,22.5303 16.33799,40.3411 21.52714,53.42792 5.18911,13.08678 9.60307,23.93015 13.25093,32.53006 0.60646,1.40444 1.3771,2.68118 2.31186,3.8257 0.93479,1.14455 2.27083,2.2298 3.99902,3.25575 1.30866,0.75237 2.82709,1.31325 4.55528,1.68716 1.73273,0.36936 3.29677,0.60646 4.69667,0.69765 v 5.47183"
       style="fill:#171a3a;fill-opacity:1;fill-rule:nonzero;stroke:none;stroke-width:0.0455986"
       id="path82" />
    <path
       d="m 21.785833,357.44557 v 1.76011 H 9.8859672 v -20.66985 h 2.1230518 v 18.90974 h 9.776814"
       style="fill:#4b6726;fill-opacity:1;fill-rule:nonzero;stroke:none;stroke-width:0.0455986"
       id="path84" />
    <path
       d="m 37.032183,352.02845 -4.693461,-10.92542 -4.720837,10.92542 z m 0.751911,1.78749 H 26.834048 l -2.316869,5.38974 H 22.25411 l 9.04861,-20.66985 h 2.01362 l 9.049067,20.66985 h -2.263528 l -2.317785,-5.38974"
       style="fill:#4b6726;fill-opacity:1;fill-rule:nonzero;stroke:none;stroke-width:0.0455986"
       id="path86" />
    <path
       d="m 62.355844,331.82829 h 2.48419 l -4.330488,4.1905 h -1.789289 z m -10.868449,20.00409 v -13.29655 h 2.122628 v 13.20994 c 0,3.57946 2.54441,5.97796 6.369227,5.97796 3.829368,0 6.368733,-2.3985 6.368733,-5.97796 v -13.20994 h 2.123087 v 13.29655 c 0,4.60548 -3.377494,7.65146 -8.49182,7.65146 -5.08381,0 -8.491855,-3.04598 -8.491855,-7.65146"
       style="fill:#4b6726;fill-opacity:1;fill-rule:nonzero;stroke:none;stroke-width:0.0455986"
       id="path88" />
    <path
       d="m 73.850791,338.53583 h 1.369801 l 14.35855,16.98547 -0.02692,-16.98547 h 2.123088 v 20.66985 H 90.3078 l -14.361759,-16.98548 0.03101,16.98548 h -2.126262 v -20.66985"
       style="fill:#4b6726;fill-opacity:1;fill-rule:nonzero;stroke:none;stroke-width:0.0455986"
       id="path90" />
    <path
       d="m 97.30762,338.53583 h 2.12309 v 20.66985 h -2.12309 v -20.66985"
       style="fill:#4b6726;fill-opacity:1;fill-rule:nonzero;stroke:none;stroke-width:0.0455986"
       id="path92" />
    <path
       d="m 103.69921,348.81376 c 0,-6.34277 4.19231,-10.56065 10.44755,-10.56065 3.38159,0 5.89316,1.28588 7.79463,3.3515 l -1.34013,1.36796 c -1.45324,-1.67347 -3.54849,-2.95934 -6.36877,-2.95934 -4.97438,0 -8.29666,3.52023 -8.29666,8.80053 0,5.33503 3.29448,8.90997 8.23782,8.90997 3.07382,0 5.42216,-1.45002 6.90227,-3.60228 l 1.45323,1.34059 c -1.84629,2.48969 -4.77918,4.0218 -8.38239,4.0218 -6.25524,0 -10.44755,-4.27259 -10.44755,-10.67008"
       style="fill:#4b6726;fill-opacity:1;fill-rule:nonzero;stroke:none;stroke-width:0.0455986"
       id="path94" />
    <path
       d="m 138.21552,352.02845 -4.69392,-10.92542 -4.72126,10.92542 z m 0.75604,1.78749 h -10.95004 l -2.321,5.38974 h -2.26349 l 9.05224,-20.66985 h 2.01045 l 9.05224,20.66985 h -2.26353 l -2.31687,-5.38974"
       style="fill:#4b6726;fill-opacity:1;fill-rule:nonzero;stroke:none;stroke-width:0.0455986"
       id="path96" />
    <path
       d="m 152.67532,351.83238 v -13.29655 h 2.12259 v 13.20994 c 0,3.57946 2.53986,5.97796 6.36786,5.97796 3.82619,0 6.36876,-2.3985 6.36876,-5.97796 v -13.20994 h 2.12309 v 13.29655 c 0,4.60548 -3.38025,7.65146 -8.49185,7.65146 -5.0824,0 -8.49045,-3.04598 -8.49045,-7.65146"
       style="fill:#4b6726;fill-opacity:1;fill-rule:nonzero;stroke:none;stroke-width:0.0455986"
       id="path98" />
    <path
       d="m 177.16039,349.00984 h 5.2238 c 2.99173,0 5.00126,-1.76012 5.00126,-4.35924 0,-2.62192 -1.98261,-4.35466 -5.00126,-4.35466 h -5.2238 z m 11.37003,10.19584 -5.50375,-8.43573 h -5.86628 v 8.43573 h -2.12305 v -20.66985 h 7.62773 c 4.19008,0 6.92873,2.43043 6.92873,6.11477 0,2.82257 -1.67848,4.94746 -4.41258,5.75454 l 5.86535,8.80054 h -2.51615"
       style="fill:#4b6726;fill-opacity:1;fill-rule:nonzero;stroke:none;stroke-width:0.0455986"
       id="path100" />
    <path
       d="m 207.15201,353.45113 c 0,-2.37112 -1.86955,-3.96705 -4.66475,-3.96705 h -5.83663 v 7.96149 h 5.83663 c 2.7952,0 4.66475,-1.59139 4.66475,-3.99444 z m -10.50138,-5.75454 h 5.11161 c 2.68121,0 4.44129,-1.48195 4.44129,-3.68893 0,-2.23432 -1.81483,-3.71172 -4.55528,-3.71172 h -4.99762 z m 12.71291,5.75454 c 0,3.46552 -2.65843,5.75455 -6.64828,5.75455 h -8.18952 v -20.66985 h 7.68336 c 3.7163,0 6.20141,2.09299 6.20141,5.22104 0,2.1796 -1.2585,3.80294 -3.3515,4.63737 2.65385,0.64297 4.30453,2.51248 4.30453,5.05689"
       style="fill:#4b6726;fill-opacity:1;fill-rule:nonzero;stroke:none;stroke-width:0.0455986"
       id="path102" />
    <path
       d="m 225.35954,352.02845 -4.69212,-10.92542 -4.72401,10.92542 z m 0.75237,1.78749 h -10.94825 l -2.31641,5.38974 h -2.26624 l 9.05133,-20.66985 h 2.0109 l 9.05133,20.66985 h -2.2617 l -2.32096,-5.38974"
       style="fill:#4b6726;fill-opacity:1;fill-rule:nonzero;stroke:none;stroke-width:0.0455986"
       id="path104" />
    <path
       d="m 233.58551,338.53583 h 1.37252 l 14.35901,16.98547 -0.0273,-16.98547 h 2.12033 v 20.66985 h -1.36341 l -14.36356,-16.98548 0.0319,16.98548 h -2.12947 v -20.66985"
       style="fill:#4b6726;fill-opacity:1;fill-rule:nonzero;stroke:none;stroke-width:0.0455986"
       id="path106" />
    <path
       d="m 257.04601,338.53583 h 2.12033 v 20.66985 h -2.12033 v -20.66985"
       style="fill:#4b6726;fill-opacity:1;fill-rule:nonzero;stroke:none;stroke-width:0.0455986"
       id="path108" />
    <path
       d="m 278.5777,357.44557 v 1.76011 h -15.61755 v -1.36797 l 12.48947,-17.54177 h -12.32073 v -1.76011 h 15.16609 v 1.34059 l -12.48491,17.56915 h 12.76763"
       style="fill:#4b6726;fill-opacity:1;fill-rule:nonzero;stroke:none;stroke-width:0.0455986"
       id="path110" />
    <path
       d="m 294.38673,352.02845 -4.69209,-10.92542 -4.72405,10.92542 z m 0.75237,1.78749 h -10.9528 l -2.32096,5.38974 h -2.2617 l 9.05592,-20.66985 h 2.01087 l 9.05132,20.66985 h -2.26166 l -2.32099,-5.38974"
       style="fill:#4b6726;fill-opacity:1;fill-rule:nonzero;stroke:none;stroke-width:0.0455986"
       id="path112" />
    <path
       d="m 300.71581,348.81376 c 0,-6.34277 4.1905,-10.56065 10.44667,-10.56065 3.38342,0 5.8959,1.28588 7.79279,3.3515 l -1.33604,1.36796 c -1.45461,-1.67347 -3.55212,-2.95934 -6.37015,-2.95934 -4.9748,0 -8.29892,3.52023 -8.29892,8.80053 0,5.33503 3.29678,8.90997 8.24421,8.90997 3.07336,0 5.41711,-1.45002 6.8991,-3.60228 l 1.45002,1.34059 c -1.84217,2.48969 -4.77418,4.0218 -8.38101,4.0218 -6.25617,0 -10.44667,-4.27259 -10.44667,-10.67008"
       style="fill:#4b6726;fill-opacity:1;fill-rule:nonzero;stroke:none;stroke-width:0.0455986"
       id="path114" />
    <path
       d="m 323.25065,338.53583 h 2.12034 v 20.66985 h -2.12034 v -20.66985"
       style="fill:#4b6726;fill-opacity:1;fill-rule:nonzero;stroke:none;stroke-width:0.0455986"
       id="path116" />
    <path
       d="m 342.38384,331.82829 h 2.48514 l -4.3319,4.1905 h -1.78745 z m 5.72721,17.04019 c 0,-5.30313 -3.26944,-8.85525 -8.10289,-8.85525 -4.88819,0 -8.13025,3.55212 -8.13025,8.85525 0,5.30768 3.24206,8.85525 8.13025,8.85525 4.83345,0 8.10289,-3.54757 8.10289,-8.85525 z m -18.46746,0 c 0,-6.37011 4.16316,-10.61537 10.36457,-10.61537 6.17404,0 10.30528,4.24526 10.30528,10.61537 0,6.37014 -4.13124,10.61536 -10.30528,10.61536 -6.20141,0 -10.36457,-4.24522 -10.36457,-10.61536"
       style="fill:#4b6726;fill-opacity:1;fill-rule:nonzero;stroke:none;stroke-width:0.0455986"
       id="path118" />
    <path
       d="m 354.5769,338.53583 h 1.36797 l 14.35901,16.98547 -0.0273,-16.98547 h 2.12488 v 20.66985 h -1.37252 l -14.359,-16.98548 0.0273,16.98548 h -2.12034 v -20.66985"
       style="fill:#4b6726;fill-opacity:1;fill-rule:nonzero;stroke:none;stroke-width:0.0455986"
       id="path120" />
    <path
       d="m 398.41998,357.44557 v 1.76011 h -12.99104 v -20.66985 h 12.74025 v 1.76011 h -10.61536 v 7.48274 h 9.91771 v 1.76011 h -9.91771 v 7.90678 h 10.86615"
       style="fill:#4b6726;fill-opacity:1;fill-rule:nonzero;stroke:none;stroke-width:0.0455986"
       id="path122" />
    <path
       d="m 401.23342,348.81376 c 0,-6.34277 4.18596,-10.56065 10.44667,-10.56065 3.38342,0 5.89132,1.28588 7.79279,3.3515 l -1.34059,1.36796 c -1.45006,-1.67347 -3.54757,-2.95934 -6.37014,-2.95934 -4.97025,0 -8.29896,3.52023 -8.29896,8.80053 0,5.33503 3.30136,8.90997 8.24424,8.90997 3.07337,0 5.41712,-1.45002 6.90365,-3.60228 l 1.45002,1.34059 c -1.84675,2.48969 -4.77873,4.0218 -8.38101,4.0218 -6.26071,0 -10.44667,-4.27259 -10.44667,-10.67008"
       style="fill:#4b6726;fill-opacity:1;fill-rule:nonzero;stroke:none;stroke-width:0.0455986"
       id="path124" />
    <path
       d="m 440.50295,348.86848 c 0,-5.30313 -3.2694,-8.85525 -8.10284,-8.85525 -4.89275,0 -8.13026,3.55212 -8.13026,8.85525 0,5.30768 3.23751,8.85525 8.13026,8.85525 4.83344,0 8.10284,-3.54757 8.10284,-8.85525 z m -18.46742,0 c 0,-6.37011 4.16317,-10.61537 10.36458,-10.61537 6.17403,0 10.30527,4.24526 10.30527,10.61537 0,6.37014 -4.13124,10.61536 -10.30527,10.61536 -6.20141,0 -10.36458,-4.24522 -10.36458,-10.61536"
       style="fill:#4b6726;fill-opacity:1;fill-rule:nonzero;stroke:none;stroke-width:0.0455986"
       id="path126" />
    <path
       d="m 458.86553,357.44557 v 1.76011 h -11.89669 v -20.66985 h 2.12034 v 18.90974 h 9.77635"
       style="fill:#4b6726;fill-opacity:1;fill-rule:nonzero;stroke:none;stroke-width:0.0455986"
       id="path128" />
    <path
       d="m 472.35815,331.82829 h 2.48515 l -4.33187,4.1905 h -1.78749 z m 5.72266,17.04019 c 0,-5.30313 -3.26944,-8.85525 -8.10288,-8.85525 -4.8882,0 -8.12568,3.55212 -8.12568,8.85525 0,5.30768 3.23748,8.85525 8.12568,8.85525 4.83344,0 8.10288,-3.54757 8.10288,-8.85525 z m -18.46746,0 c 0,-6.37011 4.16772,-10.61537 10.36458,-10.61537 6.17403,0 10.30986,4.24526 10.30986,10.61537 0,6.37014 -4.13583,10.61536 -10.30986,10.61536 -6.19686,0 -10.36458,-4.24522 -10.36458,-10.61536"
       style="fill:#4b6726;fill-opacity:1;fill-rule:nonzero;stroke:none;stroke-width:0.0455986"
       id="path130" />
    <path
       d="m 503.09621,348.86848 c 0,6.48413 -3.79836,10.61536 -9.74898,10.61536 -6.08742,0 -10.13657,-4.24522 -10.13657,-10.61536 0,-6.37011 4.02177,-10.61537 10.13657,-10.61537 2.74045,0 4.88816,0.6156 6.90362,2.12489 l -1.39989,1.36797 c -1.48195,-1.20379 -3.2922,-1.73274 -5.50373,-1.73274 -4.74683,0 -7.90225,3.55212 -7.90225,8.85525 0,5.30768 3.15542,8.85525 7.92959,8.85525 4.41851,0 7.26388,-3.06878 7.48729,-7.70615 h -6.56618 v -1.79204 h 8.77316 c 0,0.228 0.0274,0.41952 0.0274,0.64294"
       style="fill:#4b6726;fill-opacity:1;fill-rule:nonzero;stroke:none;stroke-width:0.0455986"
       id="path132" />
    <path
       d="m 506.83072,338.53583 h 2.12033 v 20.66985 h -2.12033 v -20.66985"
       style="fill:#4b6726;fill-opacity:1;fill-rule:nonzero;stroke:none;stroke-width:0.0455986"
       id="path134" />
    <path
       d="m 513.22365,348.81376 c 0,-6.34277 4.19051,-10.56065 10.45122,-10.56065 3.37884,0 5.89132,1.28588 7.79279,3.3515 l -1.34059,1.36796 c -1.45461,-1.67347 -3.54757,-2.95934 -6.37469,-2.95934 -4.97026,0 -8.29437,3.52023 -8.29437,8.80053 0,5.33503 3.29677,8.90997 8.23965,8.90997 3.07337,0 5.42167,-1.45002 6.90365,-3.60228 l 1.45457,1.34059 c -1.84672,2.48969 -4.77872,4.0218 -8.38101,4.0218 -6.26071,0 -10.45122,-4.27259 -10.45122,-10.67008"
       style="fill:#4b6726;fill-opacity:1;fill-rule:nonzero;stroke:none;stroke-width:0.0455986"
       id="path136" />
    <path
       d="m 547.74183,352.02845 -4.69667,-10.92542 -4.71946,10.92542 z m 0.75692,1.78749 H 537.5414 l -2.31641,5.38974 h -2.26169 l 9.05132,-20.66985 h 2.01091 l 9.05132,20.66985 h -2.26169 l -2.31641,-5.38974"
       style="fill:#4b6726;fill-opacity:1;fill-rule:nonzero;stroke:none;stroke-width:0.0455986"
       id="path138" />
    <g
       id="g140"
       transform="matrix(0.04559863,0,0,-0.04559863,-262.09436,1566.8762)">
      <g
         id="g142"
         clip-path="url(#clipPath146)">
        <path
           d="M 2741.63,30681.5 4694.05,28031.7 2070.15,26060.1 117.738,28710 Z m 14.28,97.8 L 20.8906,28724.2 2035.15,25990.5 l 20.72,-28.2 2397.2,1801.3 337.82,253.8 -2034.98,2761.9"
           style="fill:url(#linearGradient152);fill-opacity:1;fill-rule:nonzero;stroke:none"
           id="path154" />
      </g>
    </g>
    <path
       d="m -137.07978,167.84193 89.027673,120.82724 -119.646253,89.90225 -89.02732,-120.83179 z m 0.65115,-4.45954 -124.71312,93.70975 91.84743,124.65294 0.94481,1.28591 109.309045,-82.13683 15.404113,-11.57291 z"
       style="fill:none;stroke:url(#linearGradient160);stroke-width:1.36796;stroke-linecap:butt;stroke-linejoin:miter;stroke-miterlimit:10;stroke-dasharray:none;stroke-opacity:1"
       id="path162" />
  </g>
</svg>
