<?xml version="1.0" encoding="UTF-8" standalone="no"?>
<svg
   width="160.0751mm"
   height="161.04109mm"
   viewBox="0 0 160.0751 161.04109"
   version="1.1"
   id="svg1352"
   inkscape:export-filename="ig_icon.svg"
   inkscape:export-xdpi="96"
   inkscape:export-ydpi="96"
   sodipodi:docname="ig_icon_green.svg"
   inkscape:version="1.3.2 (091e20e, 2023-11-25)"
   xmlns:inkscape="http://www.inkscape.org/namespaces/inkscape"
   xmlns:sodipodi="http://sodipodi.sourceforge.net/DTD/sodipodi-0.dtd"
   xmlns="http://www.w3.org/2000/svg"
   xmlns:svg="http://www.w3.org/2000/svg">
  <sodipodi:namedview
     id="namedview1354"
     pagecolor="#ffffff"
     bordercolor="#000000"
     borderopacity="0.25"
     inkscape:showpageshadow="2"
     inkscape:pageopacity="0.0"
     inkscape:pagecheckerboard="0"
     inkscape:deskcolor="#d1d1d1"
     inkscape:document-units="mm"
     showgrid="false"
     inkscape:zoom="0.2102413"
     inkscape:cx="1055.9295"
     inkscape:cy="-156.9625"
     inkscape:window-width="1861"
     inkscape:window-height="1025"
     inkscape:window-x="59"
     inkscape:window-y="25"
     inkscape:window-maximized="1"
     inkscape:current-layer="layer1"
     fill="#000000" />
  <defs
     id="defs1349"
     fill="#000000" />
  <g
     inkscape:label="Layer 1"
     inkscape:groupmode="layer"
     id="layer1"
     transform="translate(46.262433,-674.51202)">
    <path
       d="m 33.157614,826.82082 c 12.68941,0.0247 24.36636,-0.29266 35.70464,-0.98072 8.48783,-0.51858 15.86441,-3.28443 21.92161,-8.22678 5.64092,-4.59669 9.514416,-10.91142 11.518186,-18.76771 1.93323,-7.57414 2.04259,-15.57161 2.14842,-23.30803 0.0811,-5.95841 0.16933,-13.02103 0.18697,-20.18947 -0.0176,-7.16492 -0.10583,-14.22753 -0.18697,-20.18947 -0.10583,-7.73289 -0.21519,-15.73037 -2.14842,-23.30803 -2.00377,-7.85284 -5.877266,-14.16756 -11.518186,-18.76425 -6.0572,-4.94242 -13.43378,-7.7082 -21.92161,-8.22678 -11.33828,-0.68792 -23.00817,-1.00895 -35.68701,-0.98073 -12.69294,-0.0282 -24.3628297,0.29281 -35.7046397,0.98073 -8.4878303,0.51858 -15.8644103,3.28436 -21.9216103,8.22678 -5.63739,4.59669 -9.51442,10.91141 -11.51819,18.76425 -1.93323,7.58119 -2.04259,15.57514 -2.14842,23.30803 -0.0811,5.98664 -0.16581,13.07041 -0.18345,20.20005 0.0176,7.112 0.10231,14.19225 0.18345,20.17889 0.10583,7.73289 0.21519,15.73037 2.14842,23.30803 2.00377,7.85629 5.8808,14.17102 11.51819,18.76771 6.0572,4.94235 13.43378,7.7082 21.9216103,8.22678 11.34181,0.68806 23.0187497,1.00542 35.6870097,0.98072 z m 1.62983,8.41735 c -0.54328,0 -1.08656,0 -1.62983,0 -12.82348,0.0282 -24.6803397,-0.29628 -36.1985297,-0.99839 -10.1388403,-0.61378 -19.3816203,-4.10987 -26.7299803,-10.10007 -7.06614,-5.76086 -11.89567,-13.57147 -14.35453,-23.20918 -2.18016,-8.55133 -2.29658,-17.05328 -2.40947,-25.27653 -0.0811,-6.01133 -0.16933,-13.12333 -0.18344,-20.29531 0.0141,-7.19314 0.1023,-14.30514 0.18344,-20.31294 0.11289,-8.22325 0.22931,-16.72873 2.40947,-25.27653 2.45886,-9.63789 7.28839,-17.44839 14.35453,-23.20925 7.34836,-5.99017 16.59114,-9.4862 26.7299803,-10.10356 11.51819,-0.6985 23.3679997,-1.02658 36.2161597,-0.99483 12.83406,-0.0282 24.68034,0.29633 36.19853,0.99483 10.13884,0.61736 19.38162,4.11339 26.72998,10.10356 7.066136,5.76086 11.895666,13.57136 14.354526,23.20925 2.18016,8.5478 2.29658,17.04975 2.40947,25.27653 0.0811,5.98664 0.16933,13.081 0.18697,20.2953 v 0.0176 c -0.0176,7.21431 -0.10583,14.30867 -0.18697,20.29531 -0.11289,8.22678 -0.22931,16.72872 -2.40947,25.27653 -2.45886,9.63771 -7.28839,17.44472 -14.354526,23.20918 -7.34836,5.9902 -16.59114,9.48629 -26.72998,10.10007 -11.03136,0.67386 -22.35905,0.99839 -34.58633,0.99839"
       style="fill:#80c329;fill-opacity:1;fill-rule:nonzero;stroke:none;stroke-width:0.0352778"
       id="path568" />
    <path
       d="m 32.847164,725.68186 c -16.35889,0 -29.6697897,13.30735 -29.6697897,29.66624 0,16.35888 13.3108997,29.66979 29.6697897,29.66979 16.35888,0 29.66625,-13.31091 29.66625,-29.66979 0,-16.35889 -13.30737,-29.66624 -29.66625,-29.66624 z m 0,67.8121 c -21.03387,0 -38.1458697,-17.112 -38.1458697,-38.14586 0,-21.03032 17.1119997,-38.14231 38.1458697,-38.14231 21.03386,0 38.14586,17.11199 38.14586,38.14231 0,21.03386 -17.112,38.14586 -38.14586,38.14586"
       style="fill:#80c329;fill-opacity:1;fill-rule:nonzero;stroke:none;stroke-width:0.0355242"
       id="path570" />
    <path
       d="m 87.040894,712.05875 c 0,5.31283 -4.30742,9.62025 -9.62025,9.62025 -5.31284,0 -9.62025,-4.30742 -9.62025,-9.62025 0,-5.31284 4.30741,-9.62026 9.62025,-9.62026 5.31283,0 9.62025,4.30742 9.62025,9.62026"
       style="fill:#80c329;fill-opacity:1;fill-rule:nonzero;stroke:none;stroke-width:0.0352778"
       id="path572" />
  </g>
</svg>
