<?xml version="1.0" encoding="UTF-8" standalone="no"?>
<!-- Created with Inkscape (http://www.inkscape.org/) -->

<svg
   width="489.74393mm"
   height="138.89322mm"
   viewBox="0 0 489.74393 138.89322"
   version="1.1"
   id="svg1"
   xmlns="http://www.w3.org/2000/svg"
   xmlns:svg="http://www.w3.org/2000/svg">
  <defs
     id="defs1" />
  <g
     id="g1"
     transform="matrix(0.73437471,0,0,0.73437471,44.626883,48.880428)">
    <path
       id="path51"
       d="m 298.26663,-21.191472 v 1.700389 h -12.54478 v -19.967223 h 12.30489 v 1.700389 h -10.25525 v 7.228417 h 9.58145 v 1.703917 h -9.58145 v 7.634111 h 10.49514"
       style="fill:#80c329;fill-opacity:1;fill-rule:nonzero;stroke:none;stroke-width:0.0352778" />
    <path
       id="path52"
       d="m 314.07108,-21.191472 v 1.700389 h -11.49703 v -19.967223 h 2.05317 v 18.266834 h 9.44386"
       style="fill:#80c329;fill-opacity:1;fill-rule:nonzero;stroke:none;stroke-width:0.0352778" />
    <path
       id="path53"
       d="m 335.05077,-21.191472 v 1.700389 h -11.4935 v -19.967223 h 2.04964 v 18.266834 h 9.44386"
       style="fill:#80c329;fill-opacity:1;fill-rule:nonzero;stroke:none;stroke-width:0.0352778" />
    <path
       id="path54"
       d="m 349.77572,-26.426694 -4.5332,-10.551584 -4.56141,10.551584 z m 0.73025,1.728611 h -10.57981 l -2.24014,5.207 h -2.18369 l 8.74183,-19.967223 h 1.94381 l 8.74183,19.967223 h -2.18369 l -2.24014,-5.207"
       style="fill:#80c329;fill-opacity:1;fill-rule:nonzero;stroke:none;stroke-width:0.0352778" />
    <path
       id="path55"
       d="m 375.13339,-29.474694 c 0,6.261806 -3.67242,10.251723 -9.41917,10.251723 -5.88433,0 -9.79664,-4.099278 -9.79664,-10.251723 0,-6.152445 3.88408,-10.255251 9.79664,-10.255251 2.64583,0 4.7237,0.596195 6.6675,2.053167 l -1.34761,1.319389 c -1.43228,-1.160639 -3.18911,-1.672167 -5.31989,-1.672167 -4.58611,0 -7.63764,3.429 -7.63764,8.554862 0,5.125861 3.05153,8.554861 7.66233,8.554861 4.26509,0 7.02028,-2.970389 7.23548,-7.447139 h -6.34295 v -1.728611 h 8.47725 c 0,0.215194 0.0247,0.405694 0.0247,0.620889"
       style="fill:#80c329;fill-opacity:1;fill-rule:nonzero;stroke:none;stroke-width:0.0352778" />
    <path
       id="path56"
       d="m 395.25231,-29.474694 c 0,-5.125862 -3.15737,-8.554862 -7.82462,-8.554862 -4.72369,0 -7.85283,3.429 -7.85283,8.554862 0,5.125861 3.12914,8.554861 7.85283,8.554861 4.66725,0 7.82462,-3.429 7.82462,-8.554861 z m -17.83645,0 c 0,-6.152445 4.02167,-10.255251 10.01183,-10.255251 5.96195,0 9.95539,4.102806 9.95539,10.255251 0,6.152445 -3.99344,10.251723 -9.95539,10.251723 -5.99016,0 -10.01183,-4.099278 -10.01183,-10.251723"
       style="fill:#80c329;fill-opacity:1;fill-rule:nonzero;stroke:none;stroke-width:0.0352778" />
    <path
       id="path57"
       d="m 422.97006,-29.421778 c 0,-5.0165 -3.0727,-8.336139 -7.71525,-8.336139 h -4.55789 v 16.566445 h 4.55789 c 4.64255,0 7.71525,-3.319639 7.71525,-8.230306 z m 2.1343,0 c 0,5.937251 -3.85939,9.930695 -9.68728,9.930695 h -6.7698 v -19.967223 h 6.7698 c 5.82789,0 9.68728,3.993445 9.68728,10.036528"
       style="fill:#80c329;fill-opacity:1;fill-rule:nonzero;stroke:none;stroke-width:0.0352778" />
    <path
       id="path58"
       d="m 441.79428,-21.191472 v 1.700389 h -12.54831 v -19.967223 h 12.30842 v 1.700389 h -10.25525 v 7.228417 h 9.58145 v 1.703917 h -9.58145 v 7.634111 h 10.49514"
       style="fill:#80c329;fill-opacity:1;fill-rule:nonzero;stroke:none;stroke-width:0.0352778" />
    <path
       id="path59"
       d="m 180.67521,58.949061 c -5.64092,0 -10.922,-0.913694 -15.83972,-2.741083 -4.91773,-1.830917 -9.20398,-4.480278 -12.85876,-7.958667 -3.57716,-3.404306 -6.39938,-7.612945 -8.45961,-12.629446 -2.06375,-5.012972 -3.09386,-10.526889 -3.09386,-16.538223 0,-5.976056 1.0407,-11.504084 3.11856,-16.5946676 2.08139,-5.0870559 5.00239,-9.4967784 8.763,-13.2256394 3.68653,-3.654778 8.11742,-6.491112 13.28914,-8.498418 5.17172,-2.010833 10.70328,-3.01625 16.59819,-3.01625 4.26861,0 8.15623,0.522111 11.66284,1.573389 3.51014,1.04775 6.47347,2.2225 8.89705,3.52425 l 3.36198,-2.980972 h 4.72016 l 0.48684,28.0987518 h -4.77309 c -2.70933,-8.59013939 -5.95841,-14.8978065 -9.75078,-18.9194738 -3.79236,-4.025194 -8.41727,-6.036028 -13.86769,-6.036028 -6.79097,0 -11.95917,2.998612 -15.49753,8.9923064 -3.53836,5.9936948 -5.30931,14.4074453 -5.30931,25.2377236 0,6.120695 0.60678,11.345334 1.81681,15.673918 1.21003,4.328583 2.78694,7.814028 4.74133,10.459862 2.09198,2.751666 4.56848,4.773083 7.42245,6.057194 2.85397,1.287639 6.01486,1.926167 9.48267,1.926167 5.0553,0 9.56027,-1.372305 13.51491,-4.120444 3.95817,-2.74814 7.56003,-6.90739 10.81264,-12.477751 l 4.66373,2.822222 c -1.55575,3.182056 -3.3267,6.028973 -5.31637,8.544278 -1.98966,2.511778 -4.28625,4.674306 -6.88975,6.480529 -2.85397,1.989666 -6.01133,3.545417 -9.46502,4.66725 -3.4537,1.121833 -7.53181,1.679222 -12.23081,1.679222"
       style="fill:#80c329;fill-opacity:1;fill-rule:nonzero;stroke:none;stroke-width:0.0352778" />
    <path
       id="path60"
       d="m 251.81638,33.051643 -8.509,-21.254862 -8.38553,21.254862 z m 30.89628,23.784279 h -32.0287 V 53.60095 c 1.48873,-0.109361 3.2385,-0.377472 5.25286,-0.807861 2.01084,-0.426861 3.01978,-0.959556 3.01978,-1.594556 0,-0.22225 -0.0212,-0.469194 -0.0635,-0.744361 -0.0423,-0.275167 -0.15875,-0.649111 -0.35278,-1.121834 L 253.5203,37.150921 h -20.29531 c -0.46567,1.132417 -0.98072,2.458861 -1.54517,3.979334 -0.56444,1.520472 -1.05127,2.871611 -1.46402,4.060472 -0.51859,1.548695 -0.82903,2.667 -0.92781,3.358445 -0.0953,0.687916 -0.14464,1.171222 -0.14464,1.449916 0,0.881945 0.67028,1.636889 2.00731,2.254251 1.34055,0.624416 3.57011,1.072444 6.68866,1.347611 v 3.234972 H 213.71991 V 53.60095 c 0.91369,-0.05292 1.9438,-0.197556 3.09033,-0.433917 1.14653,-0.232833 2.04964,-0.557389 2.71286,-0.973667 1.13242,-0.663222 2.09197,-1.478139 2.87867,-2.44475 0.78669,-0.966611 1.44639,-2.113139 1.9685,-3.439583 3.20322,-7.761112 6.41703,-15.539862 9.63436,-23.329196 3.22086,-7.789334 6.77686,-16.3794735 10.67153,-25.7704185 h 8.28675 c 5.41514,13.3138345 9.652,23.8371955 12.72117,31.5736135 3.06563,7.732889 5.67619,14.142862 7.83166,19.22639 0.35984,0.829028 0.81492,1.580444 1.36525,2.257778 0.55386,0.677333 1.34056,1.319389 2.36361,1.926166 0.77259,0.440973 1.67217,0.772584 2.69523,0.994834 1.01952,0.22225 1.94733,0.359833 2.77283,0.41275 v 3.234972"
       style="fill:#80c329;fill-opacity:1;fill-rule:nonzero;stroke:none;stroke-width:0.0352778" />
    <path
       id="path61"
       d="m 322.20613,14.858892 c 0,-4.420306 -0.89252,-7.7011395 -2.67405,-9.8425008 -1.78153,-2.1378335 -4.953,-3.210278 -9.51089,-3.210278 h -3.43958 V 27.622393 h 1.74272 c 4.52966,0 7.9763,-1.044223 10.33639,-3.129139 2.36361,-2.084917 3.54541,-5.298723 3.54541,-9.634362 z m 16.15723,-2.113139 c 0,3.316111 -0.68086,6.166556 -2.04964,8.558389 -1.36878,2.388306 -3.25261,4.328584 -5.65503,5.820834 -2.48708,1.545167 -5.32694,2.667 -8.51606,3.354917 -3.19263,0.691444 -6.77686,1.037167 -10.75266,1.037167 h -4.80836 v 16.531167 c 0,0.994834 0.18697,1.859139 0.56091,2.592917 0.37395,0.73025 1.08303,1.315861 2.13431,1.760361 0.55033,0.22225 1.44991,0.455084 2.69169,0.705556 1.24531,0.246944 2.29306,0.41275 3.15031,0.493889 v 3.234972 H 283.25241 V 53.60095 c 0.80081,-0.08114 1.86619,-0.197556 3.19264,-0.352778 1.32644,-0.148167 2.25072,-0.335139 2.77636,-0.557389 1.07597,-0.440972 1.78506,-0.980722 2.13431,-1.615722 0.34219,-0.635 0.51858,-1.520473 0.51858,-2.652889 V 6.9460858 c 0,-0.970139 -0.16581,-1.8026946 -0.49742,-2.5082502 C 291.04527,3.73228 290.32208,3.1466689 289.22141,2.6774744 288.4453,2.3458633 287.41872,2.0495299 286.1346,1.7849466 284.84697,1.523891 283.88741,1.3510299 283.25241,1.2663632 v -3.2314447 h 32.44497 c 7.59884,0 13.27503,1.2100279 17.03212,3.6265558 3.75708,2.416528 5.63386,6.1101115 5.63386,11.0842787"
       style="fill:#80c329;fill-opacity:1;fill-rule:nonzero;stroke:none;stroke-width:0.0352778" />
    <path
       id="path62"
       d="m 394.88894,13.035031 h -3.1503 c -0.80081,-2.229556 -2.18017,-4.487334 -4.14161,-6.7698064 -1.96498,-2.2824723 -3.90878,-3.6336113 -5.84553,-4.0463613 -0.82903,-0.1905001 -1.98261,-0.3069167 -3.46075,-0.3492501 -1.47461,-0.042333 -2.69875,-0.0635 -3.66536,-0.0635 h -8.53723 V 24.472087 h 6.05014 c 1.52048,0 2.90337,-0.179917 4.14514,-0.53975 1.24531,-0.356306 2.37773,-1.04775 3.39725,-2.070806 0.635,-0.635 1.27706,-1.753306 1.92617,-3.358444 0.64911,-1.598084 1.06892,-2.995084 1.26647,-4.183945 h 3.15031 V 38.85131 h -3.15031 c -0.1658,-1.160639 -0.58914,-2.617611 -1.26647,-4.370917 -0.67733,-1.753306 -1.31939,-2.963333 -1.92617,-3.626556 -0.91369,-0.994833 -1.98966,-1.679222 -3.23144,-2.049639 -1.24178,-0.373944 -2.68111,-0.560916 -4.31095,-0.560916 h -6.05014 v 16.947445 c 0,1.767417 0.127,3.167945 0.39159,4.208639 0.26105,1.033639 0.75141,1.827389 1.47108,2.38125 0.69145,0.522112 1.64042,0.867834 2.83986,1.033639 1.20298,0.165806 2.83986,0.250473 4.9142,0.250473 0.96661,0 2.12725,-0.01411 3.47839,-0.04233 1.35466,-0.02469 2.54,-0.109361 3.56305,-0.246944 1.16064,-0.141111 2.24367,-0.345722 3.25614,-0.624417 1.00542,-0.275167 1.75684,-0.673806 2.25425,-1.199444 1.32645,-1.354667 2.8187,-3.421945 4.47675,-6.194779 1.65806,-2.776361 2.74814,-4.854222 3.27378,-6.237111 h 3.02331 l -1.11831,18.316223 H 342.75897 V 53.60095 c 0.76905,-0.05292 1.82033,-0.162278 3.14678,-0.328084 1.32644,-0.165805 2.26483,-0.359833 2.81869,-0.582083 1.04775,-0.440972 1.75331,-0.998361 2.11314,-1.679222 0.35631,-0.673806 0.53975,-1.538111 0.53975,-2.589389 V 6.9460858 c 0,-0.9948334 -0.15522,-1.8168057 -0.45861,-2.4659168 -0.30339,-0.6491112 -1.03364,-1.2382501 -2.19428,-1.763889 -0.71967,-0.3280834 -1.72508,-0.6350001 -3.02683,-0.9101668 -1.29822,-0.2751667 -2.27542,-0.4550833 -2.93864,-0.53975 v -3.2314447 h 52.12997 V 13.035031"
       style="fill:#80c329;fill-opacity:1;fill-rule:nonzero;stroke:none;stroke-width:0.0352778" />
    <path
       id="path63"
       d="M 436.32622,56.835922 H 403.71544 V 53.60095 c 0.74789,-0.05292 1.84503,-0.137584 3.29495,-0.246945 1.44992,-0.109361 2.45181,-0.275166 3.00214,-0.497416 1.02305,-0.41275 1.72155,-0.959556 2.09197,-1.636889 0.37395,-0.677334 0.56092,-1.538112 0.56092,-2.589389 V 6.9460858 c 0,-0.938389 -0.17992,-1.7674168 -0.53975,-2.4870835 -0.35631,-0.7196667 -1.06539,-1.2982223 -2.11314,-1.7427223 -0.66322,-0.2751667 -1.64042,-0.557389 -2.93864,-0.8466668 -1.30175,-0.2892778 -2.42006,-0.4903611 -3.35845,-0.60325 v -3.2314447 h 32.61078 v 3.2314447 c -0.82902,0.084667 -1.86266,0.2010833 -3.10797,0.3527778 -1.24178,0.1516945 -2.29305,0.3668889 -3.1503,0.6420556 -1.07598,0.3598333 -1.79564,0.9207501 -2.15548,1.6792223 -0.3563,0.7620001 -0.53975,1.6227779 -0.53975,2.5893891 v 41.645419 c 0,0.991306 0.18698,1.8415 0.56092,2.547056 0.37395,0.705556 1.08656,1.280583 2.13431,1.721556 0.58208,0.246944 1.54164,0.490361 2.88219,0.723194 1.33703,0.236361 2.46592,0.381 3.37608,0.433917 v 3.234972"
       style="fill:#80c329;fill-opacity:1;fill-rule:nonzero;stroke:none;stroke-width:0.0352778" />
    <path
       id="path64"
       d="m 481.07609,13.119697 c 0,-3.9228889 -1.09714,-6.7909724 -3.29142,-8.5971947 -2.1978,-1.8097501 -5.32694,-2.7163891 -9.38742,-2.7163891 h -3.27377 V 26.41942 h 3.1503 c 4.06047,0 7.21078,-1.065389 9.44386,-3.189111 2.24014,-2.12725 3.35845,-5.496278 3.35845,-10.110612 z m 28.21869,43.716225 h -22.56366 c -3.89114,-5.969 -7.12964,-10.717389 -9.71198,-14.255751 -2.5788,-3.534833 -5.78908,-7.623528 -9.62377,-12.266084 h -2.27189 v 17.86114 c 0,0.991306 0.18697,1.837973 0.56091,2.525889 0.37395,0.691445 1.08303,1.27 2.13431,1.742723 0.52211,0.218722 1.34408,0.448027 2.46239,0.684389 1.1183,0.232833 2.08139,0.391583 2.88219,0.472722 v 3.234972 h -31.369 V 53.60095 c 0.80081,-0.08114 1.85561,-0.197556 3.17147,-0.352778 1.30881,-0.148167 2.24367,-0.335139 2.79753,-0.557389 1.04775,-0.440972 1.75331,-0.998361 2.10961,-1.679222 0.35984,-0.673806 0.53975,-1.538111 0.53975,-2.589389 V 6.9460858 c 0,-0.9948334 -0.14816,-1.8238612 -0.45508,-2.4870835 -0.30339,-0.6632223 -1.03717,-1.2453056 -2.19428,-1.7427223 -0.88547,-0.3563056 -1.92617,-0.6632223 -3.12914,-0.9101668 -1.20297,-0.2469444 -2.14841,-0.4268611 -2.83986,-0.53975 v -3.2314447 h 32.98473 c 7.37305,0 12.97516,1.15358346 16.8028,3.4607503 3.82411,2.3071668 5.7397,5.7961392 5.7397,10.4633892 0,4.116917 -1.18181,7.425973 -3.54542,9.92364 -2.36008,2.501194 -5.95842,4.455583 -10.795,5.863167 1.8803,2.430639 4.06753,5.249334 6.56872,8.452556 2.5012,3.20675 5.1047,6.480528 7.81403,9.821334 0.85372,1.0795 2.02142,2.395361 3.49956,3.958167 1.47813,1.559278 2.78341,2.518833 3.91583,2.878667 0.635,0.194027 1.44286,0.359833 2.42358,0.497416 0.98072,0.137584 1.67922,0.22225 2.09197,0.246945 v 3.234972"
       style="fill:#80c329;fill-opacity:1;fill-rule:nonzero;stroke:none;stroke-width:0.0352778" />
    <path
       id="path65"
       d="M 553.43787,25.699754 542.29362,-2.1238315 531.31518,25.699754 Z m 40.44245,31.136168 h -41.93117 v -4.233333 c 1.95086,-0.144639 4.24039,-0.497417 6.87917,-1.054806 2.63172,-0.564444 3.95111,-1.259417 3.95111,-2.088445 0,-0.292805 -0.0282,-0.617361 -0.0811,-0.977194 -0.0565,-0.363361 -0.20814,-0.850195 -0.46214,-1.467556 l -6.5652,-15.945556 H 529.0962 c -0.6103,1.481667 -1.28764,3.217333 -2.02141,5.207 -0.74084,1.989667 -1.37584,3.760611 -1.91559,5.316362 -0.68439,2.024944 -1.08655,3.488972 -1.21355,4.392083 -0.13053,0.906639 -0.1905,1.538111 -0.1905,1.897945 0,1.160639 0.87489,2.144889 2.62819,2.956278 1.74978,0.814916 4.66725,1.404055 8.75242,1.763889 v 4.233333 h -31.57009 v -4.233333 c 1.19239,-0.07056 2.54,-0.261056 4.03931,-0.567973 1.50283,-0.306916 2.68464,-0.733777 3.55247,-1.277055 1.4852,-0.864306 2.74109,-1.933223 3.7712,-3.199695 1.03011,-1.262944 1.89089,-2.765778 2.57527,-4.501445 4.19453,-10.16 8.39964,-20.341168 12.61181,-30.539974 4.2157,-10.198806 8.86883,-21.4453622 13.97,-33.739669 h 10.84792 c 7.0873,17.4307515 12.64003,31.2102524 16.65464,41.334975 4.01461,10.124723 7.4295,18.513779 10.25172,25.167169 0.4692,1.086555 1.06539,2.074333 1.78859,2.959805 0.72319,0.885473 1.75683,1.725084 3.09386,2.518834 1.01247,0.582083 2.18722,1.016 3.52425,1.305278 1.34055,0.28575 2.55058,0.469194 3.63361,0.53975 v 4.233333"
       style="fill:#80c329;fill-opacity:1;fill-rule:nonzero;stroke:none;stroke-width:0.0352778" />
    <path
       id="path66"
       d="m 166.23601,92.194841 v 1.361722 h -9.20397 V 77.565146 h 1.64042 v 14.629695 h 7.56355"
       style="fill:#80c329;fill-opacity:1;fill-rule:nonzero;stroke:none;stroke-width:0.0352778" />
    <path
       id="path67"
       d="m 178.0329,88.003841 -3.63008,-8.452556 -3.65478,8.452556 z m 0.58209,1.382889 h -8.47373 l -1.79211,4.169833 h -1.74978 l 6.99912,-15.991417 h 1.55927 l 6.99912,15.991417 h -1.74978 l -1.79211,-4.169833"
       style="fill:#80c329;fill-opacity:1;fill-rule:nonzero;stroke:none;stroke-width:0.0352778" />
    <path
       id="path68"
       d="m 197.62618,72.375784 h 1.91911 l -3.34786,3.242028 h -1.38641 z m -8.41022,15.476362 v -10.287 h 1.64394 v 10.219973 c 0,2.769305 1.96498,4.624917 4.92478,4.624917 2.96334,0 4.92831,-1.855612 4.92831,-4.624917 V 77.565146 h 1.64394 v 10.287 c 0,3.563056 -2.61408,5.919612 -6.57225,5.919612 -3.93347,0 -6.56872,-2.356556 -6.56872,-5.919612"
       style="fill:#80c329;fill-opacity:1;fill-rule:nonzero;stroke:none;stroke-width:0.0352778" />
    <path
       id="path69"
       d="m 206.51618,77.565146 h 1.06186 l 11.10898,13.140973 -0.0212,-13.140973 h 1.64042 v 15.991417 h -1.05834 l -11.10897,-13.140973 0.0247,13.140973 h -1.64747 V 77.565146"
       style="fill:#80c329;fill-opacity:1;fill-rule:nonzero;stroke:none;stroke-width:0.0352778" />
    <path
       id="path70"
       d="m 224.6666,77.565146 h 1.64042 V 93.556563 H 224.6666 V 77.565146"
       style="fill:#80c329;fill-opacity:1;fill-rule:nonzero;stroke:none;stroke-width:0.0352778" />
    <path
       id="path71"
       d="m 229.60902,85.516757 c 0,-4.907139 3.24555,-8.170333 8.08566,-8.170333 2.61409,0 4.55789,0.994833 6.02898,2.592916 l -1.03717,1.058334 c -1.12536,-1.294695 -2.74461,-2.289528 -4.92831,-2.289528 -3.8488,0 -6.41702,2.723444 -6.41702,6.808611 0,4.127501 2.54705,6.893279 6.37116,6.893279 2.38125,0 4.19453,-1.121834 5.34106,-2.786945 l 1.12536,1.037167 c -1.42875,1.926167 -3.69711,3.1115 -6.48406,3.1115 -4.84011,0 -8.08566,-3.305528 -8.08566,-8.255001"
       style="fill:#80c329;fill-opacity:1;fill-rule:nonzero;stroke:none;stroke-width:0.0352778" />
    <path
       id="path72"
       d="m 256.3143,88.003841 -3.63009,-8.452556 -3.65477,8.452556 z m 0.58561,1.382889 h -8.47372 l -1.79564,4.169833 h -1.74978 l 7.00264,-15.991417 h 1.55575 l 7.00264,15.991417 h -1.74978 l -1.79211,-4.169833"
       style="fill:#80c329;fill-opacity:1;fill-rule:nonzero;stroke:none;stroke-width:0.0352778" />
    <path
       id="path73"
       d="m 267.50088,87.852146 v -10.287 h 1.64395 v 10.219973 c 0,2.769305 1.96144,4.624917 4.92477,4.624917 2.95981,0 4.92831,-1.855612 4.92831,-4.624917 V 77.565146 h 1.64042 v 10.287 c 0,3.563056 -2.61409,5.919612 -6.56873,5.919612 -3.93347,0 -6.56872,-2.356556 -6.56872,-5.919612"
       style="fill:#80c329;fill-opacity:1;fill-rule:nonzero;stroke:none;stroke-width:0.0352778" />
    <path
       id="path74"
       d="m 286.44505,85.668452 h 4.0393 c 2.31423,0 3.86998,-1.361722 3.86998,-3.372556 0,-2.028472 -1.53459,-3.369028 -3.86998,-3.369028 h -4.0393 z m 8.79475,7.888111 -4.25803,-6.526389 h -4.53672 v 6.526389 H 284.8011 V 77.565146 h 5.90198 c 3.24202,0 5.35869,1.880305 5.35869,4.73075 0,2.183695 -1.29822,3.827639 -3.41136,4.452056 l 4.53672,6.808611 h -1.94733"
       style="fill:#80c329;fill-opacity:1;fill-rule:nonzero;stroke:none;stroke-width:0.0352778" />
    <path
       id="path75"
       d="m 309.64724,89.104508 c 0,-1.834445 -1.44638,-3.069167 -3.60891,-3.069167 h -4.51556 v 6.1595 h 4.51556 c 2.16253,0 3.60891,-1.231194 3.60891,-3.090333 z m -8.12447,-4.452056 h 3.95464 c 2.07433,0 3.43606,-1.146528 3.43606,-2.853973 0,-1.728611 -1.40406,-2.871611 -3.52425,-2.871611 h -3.86645 z m 9.83545,4.452056 c 0,2.681111 -2.0567,4.452055 -5.1435,4.452055 h -6.33589 V 77.565146 h 5.9443 c 2.87514,0 4.79778,1.61925 4.79778,4.039306 0,1.686277 -0.97367,2.942166 -2.59292,3.58775 2.05317,0.497417 3.33023,1.943805 3.33023,3.912306"
       style="fill:#80c329;fill-opacity:1;fill-rule:nonzero;stroke:none;stroke-width:0.0352778" />
    <path
       id="path76"
       d="m 323.73366,88.003841 -3.63008,-8.452556 -3.65478,8.452556 z m 0.58209,1.382889 h -8.4702 l -1.79211,4.169833 h -1.75331 l 7.00264,-15.991417 h 1.55575 l 7.00264,15.991417 h -1.74978 l -1.79563,-4.169833"
       style="fill:#80c329;fill-opacity:1;fill-rule:nonzero;stroke:none;stroke-width:0.0352778" />
    <path
       id="path77"
       d="m 330.09777,77.565146 h 1.06186 l 11.10898,13.140973 -0.0212,-13.140973 h 1.64042 v 15.991417 h -1.05481 l -11.1125,-13.140973 0.0247,13.140973 h -1.64748 V 77.565146"
       style="fill:#80c329;fill-opacity:1;fill-rule:nonzero;stroke:none;stroke-width:0.0352778" />
    <path
       id="path78"
       d="m 348.24819,77.565146 h 1.64042 v 15.991417 h -1.64042 V 77.565146"
       style="fill:#80c329;fill-opacity:1;fill-rule:nonzero;stroke:none;stroke-width:0.0352778" />
    <path
       id="path79"
       d="m 364.90636,92.194841 v 1.361722 H 352.82372 V 92.49823 l 9.66258,-13.571362 h -9.53205 v -1.361722 h 11.73339 v 1.037167 l -9.65906,13.592528 h 9.87778"
       style="fill:#80c329;fill-opacity:1;fill-rule:nonzero;stroke:none;stroke-width:0.0352778" />
    <path
       id="path80"
       d="m 377.13717,88.003841 -3.63009,-8.452556 -3.65478,8.452556 z m 0.58208,1.382889 h -8.47372 l -1.79564,4.169833 h -1.74978 l 7.00617,-15.991417 h 1.55575 l 7.00264,15.991417 h -1.74978 l -1.79564,-4.169833"
       style="fill:#80c329;fill-opacity:1;fill-rule:nonzero;stroke:none;stroke-width:0.0352778" />
    <path
       id="path81"
       d="m 382.03372,85.516757 c 0,-4.907139 3.24203,-8.170333 8.08214,-8.170333 2.61761,0 4.56142,0.994833 6.02897,2.592916 l -1.03364,1.058334 c -1.12536,-1.294695 -2.74813,-2.289528 -4.9283,-2.289528 -3.84881,0 -6.42056,2.723444 -6.42056,6.808611 0,4.127501 2.55059,6.893279 6.37823,6.893279 2.37772,0 4.191,-1.121834 5.33752,-2.786945 l 1.12184,1.037167 c -1.42523,1.926167 -3.69359,3.1115 -6.48406,3.1115 -4.84011,0 -8.08214,-3.305528 -8.08214,-8.255001"
       style="fill:#80c329;fill-opacity:1;fill-rule:nonzero;stroke:none;stroke-width:0.0352778" />
    <path
       id="path82"
       d="m 399.468,77.565146 h 1.64042 V 93.556563 H 399.468 V 77.565146"
       style="fill:#80c329;fill-opacity:1;fill-rule:nonzero;stroke:none;stroke-width:0.0352778" />
    <path
       id="path83"
       d="m 414.27056,72.375784 h 1.92264 l -3.35139,3.242028 h -1.38289 z m 4.43089,13.183307 c 0,-4.102806 -2.52942,-6.850945 -6.26887,-6.850945 -3.78177,0 -6.29002,2.748139 -6.29002,6.850945 0,4.106333 2.50825,6.850945 6.29002,6.850945 3.73945,0 6.26887,-2.744612 6.26887,-6.850945 z m -14.2875,0 c 0,-4.928306 3.22086,-8.212667 8.01863,-8.212667 4.77662,0 7.97278,3.284361 7.97278,8.212667 0,4.928306 -3.19616,8.212667 -7.97278,8.212667 -4.79777,0 -8.01863,-3.284361 -8.01863,-8.212667"
       style="fill:#80c329;fill-opacity:1;fill-rule:nonzero;stroke:none;stroke-width:0.0352778" />
    <path
       id="path84"
       d="m 423.70384,77.565146 h 1.05833 l 11.10897,13.140973 -0.0212,-13.140973 h 1.64395 v 15.991417 h -1.06186 l -11.10897,-13.140973 0.0212,13.140973 h -1.64041 V 77.565146"
       style="fill:#80c329;fill-opacity:1;fill-rule:nonzero;stroke:none;stroke-width:0.0352778" />
    <path
       id="path85"
       d="m 457.62342,92.194841 v 1.361722 H 447.57278 V 77.565146 h 9.85309 v 1.361722 h -8.20914 v 5.789084 h 7.67291 v 1.361722 h -7.67291 v 6.117167 h 8.40669"
       style="fill:#80c329;fill-opacity:1;fill-rule:nonzero;stroke:none;stroke-width:0.0352778" />
    <path
       id="path86"
       d="m 459.80006,85.516757 c 0,-4.907139 3.2385,-8.170333 8.08214,-8.170333 2.61761,0 4.55789,0.994833 6.02897,2.592916 l -1.03717,1.058334 c -1.12183,-1.294695 -2.74461,-2.289528 -4.9283,-2.289528 -3.84528,0 -6.42056,2.723444 -6.42056,6.808611 0,4.127501 2.55411,6.893279 6.37823,6.893279 2.37772,0 4.191,-1.121834 5.34105,-2.786945 l 1.12184,1.037167 c -1.42876,1.926167 -3.69712,3.1115 -6.48406,3.1115 -4.84364,0 -8.08214,-3.305528 -8.08214,-8.255001"
       style="fill:#80c329;fill-opacity:1;fill-rule:nonzero;stroke:none;stroke-width:0.0352778" />
    <path
       id="path87"
       d="m 490.18128,85.559091 c 0,-4.102806 -2.52941,-6.850945 -6.26886,-6.850945 -3.7853,0 -6.29003,2.748139 -6.29003,6.850945 0,4.106333 2.50473,6.850945 6.29003,6.850945 3.73945,0 6.26886,-2.744612 6.26886,-6.850945 z m -14.2875,0 c 0,-4.928306 3.22086,-8.212667 8.01864,-8.212667 4.77661,0 7.97278,3.284361 7.97278,8.212667 0,4.928306 -3.19617,8.212667 -7.97278,8.212667 -4.79778,0 -8.01864,-3.284361 -8.01864,-8.212667"
       style="fill:#80c329;fill-opacity:1;fill-rule:nonzero;stroke:none;stroke-width:0.0352778" />
    <path
       id="path88"
       d="m 504.38765,92.194841 v 1.361722 h -9.20398 V 77.565146 h 1.64042 v 14.629695 h 7.56356"
       style="fill:#80c329;fill-opacity:1;fill-rule:nonzero;stroke:none;stroke-width:0.0352778" />
    <path
       id="path89"
       d="m 514.82634,72.375784 h 1.92264 l -3.35139,3.242028 h -1.38289 z m 4.42736,13.183307 c 0,-4.102806 -2.52589,-6.850945 -6.26886,-6.850945 -3.78178,0 -6.2865,2.748139 -6.2865,6.850945 0,4.106333 2.50472,6.850945 6.2865,6.850945 3.74297,0 6.26886,-2.744612 6.26886,-6.850945 z m -14.2875,0 c 0,-4.928306 3.22439,-8.212667 8.01864,-8.212667 4.77661,0 7.97631,3.284361 7.97631,8.212667 0,4.928306 -3.1997,8.212667 -7.97631,8.212667 -4.79425,0 -8.01864,-3.284361 -8.01864,-8.212667"
       style="fill:#80c329;fill-opacity:1;fill-rule:nonzero;stroke:none;stroke-width:0.0352778" />
    <path
       id="path90"
       d="m 538.60709,85.559091 c 0,5.0165 -2.93864,8.212667 -7.54239,8.212667 -4.70958,0 -7.84225,-3.284361 -7.84225,-8.212667 0,-4.928306 3.1115,-8.212667 7.84225,-8.212667 2.1202,0 3.78178,0.47625 5.34106,1.643944 l -1.08303,1.058333 c -1.14653,-0.931333 -2.55058,-1.340555 -4.25803,-1.340555 -3.67241,0 -6.11364,2.748139 -6.11364,6.850945 0,4.106333 2.44123,6.850945 6.13481,6.850945 3.41842,0 5.61975,-2.374195 5.79261,-5.961945 h -5.07647 v -1.386417 h 6.78392 c 0,0.176389 0.0212,0.324556 0.0212,0.497417"
       style="fill:#80c329;fill-opacity:1;fill-rule:nonzero;stroke:none;stroke-width:0.0352778" />
    <path
       id="path91"
       d="m 541.49634,77.565146 h 1.64042 v 15.991417 h -1.64042 V 77.565146"
       style="fill:#80c329;fill-opacity:1;fill-rule:nonzero;stroke:none;stroke-width:0.0352778" />
    <path
       id="path92"
       d="m 546.44229,85.516757 c 0,-4.907139 3.24203,-8.170333 8.08566,-8.170333 2.61409,0 4.55789,0.994833 6.02898,2.592916 l -1.03717,1.058334 c -1.12536,-1.294695 -2.74461,-2.289528 -4.93183,-2.289528 -3.84528,0 -6.41703,2.723444 -6.41703,6.808611 0,4.127501 2.55058,6.893279 6.37469,6.893279 2.37773,0 4.19453,-1.121834 5.34106,-2.786945 l 1.12536,1.037167 c -1.42875,1.926167 -3.69711,3.1115 -6.48406,3.1115 -4.84363,0 -8.08566,-3.305528 -8.08566,-8.255001"
       style="fill:#80c329;fill-opacity:1;fill-rule:nonzero;stroke:none;stroke-width:0.0352778" />
    <path
       id="path93"
       d="m 573.14757,88.003841 -3.63361,-8.452556 -3.65125,8.452556 z m 0.58561,1.382889 h -8.47725 l -1.79211,4.169833 h -1.74978 l 7.00264,-15.991417 h 1.55575 l 7.00264,15.991417 h -1.74978 l -1.79211,-4.169833"
       style="fill:#80c329;fill-opacity:1;fill-rule:nonzero;stroke:none;stroke-width:0.0352778" />
    <path
       id="path94"
       d="M 43.328228,-54.493696 112.20457,38.985366 19.642726,108.53904 -49.237139,15.056447 Z m 0.504472,-3.450167 -96.484728,72.499366 71.060032,96.438867 0.73025,0.99483 84.567896,-63.545862 11.91683,-8.9535 -71.79028,-97.433701"
       style="fill:#80c329;fill-opacity:1;fill-rule:nonzero;stroke:none;stroke-width:0.0352778" />
  </g>
</svg>
