<?xml version="1.0" encoding="UTF-8" standalone="no"?>
<!-- Created with Inkscape (http://www.inkscape.org/) -->

<svg
   width="490.68353mm"
   height="169.92308mm"
   viewBox="0 0 490.68354 169.92308"
   version="1.1"
   id="svg1"
   xmlns="http://www.w3.org/2000/svg"
   xmlns:svg="http://www.w3.org/2000/svg">
  <defs
     id="defs1" />
  <g
     id="layer1"
     transform="translate(256.7983,-718.40826)">
    <path
       id="path195"
       d="m 235.21306,132.41591 4.63973,-3.21733 3.21734,4.63903 -4.63974,3.21733 -3.21733,-4.63903"
       style="fill:#100f0d;fill-opacity:1;fill-rule:nonzero;stroke:none;stroke-width:0.0352778" />
    <path
       id="path196"
       d="m 286.62407,206.66153 4.63903,-3.21381 3.21522,4.63903 -4.63938,3.21381 -3.21487,-4.63903"
       style="fill:#100f0d;fill-opacity:1;fill-rule:nonzero;stroke:none;stroke-width:0.0352778" />
    <path
       id="path197"
       d="m 303.93982,211.82972 -13.91779,9.64142 -17.68193,-25.51642 4.63973,-3.2138 6.42973,9.27805 4.63903,-3.2138 -6.42938,-9.27806 4.63903,-3.2138 z m -55.11554,-0.25752 h 3.6e-4 l -33.11843,-47.79434 c -7.99289,-11.59228 -7.58049,-27.01925 1.02023,-38.16703 l 17.42017,25.13895 c -3.36021,3.89819 -3.66042,9.57791 -0.73025,13.80772 l 20.89644,30.15897 c 2.93405,4.22981 8.3559,5.94078 13.18754,4.16631 l 17.42087,25.13894 c -13.45917,4.13809 -28.05006,-0.89252 -36.09693,-12.44952 z m -23.28298,-93.06279 6.42973,9.27806 4.63938,-3.21381 -6.42973,-9.27805 4.63938,-3.21734 17.68087,25.51995 -13.91708,9.64494 -8.84132,-12.75997 -8.84096,-12.75644 z m 46.33948,70.78487 -5.23981,3.63008 c -2.56257,1.778 -6.07906,1.13947 -7.85424,-1.42522 l -20.89679,-30.15545 c -1.77518,-2.56116 -1.13736,-6.07836 1.42487,-7.85283 l 16.23695,-11.25009 c 2.55905,-1.778 3.19616,-5.29166 1.42451,-7.85636 l -17.68193,-25.51642 c -1.77588,-2.56116 -5.29202,-3.19969 -7.85424,-1.42522 l -16.23801,11.25361 c -0.0131,0.0106 -0.0215,0.0212 -0.0335,0.0282 -0.14006,0.0988 -0.27058,0.21166 -0.39018,0.33161 -12.51338,13.03161 -14.13369,33.06586 -3.87667,47.93544 l 33.11878,47.79434 c 10.31487,14.83784 29.65203,20.35881 46.24635,13.20447 0.0152,-0.007 0.0215,-0.0141 0.0353,-0.0212 0.1577,-0.067 0.30904,-0.1517 0.45191,-0.24695 l 16.23731,-11.25361 c 2.5594,-1.778 3.19687,-5.29167 1.42487,-7.85636 L 290.73327,183.0959 c -1.77765,-2.55764 -5.29132,-3.19617 -7.85389,-1.42169 l -5.35411,3.70769 -5.64445,3.91231"
       style="fill:#100f0d;fill-opacity:1;fill-rule:nonzero;stroke:none;stroke-width:0.0352778" />
    <path
       id="path198"
       d="m 276.81967,158.44386 h 5.64445 v 5.64444 h -5.64445 v -5.64444"
       style="fill:#100f0d;fill-opacity:1;fill-rule:nonzero;stroke:none;stroke-width:0.0352778" />
    <path
       id="path199"
       d="m 288.10856,158.44386 h 11.28889 v 5.64444 h -11.28889 v -5.64444"
       style="fill:#100f0d;fill-opacity:1;fill-rule:nonzero;stroke:none;stroke-width:0.0352778" />
    <path
       id="path200"
       d="m 101.97168,-67.557761 c -21.258393,0 -38.555093,17.28963 -38.555093,38.54803 0,8.15622 2.70581,16.08314 8.03628,23.5549696 L 101.97168,37.316019 132.49401,-5.4618214 c 5.32695,-7.4612496 8.0257,-15.3881596 8.0257,-23.5479096 0,-21.2584 -17.29317,-38.54803 -38.54803,-38.54803 z m 0,112.01047 -33.894893,-47.5015304 c -5.84201,-8.1879696 -8.80534,-16.9227496 -8.80534,-25.9609096 0,-23.54087 19.15584,-42.69317 42.700233,-42.69317 23.54086,0 42.68964,19.1523 42.68964,42.69317 0,8.91469 -3.04095,17.89289 -8.79475,25.9573896 L 101.97168,44.452709"
       style="fill:#100f0d;fill-opacity:1;fill-rule:nonzero;stroke:none;stroke-width:0.0352778" />
    <path
       id="path201"
       d="M 105.0232,-3.7896514 C 89.575057,-2.0751514 76.448197,-14.171901 76.448197,-29.277851 h 4.14514 c 0,12.66473 11.00314,22.8070896 23.953613,21.3712796 9.86367,-1.09361 17.8047,-9.0311096 18.91595,-18.8912496 1.45697,-12.96105 -8.68892,-23.98183 -21.3607,-23.98183 v -4.14514 c 15.113,0 27.21328,13.14097 25.47762,28.59617 -1.31939,11.76161 -10.79148,21.2301596 -22.55662,22.5389696"
       style="fill:#100f0d;fill-opacity:1;fill-rule:nonzero;stroke:none;stroke-width:0.0352778" />
    <path
       id="path202"
       d="m 81.521147,-35.670181 -3.94053,-1.28411 c 2.52589,-7.76817 8.67481,-13.91356 16.44297,-16.44297 l 1.28059,3.94405 c -6.51228,2.11667 -11.66284,7.27075 -13.78303,13.78303"
       style="fill:#100f0d;fill-opacity:1;fill-rule:nonzero;stroke:none;stroke-width:0.0352778" />
    <path
       id="path203"
       d="m 99.339947,2.9554586 h 4.603753 v 4.60375 h -4.603753 v -4.60375"
       style="fill:#100f0d;fill-opacity:1;fill-rule:nonzero;stroke:none;stroke-width:0.0352778" />
    <path
       id="path204"
       d="m 99.339947,11.242209 h 4.603753 v 4.60728 h -4.603753 v -4.60728"
       style="fill:#100f0d;fill-opacity:1;fill-rule:nonzero;stroke:none;stroke-width:0.0352778" />
    <path
       id="path205"
       d="m 99.339947,19.532489 h 4.603753 v 4.60375 h -4.603753 v -4.60375"
       style="fill:#100f0d;fill-opacity:1;fill-rule:nonzero;stroke:none;stroke-width:0.0352778" />
    <path
       id="path206"
       d="m 782.57924,71.507637 h 5.94784 v 3.92289 c 0,0.98425 0.8008,1.78506 1.78858,1.78506 h 7.60236 c 0.98778,0 1.78858,-0.80081 1.78858,-1.78506 v -3.92289 h 11.65225 v 3.92289 c 0,0.98425 0.80081,1.78506 1.78859,1.78506 h 7.60236 c 0.98778,0 1.78858,-0.80081 1.78858,-1.78506 v -3.92289 h 11.65578 v 3.92289 c 0,0.98425 0.79728,1.78506 1.78506,1.78506 h 7.60589 c 0.98777,0 1.78505,-0.80081 1.78505,-1.78506 v -3.92289 h 11.77573 0.11641 v 3.92289 c 0,0.98425 0.80081,1.78506 1.78859,1.78506 h 7.60589 c 0.98425,0 1.78505,-0.80081 1.78505,-1.78506 v -3.92994 c 0.0388,0.004 0.0776,0.007 0.11995,0.007 h 5.82789 v 9.75078 h -91.81043 z m 9.51442,-9.51441 h 4.04283 v 11.65577 h -4.04283 z m 22.83531,0 h 4.04283 v 11.65577 h -4.04283 z m 22.83178,0 h 4.04283 v 11.65577 h -4.04283 z m 23.07167,0 h 4.04283 v 11.65577 h -4.04283 z M 794.11508,146.1907 H 782.57924 V 84.828527 h 91.81043 v 5.77145 l 3.56658,0.067 v -20.94089 c 0,-0.98425 -0.8008,-1.78505 -1.78858,-1.78505 h -7.60589 c -0.0423,0 -0.0811,0.004 -0.11995,0.004 v -7.72936 c 0,-0.98778 -0.8008,-1.78859 -1.78505,-1.78859 h -7.84225 c -0.98778,0 -1.78859,0.80081 -1.78859,1.78859 v 7.72583 H 856.906 845.37016 v -7.72583 c 0,-0.98778 -0.79728,-1.78859 -1.78505,-1.78859 h -7.60589 c -0.98778,0 -1.78506,0.80081 -1.78506,1.78859 v 7.72583 h -11.65578 v -7.72583 c 0,-0.98778 -0.8008,-1.78859 -1.78858,-1.78859 h -7.60236 c -0.98778,0 -1.78859,0.80081 -1.78859,1.78859 v 7.72583 H 799.7066 v -7.72583 c 0,-0.98778 -0.8008,-1.78859 -1.78858,-1.78859 h -7.60236 c -0.98778,0 -1.78858,0.80081 -1.78858,1.78859 v 7.72583 h -7.72584 c -0.98778,0 -1.78858,0.8008 -1.78858,1.78505 v 78.246123 c 0,0.98778 0.8008,1.78506 1.78858,1.78506 h 13.24328 l 0.0706,-3.56659"
       style="fill:#100f0d;fill-opacity:1;fill-rule:nonzero;stroke:none;stroke-width:0.0352778" />
    <path
       id="path207"
       d="m 870.37153,163.26868 c -14.78492,0 -26.81112,-12.02973 -26.81112,-26.81112 0,-14.78491 12.0262,-26.81111 26.81112,-26.81111 14.78139,0 26.80758,12.0262 26.80758,26.81111 0,14.78139 -12.02619,26.81112 -26.80758,26.81112 z m -67.44406,-13.51139 h 40.23783 c 4.91772,10.12825 15.30703,17.12736 27.29795,17.12736 16.72167,0 30.32478,-13.60664 30.32478,-30.32478 0,-14.13934 -9.72256,-26.04559 -22.83178,-29.38992 v 0 -7.644693 l -3.56658,-0.0706 v 7.030863 c -1.28764,-0.1658 -2.59645,-0.25047 -3.92642,-0.25047 -16.72167,0 -30.32478,13.60311 -30.32478,30.32478 0,3.3655 0.55386,6.604 1.56986,9.63083 h -38.71031 l -0.0706,3.56659"
       style="fill:#100f0d;fill-opacity:1;fill-rule:nonzero;stroke:none;stroke-width:0.0352778" />
    <path
       id="path208"
       d="m 870.37153,155.64162 c -10.57981,0 -19.18406,-8.60778 -19.18406,-19.18406 0,-10.5798 8.60425,-19.18405 19.18406,-19.18405 10.57628,0 19.18406,8.60425 19.18406,19.18405 0,10.57628 -8.60778,19.18406 -19.18406,19.18406 z m 0,-41.94175 c -12.55184,0 -22.76123,10.20939 -22.76123,22.75769 0,12.54831 10.20939,22.7577 22.76123,22.7577 12.54831,0 22.7577,-10.20939 22.7577,-22.7577 0,-12.5483 -10.20939,-22.75769 -22.7577,-22.75769"
       style="fill:#100f0d;fill-opacity:1;fill-rule:nonzero;stroke:none;stroke-width:0.0352778" />
    <path
       id="path209"
       d="m 861.67203,132.16779 7.62705,5.71852 c 0.3175,0.23989 0.69498,0.35984 1.06892,0.35984 0.46214,0 0.92075,-0.17992 1.26647,-0.52564 l 7.57414,-7.57414 -2.4765,-2.57881 -6.52991,6.52992 -6.38528,-4.79072 -2.14489,2.86103"
       style="fill:#100f0d;fill-opacity:1;fill-rule:nonzero;stroke:none;stroke-width:0.0352778" />
    <path
       id="path210"
       d="m 795.90013,107.66031 h 19.2652 v 15.45872 h -19.2652 z m 19.2652,32.6002 h 3.56658 v -13.57136 h 17.17322 l -0.0459,-3.57012 h -17.12736 v -15.45872 h 19.2652 v 10.49161 h 3.57011 v -10.49161 h 9.56028 l 0.0705,-3.56658 h -9.63083 V 90.726977 l -3.57011,-0.0741 v 13.440843 h -19.2652 V 90.695217 l -3.56658,-0.067 v 13.465533 h -19.2652 V 90.726977 l -3.56658,-0.0741 v 13.440843 h -3.85586 l -0.0706,3.56658 h 3.92641 v 15.45872 h -3.85586 l -0.0706,3.57012 h 3.92642 v 13.5008 l 3.56658,0.0564 v -13.55725 h 19.2652 v 13.5008"
       style="fill:#100f0d;fill-opacity:1;fill-rule:nonzero;stroke:none;stroke-width:0.0352778" />
    <path
       id="path211"
       d="m 864.63536,100.22376 v -9.440343 l -3.56658,-0.0705 v 9.440333 l 3.56658,0.0706"
       style="fill:#100f0d;fill-opacity:1;fill-rule:nonzero;stroke:none;stroke-width:0.0352778" />
    <path
       id="path212"
       d="m 649.10658,7.8580131 -26.65236,-26.6523601 9.99419,-9.99419 26.65237,26.6523601 z m -9.99419,3.3302299 -19.98839,-19.9883899 3.33022,-3.3302301 19.98839,19.9883901 z m -0.83256,15.82561 c -0.91722,0.91369 -2.40947,0.91722 -3.33375,0 l -3.33022,-3.33375 c -0.91723,-0.91722 -0.91723,-2.413 0,-3.33022 0.45861,-0.45862 1.06186,-0.68792 1.66864,-0.68792 0.59972,0 1.20297,0.2293 1.66511,0.68792 l 3.33022,3.33022 c 0.4445,0.4445 0.69144,1.03716 0.69144,1.66511 0,0.63147 -0.24694,1.22061 -0.69144,1.66864 z m -6.66397,6.66044 c -0.88548,0.889 -2.44123,0.889 -3.33023,0 l -3.33375,-3.33375 c -0.4445,-0.44097 -0.68791,-1.03364 -0.68791,-1.66158 0,-0.63147 0.24341,-1.22061 0.68791,-1.66511 0.46214,-0.46214 1.06539,-0.69145 1.66512,-0.69145 0.60325,0 1.2065,0.22931 1.66863,0.69145 l 3.33023,3.33022 c 0.91722,0.91722 0.91722,2.413 0,3.33022 z m -6.66398,6.66398 c -0.92075,0.91722 -2.40947,0.91722 -3.33022,0 l -3.33022,-3.33023 c -0.91722,-0.92075 -0.91722,-2.413 0,-3.33375 0.4445,-0.4445 1.03364,-0.68791 1.66511,-0.68791 0.62795,0 1.22061,0.24341 1.66511,0.68791 l 3.33022,3.33375 c 0.44803,0.4445 0.69145,1.03364 0.69145,1.66511 0,0.62795 -0.24342,1.22062 -0.69145,1.66512 z m -6.66044,6.66397 c -0.89253,0.89253 -2.43769,0.889 -3.33022,-0.004 l -3.33375,-3.32669 c -0.91723,-0.92075 -0.91723,-2.41653 0,-3.33375 0.92075,-0.91723 2.413,-0.91723 3.33375,0 l 3.33022,3.33022 c 0.91722,0.92075 0.91722,2.413 0,3.33375 z m -14.17461,-1.83092 c -0.635,0 -1.22061,-0.23989 -1.65806,-0.67733 -0.92075,-0.91722 -0.91722,-2.36361 -0.0247,-3.29847 0.0106,-0.0106 0.0212,-0.0141 0.0317,-0.0247 l 4.43441,-4.43794 2.2225,-2.21192 -0.004,-0.004 0.0106,-0.0106 -3.33375,-3.33022 -1.5875,1.59102 -5.09058,5.07295 c -0.0106,0.007 -0.0141,0.0176 -0.0212,0.0247 -0.89958,0.85725 -2.413,0.85373 -3.29142,-0.0282 -0.44803,-0.4445 -0.69144,-1.03364 -0.69144,-1.66158 0,-0.63147 0.24694,-1.22414 0.69144,-1.66864 l 6.66045,-6.66045 -3.33022,-3.33375 -6.66398,6.66398 c -0.92075,0.91369 -2.413,0.92075 -3.33375,0 -0.91722,-0.91723 -0.91722,-2.413 0,-3.33023 l 6.6675,-6.66397 -3.33375,-3.33022 -6.66397,6.66044 c -0.88547,0.889 -2.44122,0.89253 -3.33022,0 -0.91722,-0.91722 -0.91722,-2.413 0,-3.33022 l 4.99886,-4.99886 0.004,0.004 10.69975,-10.7209199 c 0.0423,0 0.0811,0.0106 0.12347,0.0106 2.34597,0 4.58611,-0.68086 6.49464,-1.95086 l 8.49489,8.4948899 c 2.667,2.667 7.32367,2.67053 9.99419,0 1.3335,-1.3335 2.07081,-3.1079699 2.07081,-4.9953299 0,-1.89089 -0.73731,-3.66536 -2.07081,-4.99886 l -8.26558,-8.26559 v 0 l 20.7645,20.7644999 -0.69144,0.69145 c -2.35656,-0.62089 -4.96712,-0.0423 -6.80862,1.80269 -1.28763,1.28411 -1.94733,2.9457 -2.032,4.62845 -1.68627,0.0882 -3.34786,0.74789 -4.63197,2.032 -1.26294,1.26294 -1.96497,2.92453 -2.03905,4.69547 -1.70392,0.0882 -3.37961,0.72672 -4.62139,1.9685 -1.28764,1.28411 -1.94734,2.9457 -2.032,4.63197 -1.68628,0.0847 -3.34786,0.74436 -4.6355,2.032 -1.83798,1.83798 -2.42006,4.44148 -1.8027,6.79098 l -0.69497,0.69497 c -0.56092,0.56091 -1.22414,0.67733 -1.67922,0.67733 z m -18.30917,-63.96567 3.33375,3.33022 -19.99192,19.9883901 -3.33022,-3.33022 z m -24.98372,18.32328007 -9.99773,-9.99420007 23.32214,-23.32214 9.9942,9.9942 z m 59.13261,5.83142003 c 0.4445,0.4445 0.69145,1.03364 0.69145,1.66511 0,0.62794 -0.24695,1.21708 -0.69145,1.66511 -0.89253,0.89253 -2.43769,0.889 -3.33022,0 l -9.99772,-9.9942 c -0.88195,-0.88547 -2.44828,-0.88194 -3.33023,0 -2.667,2.67053 -7.32719,2.667 -9.99419,0 l -3.33022,3.33023 c 0.86077,0.8643 1.85913,1.524 2.91041,2.07433 L 580.81233,16.183573 572.48324,7.8580131 593.44883,-13.107567 h 8.04333 z m 44.13956,-9.16517 -29.98259,-29.9825901 c -0.88194,-0.88194 -2.44827,-0.88194 -3.33022,0 l -13.32442,13.32795 c -0.92075,0.92075 -0.92075,2.40947 0,3.33022 l 1.66512,1.66511 -4.49792,4.49792 -3.61245,0.71967 -6.88269,-6.8827 c -0.44097,-0.44097 -1.0407,-0.68791 -1.66511,-0.68791 h -9.017 l -4.31095,-4.31095 c 0.92075,-0.91722 0.92075,-2.40947 0,-3.33022 l -13.32089,-13.32442 c -0.4445,-0.44097 -1.04069,-0.69144 -1.66864,-0.69144 -0.62441,0 -1.22061,0.25047 -1.66511,0.69144 l -26.65236,26.65236 c -0.44097,0.44098 -0.69144,1.0407 -0.69144,1.66511 0,0.6244201 0.25047,1.2241401 0.69144,1.6651201 l 13.32794,13.32441 c 0.44098,0.4445 1.03717,0.69145 1.66512,0.69145 0.62441,0 1.22414,-0.24695 1.66511,-0.69145 l 15.29997,15.2999799 c -1.24531,2.62466 -0.81139,5.85258 1.3582,8.02216 1.2453,1.24531 2.88219,1.94381 4.63197,2.032 0.0882,1.68628 0.74789,3.34434 2.02847,4.62845 1.28411,1.28411 2.94569,1.9438 4.63197,2.032 0.0882,1.74978 0.7867,3.38667 2.032,4.63197 1.24531,1.24531 2.8822,1.94381 4.63198,2.03553 0.0882,1.68275 0.74788,3.34433 2.02494,4.62139 1.32292,1.32644 3.09739,2.05669 4.98828,2.05669 1.90147,0 3.67947,-0.73025 5.00591,-2.05669 l 2.50473,2.50472 c 1.3335,1.3335 3.10797,2.07081 4.99886,2.07081 1.88383,0 3.66183,-0.73731 4.99533,-2.07081 1.28411,-1.28411 1.94381,-2.94569 2.032,-4.63197 1.68628,-0.0882 3.34434,-0.74789 4.63197,-2.032 1.24531,-1.24531 1.94381,-2.8822 2.032,-4.62845 1.74978,-0.0917 3.38314,-0.78669 4.62845,-2.032 1.28411,-1.28411 1.94381,-2.94569 2.032,-4.63197 1.68628,-0.0882 3.34786,-0.74789 4.63197,-2.032 1.3335,-1.3335 2.07081,-3.10797 2.07081,-4.99886 0,-1.88736 -0.73731,-3.66183 -2.07081,-4.99533 l -2.49061,-2.49414 1.66511,-1.66511 c 0.0106,-0.0106 0.0141,-0.0247 0.0212,-0.0353 l 4.96711,-4.96711 1.66864,1.66511 c 0.45861,0.45861 1.06186,0.69144 1.66511,0.69144 0.60325,0 1.20297,-0.23283 1.66511,-0.69144 l 13.32439,-13.32439993 c 0.4445,-0.44097 0.69144,-1.04068997 0.69144,-1.66510997 0,-0.62795 -0.24694,-1.22414 -0.69144,-1.66864"
       style="fill:#100f0d;fill-opacity:1;fill-rule:nonzero;stroke:none;stroke-width:0.0352778" />
    <path
       id="path213"
       d="m 604.82238,-83.088097 19.31106,15.80091 H 585.5078 Z m 16.48884,41.71244 h -9.4227 v -11.77925 c 0,-1.29822 -1.0548,-2.35302 -2.35655,-2.35302 h -9.4227 c -1.30175,0 -2.35303,1.0548 -2.35303,2.35302 v 11.77925 h -9.42269 v -21.20194 h 32.97767 z m -18.84539,0 v -9.42269 h 4.71311 v 9.42269 z m -23.55498,-21.20194 h 4.70959 v 23.5585 c 0,1.29822 1.0548,2.35656 2.35655,2.35656 h 37.69078 c 1.30175,0 2.35656,-1.05834 2.35656,-2.35656 v -23.5585 h 4.70958 c 0.99484,0 1.88384,-0.62442 2.21898,-1.56281 0.33513,-0.93839 0.0423,-1.98261 -0.72673,-2.61408 l -25.91505,-21.20195 c -0.86431,-0.70908 -2.11667,-0.70908 -2.98098,0 l -25.91153,21.20195 c -0.76905,0.63147 -1.06186,1.67569 -0.72672,2.61408 0.33514,0.93839 1.22061,1.56281 2.21897,1.56281"
       style="fill:#100f0d;fill-opacity:1;fill-rule:nonzero;stroke:none;stroke-width:0.0352778" />
    <path
       id="path214"
       d="m 560.06546,-64.930627 h 4.70959 v -4.71311 h 4.71311 v -4.70958 h -4.71311 v -4.71312 h -4.70959 v 4.71312 h -4.71311 v 4.70958 h 4.71311 v 4.71311"
       style="fill:#100f0d;fill-opacity:1;fill-rule:nonzero;stroke:none;stroke-width:0.0352778" />
    <path
       id="path215"
       d="m 644.86619,-46.085237 v 4.70958 h 4.71311 v 4.71312 h 4.70959 v -4.71312 h 4.71311 v -4.70958 h -4.71311 v -4.71311 h -4.70959 v 4.71311 h -4.71311"
       style="fill:#100f0d;fill-opacity:1;fill-rule:nonzero;stroke:none;stroke-width:0.0352778" />
    <path
       id="path216"
       d="m 635.44702,-72.000297 h 4.70959 v -4.70958 h 4.70958 v -4.71311 h -4.70958 v -4.70959 h -4.70959 v 4.70959 h -4.71311 v 4.71311 h 4.71311 v 4.70958"
       style="fill:#100f0d;fill-opacity:1;fill-rule:nonzero;stroke:none;stroke-width:0.0352778" />
    <path
       id="path217"
       d="m 548.28621,-36.662537 v -4.71312 h 4.70959 v -4.70958 h -4.70959 v -4.71311 h -4.71311 v 4.71311 h -4.70958 v 4.70958 h 4.70958 v 4.71312 h 4.71311"
       style="fill:#100f0d;fill-opacity:1;fill-rule:nonzero;stroke:none;stroke-width:0.0352778" />
    <path
       id="path218"
       d="m -180.548,95.030581 h -8.19502 v -8.1915 h 8.19502 z m 2.04612,-12.28725 h -12.28725 c -1.13242,0 -2.04964,0.91722 -2.04964,2.04964 v 12.28725 c 0,1.13241 0.91722,2.04964 2.04964,2.04964 h 12.28725 c 1.13241,0 2.04963,-0.91723 2.04963,-2.04964 v -12.28725 c 0,-1.13242 -0.91722,-2.04964 -2.04963,-2.04964"
       style="fill:#100f0d;fill-opacity:1;fill-rule:nonzero;stroke:none;stroke-width:0.0352778" />
    <path
       id="path219"
       d="m -158.01961,72.502191 v -2.04964 h 8.19503 v 2.04964 z m -12.28725,-2.04964 h 8.1915 v 2.04964 h -8.1915 z m 8.1915,-6.14539 v 2.04964 h -8.1915 v -2.04964 z m 12.29078,2.04964 h -8.19503 v -2.04964 h 8.19503 z m 0,-6.14539 h -20.48228 c -2.25777,0 -4.09927,1.83797 -4.09927,4.09575 v 8.19503 c 0,2.25778 1.8415,4.09575 4.09927,4.09575 h 20.48228 c 2.25778,0 4.09575,-1.83797 4.09575,-4.09575 v -8.19503 c 0,-2.25778 -1.83797,-4.09575 -4.09575,-4.09575"
       style="fill:#100f0d;fill-opacity:1;fill-rule:nonzero;stroke:none;stroke-width:0.0352778" />
    <path
       id="path220"
       d="m -133.0888,111.41711 c 0.83961,-2.38478 3.09739,-4.09575 5.66914,-4.09928 0.067,0.0106 0.27517,0.0282 0.34572,0.0317 0.64206,0.0282 1.27,-0.25753 1.6757,-0.76553 0.40569,-0.50447 0.55033,-1.17475 0.38453,-1.80269 -0.15875,-0.59973 -0.23284,-1.09362 -0.23284,-1.55575 0,-3.390199 2.7552,-6.145389 6.14539,-6.145389 3.38667,0 6.14186,2.75519 6.14186,6.145389 0,1.13241 0.91723,2.04611 2.04964,2.04611 3.81,0 7.02381,2.61761 7.93398,6.14539 z m -37.21806,0 V 82.743331 h 20.48228 v 28.673779 z m -46.55961,0 c 0.98778,-1.70745 3.26319,-2.63525 5.33753,-1.60867 0.78669,0.38453 1.72861,0.22931 2.35303,-0.39158 0.62089,-0.61736 0.77611,-1.56281 0.38805,-2.35303 -0.28928,-0.58914 -0.43744,-1.19239 -0.43744,-1.79211 0,-2.25778 1.83797,-4.09575 4.09928,-4.09575 1.72508,0 3.27025,1.11125 3.84527,2.75872 0.29634,0.85019 1.04423,1.41111 2.01436,1.3723 0.13053,-0.004 0.254,-0.0176 0.28223,-0.0353 3.81,0 7.0238,2.61761 7.93397,6.14539 z m 24.92022,-61.489169 c 15.09889,-0.4692 27.26973,-12.64003 27.73892,-27.73892 l 2.69875,-2.70228 c 0.79728,-0.79375 2.08492,-0.79375 2.8822,0 l 30.48353,30.48353 h -63.84573 z m -13.60664,7.81402 c -0.89605,0.89606 -2.35302,0.89606 -3.24908,0 -0.55386,-0.55386 -0.66675,-1.19238 -0.66675,-1.6263 0,-0.43392 0.11289,-1.06892 0.66675,-1.62278 l 6.25122,-6.25122 c 1.65806,0.59972 3.38314,1.04775 5.16467,1.3335 l -0.99483,0.99483 c -0.004,0 -0.004,0.004 -0.004,0.004 z m -11.86391,-36.44547 c 0,-13.5537201 11.0243,-24.5780301 24.57803,-24.5780301 13.55372,0 24.57803,11.02431 24.57803,24.5780301 0,13.55372 -11.02431,24.57803 -24.57803,24.57803 -13.55373,0 -24.57803,-11.02431 -24.57803,-24.57803 z m 55.90822,-14.0970001 c 0.79728,-0.79375 2.08492,-0.79375 2.8822,0 l 47.29339,47.2933901 c 0.89605,0.89606 0.89605,2.35303 0,3.24908 -0.55386,0.55387 -1.18886,0.67028 -1.62631,0.67028 -0.43391,0 -1.06891,-0.11641 -1.62277,-0.67028 l -41.14801,-41.15153 c -2.39183,-2.39183 -6.27944,-2.39183 -8.6748,0 l -0.15523,0.15875 c -0.28575,-1.78505 -0.73377,-3.50661 -1.3335,-5.16466 z m 23.97125,5.9055001 h 12.29078 v 21.68172 l -12.29078,-12.29078 z m -4.09575,-8.1950301 h 20.48228 l 0.004,4.09575 h -20.48581 z m 10.24114,81.9291201 v 8.1915 h -8.1915 v -8.1915 z m 4.08164,10.3258 c 0,-0.0282 0.0141,-0.0529 0.0141,-0.0847 v -12.28725 c 0,-1.13242 -0.91369,-2.04964 -2.04611,-2.04964 h -12.29078 c -1.13241,0 -2.04964,0.91722 -2.04964,2.04964 v 12.28725 c 0,1.13241 0.91723,2.04964 2.04964,2.04964 h 12.29078 c 0.39159,0 0.73378,-0.14112 1.04422,-0.33162 -0.64911,1.347619 -1.04422,2.836339 -1.04422,4.427369 0,0.067 0,0.13758 0,0.20461 -4.00403,0.81491 -7.1508,3.98286 -7.96925,7.98689 h -8.41728 V 80.693651 c 0,-1.12889 -0.91722,-2.04611 -2.04964,-2.04611 h -24.57802 c -1.13242,0 -2.04964,0.91722 -2.04964,2.04611 v 30.723419 h -12.4707 c -0.74789,-4.43089 -3.86644,-8.05745 -8.00806,-9.52853 V 54.069511 h 69.63834 v 41.01394 c -0.78316,0.5962 -1.48166,1.29117 -2.06375,2.08139 z m 18.27036,4.155729 c -0.89605,-4.741339 -5.06588,-8.336139 -10.06122,-8.336139 -0.70203,0 -1.38641,0.0705 -2.04964,0.20814 v -36.22676 l 3.67242,3.67242 c 1.2065,1.20297 2.81164,1.86972 4.51908,1.86972 1.71098,0 3.31611,-0.66675 4.52261,-1.86972 2.49062,-2.49414 2.49062,-6.55108 0,-9.0417 l -12.71411,-12.71411 v -25.77747 c 2.25778,0 4.09575,-1.83797 4.09575,-4.0992801 v -4.09575 c 0,-2.25778 -1.83797,-4.09575002 -4.09575,-4.09575002 h -20.48228 c -2.25777,0 -4.09575,1.83797002 -4.09575,4.09575002 v 4.09575 c 0,2.2613101 1.83798,4.0992801 4.09575,4.0992801 v 5.29519 l -14.097,-14.0970001 c -2.39183,-2.39183 -6.27944,-2.39183 -8.6748,0 l -3.26673,3.26673 c -4.87186,-8.89706 -14.3263,-14.9472 -25.16716,-14.9472 -15.8115,0 -28.67378,12.86228 -28.67378,28.6737801 0,10.84086 6.05014,20.29531 14.94719,25.16717 l -5.12939,5.13291 c -1.2065,1.2065 -1.87325,2.81164 -1.87325,4.51909 0,1.71097 0.66675,3.31611 1.87325,4.52261 1.24531,1.24531 2.8822,1.86619 4.51909,1.86619 1.63689,0 3.27377,-0.62088 4.51908,-1.86619 l 3.67242,-3.67242 v 42.94717 c -1.52048,-1.7533 -3.73945,-2.8328 -6.14186,-2.8328 -4.51909,0 -8.19503,3.675939 -8.19503,8.191499 -4.51909,0 -8.1915,3.67594 -8.1915,8.19503 0,1.13241 0.91369,2.04963 2.04611,2.04963 h 118.79792 c 1.132418,0 2.049638,-0.91722 2.049638,-2.04963 0,-6.14187 -4.526138,-11.24303 -10.421058,-12.14614"
       style="fill:#100f0d;fill-opacity:1;fill-rule:nonzero;stroke:none;stroke-width:0.0352778" />
    <path
       id="path221"
       d="m -190.78913,39.729131 v -4.09575 c 3.38666,0 6.14538,-2.7552 6.14538,-6.14539 v -4.09575 c 0,-3.38667 -2.75872,-6.14539 -6.14538,-6.14539 h -4.09576 c -1.13241,0 -2.04963,-0.91722 -2.04963,-2.04611 v -4.09575 c 0,-1.12889 0.91722,-2.04964 2.04963,-2.04964 h 4.09576 c 1.12888,0 2.04611,0.92075 2.04611,2.04964 v 2.04611 h 4.09927 v -2.04611 c 0,-3.3902001 -2.75872,-6.1453901 -6.14538,-6.1453901 v -4.09575 h -4.09576 v 4.09575 c -3.39019,0 -6.14538,2.75519 -6.14538,6.1453901 v 4.09575 c 0,3.38667 2.75519,6.14539 6.14538,6.14539 h 4.09576 c 1.12888,0 2.04611,0.91722 2.04611,2.04611 v 4.09575 c 0,1.12889 -0.91723,2.04964 -2.04611,2.04964 h -4.09576 c -1.13241,0 -2.04963,-0.92075 -2.04963,-2.04964 v -2.04611 h -4.09575 v 2.04611 c 0,3.39019 2.75519,6.14539 6.14538,6.14539 v 4.09575 h 4.09576"
       style="fill:#100f0d;fill-opacity:1;fill-rule:nonzero;stroke:none;stroke-width:0.0352778" />
    <path
       id="path222"
       d="m -164.16147,88.888721 h -4.09927 v 4.09575 h 2.04963 v 4.09575 h -2.04963 v 4.095749 h 4.09927 c 1.12889,0 2.04611,-0.91723 2.04611,-2.046109 v -8.19503 c 0,-1.12889 -0.91722,-2.04611 -2.04611,-2.04611"
       style="fill:#100f0d;fill-opacity:1;fill-rule:nonzero;stroke:none;stroke-width:0.0352778" />
    <path
       id="path236"
       d="m -438.27256,-9.6289064 c -3.52778,0 -6.39587,2.86808 -6.39587,6.39586 0,3.52778 2.86809,6.39586 6.39587,6.39586 z m 1.32291,18.08339 h -1.32291 c -6.44525,0 -11.69106,-5.24228 -11.69106,-11.68753 0,-6.44525 5.24581,-11.6875296 11.69106,-11.6875296 h 88.65658 c 3.52425,0 6.39587,-2.87161 6.39587,-6.39586 0,-3.52778 -2.87162,-6.39586 -6.39587,-6.39586 l -1.17827,0.0141 c -1.03011,0.0176 -1.98261,-0.37394 -2.71639,-1.10067 -0.74789,-0.74083 -1.17828,-1.78152 -1.17475,-2.8575 l 0.10583,-67.90267 c 0.004,-2.187224 1.71097,-3.965224 3.80647,-3.965224 h 1.15711 c 6.44525,0 11.68753,5.242284 11.68753,11.687534 h -5.29166 c 0,-3.41489 -2.69523,-6.21595 -6.07131,-6.38528 l -0.0988,65.21803 c 6.36059,0.13759 11.46175,5.32695 11.46175,11.68753 0,6.44525 -5.24228,11.6875296 -11.68753,11.6875296 h -83.36492 v 14.11464 c 0,2.19075 -1.78153,3.96875 -3.96875,3.96875"
       style="fill:#100f0d;fill-opacity:1;fill-rule:nonzero;stroke:none;stroke-width:0.0352778" />
    <path
       id="path237"
       d="m -444.66843,-73.753326 h -5.29519 c 0,-6.44525 5.24581,-11.68753 11.69106,-11.68753 h 84.7972 v 5.29167 h -84.7972 c -3.52778,0 -6.39587,2.87161 -6.39587,6.39586"
       style="fill:#100f0d;fill-opacity:1;fill-rule:nonzero;stroke:none;stroke-width:0.0352778" />
    <path
       id="path238"
       d="m -337.92845,-21.316436 h -5.29166 v -70.52028 h 5.29166 v 70.52028"
       style="fill:#100f0d;fill-opacity:1;fill-rule:nonzero;stroke:none;stroke-width:0.0352778" />
    <path
       id="path239"
       d="m -444.66843,-3.2295164 -5.29519,-0.0106 0.14817,-72.1360096 5.29166,0.0141 -0.14464,72.1324796"
       style="fill:#100f0d;fill-opacity:1;fill-rule:nonzero;stroke:none;stroke-width:0.0352778" />
    <path
       id="path240"
       d="m -421.95306,18.533344 h 78.73295 V 5.2689036 h -78.73295 z m 84.02461,5.2952 h -89.31628 V -0.0227664 h 89.31628 V 23.828544"
       style="fill:#100f0d;fill-opacity:1;fill-rule:nonzero;stroke:none;stroke-width:0.0352778" />
    <path
       id="path241"
       d="m -413.24298,9.8126736 h -5.29167 v -7.18961 h 5.29167 v 7.18961"
       style="fill:#100f0d;fill-opacity:1;fill-rule:nonzero;stroke:none;stroke-width:0.0352778" />
    <path
       id="path242"
       d="m -401.99642,14.772734 h -5.29167 V 2.6230636 h 5.29167 V 14.772734"
       style="fill:#100f0d;fill-opacity:1;fill-rule:nonzero;stroke:none;stroke-width:0.0352778" />
    <path
       id="path243"
       d="m -390.74634,9.8126736 h -5.29519 v -7.18961 h 5.29519 v 7.18961"
       style="fill:#100f0d;fill-opacity:1;fill-rule:nonzero;stroke:none;stroke-width:0.0352778" />
    <path
       id="path244"
       d="m -379.49978,9.8126736 h -5.29167 v -7.18961 h 5.29167 v 7.18961"
       style="fill:#100f0d;fill-opacity:1;fill-rule:nonzero;stroke:none;stroke-width:0.0352778" />
    <path
       id="path245"
       d="m -368.25323,14.772734 h -5.29166 V 2.6230636 h 5.29166 V 14.772734"
       style="fill:#100f0d;fill-opacity:1;fill-rule:nonzero;stroke:none;stroke-width:0.0352778" />
    <path
       id="path246"
       d="m -357.00667,9.8126736 h -5.29167 v -7.18961 h 5.29167 v 7.18961"
       style="fill:#100f0d;fill-opacity:1;fill-rule:nonzero;stroke:none;stroke-width:0.0352778" />
    <path
       id="path247"
       d="m -345.75659,9.8126736 h -5.29519 v -7.18961 h 5.29519 v 7.18961"
       style="fill:#100f0d;fill-opacity:1;fill-rule:nonzero;stroke:none;stroke-width:0.0352778" />
    <path
       id="path248"
       d="m -417.76206,-64.288296 h -5.2952 v -7.50006 h 13.67367 v 5.2952 h -8.37847 v 2.20486"
       style="fill:#100f0d;fill-opacity:1;fill-rule:nonzero;stroke:none;stroke-width:0.0352778" />
    <path
       id="path249"
       d="m -368.25323,-23.270826 h -54.80403 v -28.448 h 5.2952 v 23.15633 h 44.21717 v -24.7015 h -13.56431 v -13.22916 h -10.80558 v -5.2952 h 16.09725 v 13.2327 h 13.5643 v 35.28483"
       style="fill:#100f0d;fill-opacity:1;fill-rule:nonzero;stroke:none;stroke-width:0.0352778" />
    <path
       id="path250"
       d="m -395.70992,-25.916656 h -5.29167 v -15.65628 h -5.73617 v -5.2952 h 21.17373 v 5.2952 h -10.14589 v 15.65628"
       style="fill:#100f0d;fill-opacity:1;fill-rule:nonzero;stroke:none;stroke-width:0.0352778" />
    <path
       id="path151"
       d="m -80.365307,756.20545 v 1.70038 h -12.544779 v -19.96722 h 12.30489 v 1.69686 h -10.251723 v 7.23195 h 9.577917 v 1.70391 h -9.577917 v 7.63412 h 10.491612"
       style="fill:#ffffff;fill-opacity:1;fill-rule:nonzero;stroke:none;stroke-width:0.0352778" />
    <path
       id="path152"
       d="m -64.560862,756.20545 v 1.70038 h -11.4935 v -19.96722 h 2.049639 v 18.26684 h 9.443861"
       style="fill:#ffffff;fill-opacity:1;fill-rule:nonzero;stroke:none;stroke-width:0.0352778" />
    <path
       id="path153"
       d="m -43.581166,756.20545 v 1.70038 h -11.493501 v -19.96722 h 2.049639 v 18.26684 h 9.443862"
       style="fill:#ffffff;fill-opacity:1;fill-rule:nonzero;stroke:none;stroke-width:0.0352778" />
    <path
       id="path154"
       d="m -28.856221,750.97022 -4.533194,-10.55158 -4.557889,10.55158 z m 0.730251,1.72861 h -10.576279 l -2.240139,5.207 h -2.187222 l 8.741834,-19.96722 h 1.943805 l 8.741834,19.96722 h -2.183694 l -2.240139,-5.207"
       style="fill:#ffffff;fill-opacity:1;fill-rule:nonzero;stroke:none;stroke-width:0.0352778" />
    <path
       id="path155"
       d="m -3.4985525,747.92222 c 0,6.26181 -3.6688892,10.25173 -9.4191665,10.25173 -5.884334,0 -9.79664,-4.09928 -9.79664,-10.25173 0,-6.15597 3.884084,-10.25525 9.79664,-10.25525 2.645833,0 4.7236939,0.59267 6.6674996,2.04964 l -1.3476112,1.32292 c -1.4322777,-1.16064 -3.1891114,-1.67217 -5.3198884,-1.67217 -4.586112,0 -7.63764,3.42547 -7.63764,8.55486 0,5.12586 3.051528,8.55486 7.665862,8.55486 4.2615557,0 7.0202776,-2.97038 7.2319443,-7.45066 h -6.3429443 v -1.72509 h 8.47725 c 0,0.2152 0.024695,0.4057 0.024695,0.62089"
       style="fill:#ffffff;fill-opacity:1;fill-rule:nonzero;stroke:none;stroke-width:0.0352778" />
    <path
       id="path156"
       d="m 16.620366,747.92222 c 0,-5.12939 -3.157362,-8.55486 -7.8246122,-8.55486 -4.7236948,0 -7.85283377,3.42547 -7.85283377,8.55486 0,5.12586 3.12913897,8.55486 7.85283377,8.55486 4.6672502,0 7.8246122,-3.429 7.8246122,-8.55486 z m -17.8364462,0 c 0,-6.15597 4.0216669,-10.25525 10.011834,-10.25525 5.9619452,0 9.9589172,4.09928 9.9589172,10.25525 0,6.15245 -3.996972,10.25173 -9.9589172,10.25173 -5.9901671,0 -10.011834,-4.09928 -10.011834,-10.25173"
       style="fill:#ffffff;fill-opacity:1;fill-rule:nonzero;stroke:none;stroke-width:0.0352778" />
    <path
       id="path157"
       d="m 44.341645,747.97514 c 0,-5.02003 -3.076222,-8.33967 -7.718778,-8.33967 h -4.557889 v 16.56998 h 4.557889 c 4.642556,0 7.718778,-3.31964 7.718778,-8.23031 z m 2.130778,0 c 0,5.93725 -3.859389,9.93069 -9.687278,9.93069 h -6.769806 v -19.96722 h 6.769806 c 5.827889,0 9.687278,3.99345 9.687278,10.03653"
       style="fill:#ffffff;fill-opacity:1;fill-rule:nonzero;stroke:none;stroke-width:0.0352778" />
    <path
       id="path158"
       d="m 63.162341,756.20545 v 1.70038 H 50.617562 v -19.96722 h 12.30489 v 1.69686 H 52.667201 v 7.23195 h 9.581445 v 1.70391 h -9.581445 v 7.63412 h 10.49514"
       style="fill:#ffffff;fill-opacity:1;fill-rule:nonzero;stroke:none;stroke-width:0.0352778" />
    <path
       id="path159"
       d="m -197.95674,836.34598 c -5.64091,0 -10.922,-0.9137 -15.83972,-2.74109 -4.91772,-1.83091 -9.20397,-4.48027 -12.85522,-7.95866 -3.5807,-3.40431 -6.40292,-7.61295 -8.46314,-12.62945 -2.06022,-5.01297 -3.09033,-10.53041 -3.09033,-16.53822 0,-5.97606 1.03716,-11.50761 3.11855,-16.59467 2.07786,-5.08705 4.99886,-9.49678 8.75947,-13.22564 3.69006,-3.65478 8.11742,-6.49111 13.28914,-8.50194 5.17173,-2.01084 10.70681,-3.01625 16.5982,-3.01625 4.26861,0 8.15622,0.52564 11.66283,1.57339 3.51014,1.05127 6.47348,2.22602 8.89706,3.52777 l 3.36197,-2.9845 h 4.72017 l 0.49036,28.09876 h -4.77661 c -2.70933,-8.59014 -5.95842,-14.89428 -9.75078,-18.91595 -3.79236,-4.0252 -8.41728,-6.03603 -13.8677,-6.03603 -6.79097,0 -11.95563,2.99861 -15.49752,8.99231 -3.53837,5.99369 -5.30931,14.40744 -5.30931,25.23772 0,6.11717 0.60678,11.34534 1.81681,15.67392 1.21002,4.32858 2.78694,7.81403 4.74133,10.45986 2.0955,2.75167 4.56847,4.77308 7.42244,6.0572 2.85398,1.28411 6.01487,1.92616 9.48267,1.92616 5.05531,0 9.56028,-1.3723 13.51845,-4.12044 3.95464,-2.74814 7.5565,-6.90739 10.80911,-12.47775 l 4.66372,2.82222 c -1.55575,3.18205 -3.32669,6.02897 -5.31636,8.54428 -1.98614,2.51178 -4.28272,4.67078 -6.88975,6.48053 -2.85397,1.98966 -6.01133,3.54541 -9.46503,4.66372 -3.45369,1.12183 -7.52828,1.68275 -12.23081,1.68275"
       style="fill:#ffffff;fill-opacity:1;fill-rule:nonzero;stroke:none;stroke-width:0.0352778" />
    <path
       id="path160"
       d="m -126.81556,810.44503 -8.509,-21.25133 -8.38553,21.25133 z m 30.899807,23.78428 h -32.032227 v -3.23144 c 1.48872,-0.10936 3.2385,-0.37748 5.25286,-0.80786 2.01083,-0.42687 3.01978,-0.95956 3.01978,-1.59456 0,-0.22225 -0.0212,-0.46919 -0.0635,-0.74436 -0.0423,-0.27517 -0.15875,-0.65264 -0.35278,-1.12183 l -5.0165,-12.18142 h -20.29883 c -0.46567,1.13241 -0.98073,2.45886 -1.54517,3.97933 -0.56445,1.52047 -1.05128,2.87161 -1.4605,4.06047 -0.52211,1.54517 -0.83256,2.66348 -0.92781,3.35492 -0.0988,0.69145 -0.14464,1.17475 -0.14464,1.44992 0,0.88547 0.66675,1.63689 2.00378,2.25778 1.34056,0.62441 3.57011,1.07244 6.68867,1.34761 v 3.23144 h -24.11589 v -3.23144 c 0.91017,-0.0529 1.94028,-0.19756 3.0868,-0.43392 1.14653,-0.23283 2.04964,-0.56092 2.71287,-0.97367 1.13241,-0.66322 2.0955,-1.47814 2.88219,-2.44475 0.7867,-0.96661 1.44286,-2.11314 1.9685,-3.43958 3.20322,-7.76464 6.4135,-15.53986 9.63083,-23.3292 3.22087,-7.78933 6.77687,-16.383 10.67153,-25.77394 h 8.28675 c 5.41514,13.31383 9.65553,23.84072 12.72117,31.57361 3.06564,7.73642 5.6762,14.14639 7.83167,19.22639 0.35983,0.82903 0.81492,1.58397 1.36878,2.25778 0.55033,0.68086 1.34055,1.32292 2.36008,1.92969 0.77258,0.44098 1.672174,0.77259 2.695224,0.99484 1.023058,0.22225 1.947336,0.35983 2.776363,0.41275 v 3.23144"
       style="fill:#ffffff;fill-opacity:1;fill-rule:nonzero;stroke:none;stroke-width:0.0352778" />
    <path
       id="path161"
       d="m -56.425806,792.25228 c 0,-4.41678 -0.892527,-7.69761 -2.674055,-9.83897 -1.781528,-2.13784 -4.953001,-3.21028 -9.51089,-3.21028 h -3.439583 v 25.81628 h 1.742722 c 4.529667,0 7.976306,-1.04422 10.33639,-3.13267 2.363611,-2.08491 3.545416,-5.29519 3.545416,-9.63436 z m 16.157224,-2.10961 c 0,3.31258 -0.680861,6.16656 -2.049639,8.55839 -1.36525,2.3883 -3.252612,4.32506 -5.655028,5.81731 -2.487084,1.54869 -5.326945,2.67052 -8.516057,3.35844 -3.189111,0.68792 -6.776861,1.03717 -10.752667,1.03717 h -4.808361 v 16.53116 c 0,0.99484 0.186972,1.85914 0.560916,2.58939 0.373945,0.73378 1.083028,1.31939 2.134306,1.76389 0.550333,0.21872 1.449917,0.45509 2.691695,0.70203 1.245305,0.25047 2.293055,0.41628 3.150305,0.49742 v 3.23144 h -31.86289 v -3.23144 c 0.800805,-0.0811 1.862666,-0.19756 3.189111,-0.35278 1.326444,-0.14817 2.250722,-0.33514 2.776361,-0.55739 1.075972,-0.44097 1.788584,-0.98072 2.134306,-1.61572 0.345722,-0.635 0.518583,-1.52047 0.518583,-2.65289 v -41.47961 c 0,-0.96662 -0.165805,-1.79917 -0.497417,-2.50826 -0.331611,-0.70202 -1.051277,-1.29116 -2.155472,-1.75683 -0.772583,-0.33161 -1.802694,-0.62794 -3.086806,-0.89253 -1.284111,-0.26105 -2.247194,-0.43391 -2.878666,-0.51858 v -3.23144 h 32.444974 c 7.595306,0 13.271501,1.21002 17.028584,3.62655 3.757084,2.41653 5.633862,6.11011 5.633862,11.08428"
       style="fill:#ffffff;fill-opacity:1;fill-rule:nonzero;stroke:none;stroke-width:0.0352778" />
    <path
       id="path162"
       d="m 16.257005,790.43195 h -3.150306 c -0.800806,-2.22956 -2.180167,-4.48734 -4.1416119,-6.76981 -1.9614445,-2.286 -3.908778,-3.63361 -5.8455281,-4.04636 -0.8290278,-0.19403 -1.9826112,-0.31044 -3.45722236,-0.35278 -1.47813904,-0.0388 -2.70227804,-0.06 -3.66888924,-0.06 h -8.5372224 v 22.66245 h 6.0501389 c 1.5204724,0 2.9033613,-0.17639 4.1451392,-0.53623 1.2453056,-0.35983 2.37772244,-1.04775 3.3972502,-2.0708 0.6385279,-0.635 1.2805835,-1.75684 1.9261668,-3.35845 0.6491111,-1.60161 1.0689167,-2.99508 1.2664723,-4.18394 H 7.3916981 V 816.2482 H 4.2413924 c -0.1658056,-1.16064 -0.5856112,-2.61761 -1.2664723,-4.37445 -0.6773333,-1.74978 -1.3193889,-2.9598 -1.9261668,-3.62303 -0.91369446,-0.99483 -1.98613896,-1.67922 -3.2314446,-2.05316 -1.2417779,-0.37042 -2.6811113,-0.55739 -4.3109448,-0.55739 h -6.0501389 v 16.94744 c 0,1.76742 0.127,3.16795 0.391583,4.20512 0.261056,1.03716 0.754945,1.82738 1.474612,2.38125 0.6879157,0.52563 1.6368887,0.87136 2.8363327,1.03716 1.2029723,0.16581 2.8398613,0.25047 4.9141948,0.25047 0.9666112,0 2.12725014,-0.0176 3.47838913,-0.0423 1.35466677,-0.0282 2.54352787,-0.10936 3.56305577,-0.25047 1.1606389,-0.13758 2.2471946,-0.34572 3.2561391,-0.62089 1.0054167,-0.27517 1.7603612,-0.67733 2.2577778,-1.20297 1.3229167,-1.35114 2.8151677,-3.41842 4.4732227,-6.19125 1.658056,-2.77989 2.748139,-4.85775 3.273778,-6.23711 h 3.026834 l -1.118306,18.31269 h -55.156809 v -3.23144 c 0.769056,-0.0529 1.823861,-0.16581 3.150306,-0.33161 1.322917,-0.16581 2.261306,-0.35631 2.815167,-0.57856 1.051277,-0.44097 1.753305,-1.00189 2.113139,-1.67922 0.359833,-0.67734 0.53975,-1.53811 0.53975,-2.58939 v -41.47961 c 0,-0.99484 -0.155223,-1.81328 -0.458611,-2.46239 -0.303389,-0.65264 -1.033639,-1.23825 -2.194278,-1.76389 -0.719667,-0.33161 -1.725084,-0.635 -3.026834,-0.91017 -1.298222,-0.27517 -2.275417,-0.45508 -2.938639,-0.53975 v -3.23144 h 52.129976 v 15.00011"
       style="fill:#ffffff;fill-opacity:1;fill-rule:nonzero;stroke:none;stroke-width:0.0352778" />
    <path
       id="path163"
       d="m 57.694285,834.22931 h -32.61078 v -3.23144 c 0.747889,-0.0529 1.845028,-0.13759 3.294945,-0.24695 1.449917,-0.10936 2.451805,-0.27516 3.002139,-0.49741 1.023055,-0.41628 1.721556,-0.95956 2.091972,-1.63689 0.373945,-0.67734 0.560917,-1.54164 0.560917,-2.58939 v -41.68775 c 0,-0.93839 -0.179917,-1.76742 -0.53975,-2.48356 -0.356306,-0.71967 -1.061861,-1.30175 -2.113139,-1.74272 -0.659695,-0.27517 -1.640417,-0.55739 -2.938639,-0.8502 -1.298223,-0.28928 -2.416528,-0.48683 -3.358445,-0.59972 v -3.23144 h 32.61078 v 3.23144 c -0.829028,0.0847 -1.862667,0.20108 -3.107972,0.35278 -1.241778,0.15169 -2.293056,0.36689 -3.150306,0.64205 -1.075973,0.35984 -1.795639,0.91723 -2.151945,1.67923 -0.359833,0.75847 -0.53975,1.62277 -0.53975,2.58939 v 41.64189 c 0,0.99483 0.186972,1.84502 0.560917,2.55058 0.373944,0.70556 1.083028,1.27706 2.130778,1.71803 0.582083,0.25047 1.541639,0.49389 2.882194,0.72672 1.337028,0.23636 2.465917,0.381 3.376084,0.43392 v 3.23144"
       style="fill:#ffffff;fill-opacity:1;fill-rule:nonzero;stroke:none;stroke-width:0.0352778" />
    <path
       id="path164"
       d="m 102.44414,790.51661 c 0,-3.92288 -1.09713,-6.79097 -3.291408,-8.60072 -2.197806,-1.80622 -5.326945,-2.71286 -9.387417,-2.71286 h -3.273778 v 24.61331 h 3.150306 c 4.060472,0 7.210778,-1.06539 9.447389,-3.18911 2.240138,-2.13078 3.354908,-5.49981 3.354908,-10.11062 z m 28.22223,43.7127 h -22.5672 c -3.89114,-5.96547 -7.12611,-10.71386 -9.708438,-14.25222 -2.582334,-3.53484 -5.789084,-7.62353 -9.627306,-12.26609 h -2.271889 v 17.85762 c 0,0.99483 0.186972,1.8415 0.560916,2.52941 0.373945,0.68792 1.086556,1.27 2.134306,1.7392 0.522111,0.22225 1.347611,0.44803 2.465917,0.68439 1.114778,0.23636 2.077861,0.39511 2.878667,0.47625 v 3.23144 H 63.162341 v -3.23144 c 0.804333,-0.0811 1.859139,-0.19756 3.171472,-0.35278 1.312334,-0.14817 2.243667,-0.33514 2.797528,-0.55739 1.04775,-0.44097 1.753306,-1.00189 2.109611,-1.67922 0.359834,-0.67734 0.539751,-1.53811 0.539751,-2.58939 v -41.47961 c 0,-0.99484 -0.148167,-1.82387 -0.455084,-2.48356 -0.303389,-0.66322 -1.033639,-1.24531 -2.194278,-1.74272 -0.885472,-0.35631 -1.926167,-0.66323 -3.129139,-0.91017 -1.202972,-0.25047 -2.148417,-0.42686 -2.839861,-0.53975 v -3.23144 h 32.984724 c 7.373055,0 12.975165,1.15358 16.802805,3.46075 3.82764,2.30716 5.73969,5.79261 5.73969,10.46339 0,4.11338 -1.1818,7.42244 -3.54541,9.92363 -2.36009,2.5012 -5.95489,4.45559 -10.795,5.86317 1.8803,2.43064 4.07105,5.24581 6.57225,8.45256 2.49766,3.20675 5.10116,6.477 7.8105,9.82133 0.85372,1.07597 2.02141,2.39536 3.49955,3.95464 1.47814,1.56281 2.78342,2.52236 3.91584,2.8822 0.635,0.1905 1.44286,0.3563 2.42358,0.49741 0.98425,0.13759 1.67922,0.21872 2.0955,0.24695 v 3.23144"
       style="fill:#ffffff;fill-opacity:1;fill-rule:nonzero;stroke:none;stroke-width:0.0352778" />
    <path
       id="path165"
       d="m 174.80593,803.09314 -11.14073,-27.82358 -10.97844,27.82358 z m 40.44597,31.13617 h -41.93117 v -4.2298 c 1.94734,-0.14464 4.24039,-0.49742 6.87564,-1.05834 2.63525,-0.56091 3.95111,-1.25589 3.95111,-2.08844 0,-0.28928 -0.0282,-0.61384 -0.0811,-0.9772 -0.0564,-0.35983 -0.20813,-0.85019 -0.46213,-1.46402 l -6.5652,-15.94556 H 150.4643 c -0.61031,1.48167 -1.28764,3.21733 -2.02142,5.207 -0.7373,1.98967 -1.37583,3.76061 -1.91558,5.31636 -0.68439,2.02495 -1.08656,3.48897 -1.21356,4.39208 -0.127,0.90312 -0.1905,1.53812 -0.1905,1.89795 0,1.16064 0.87489,2.14489 2.6282,2.95628 1.7533,0.81491 4.66725,1.40405 8.75241,1.76389 v 4.2298 h -31.57008 v -4.2298 c 1.19239,-0.0741 2.54,-0.26106 4.03931,-0.56798 1.50283,-0.30691 2.68816,-0.73377 3.556,-1.27705 1.48166,-0.86784 2.73755,-1.93322 3.76766,-3.1997 1.03011,-1.26647 1.89089,-2.76577 2.57881,-4.50144 4.19453,-10.16353 8.39611,-20.34117 12.6118,-30.53998 4.21217,-10.1988 8.86884,-21.44536 13.96648,-33.74319 h 10.84792 c 7.09083,17.43075 12.64002,31.21025 16.65464,41.33497 4.01461,10.12825 7.43302,18.51731 10.25172,25.1707 0.46919,1.08655 1.06539,2.0708 1.79211,2.95628 0.72319,0.88547 1.7533,1.72861 3.09033,2.52236 1.01247,0.57855 2.18723,1.01247 3.52778,1.30175 1.33703,0.28928 2.54706,0.46919 3.63361,0.54328 v 4.2298"
       style="fill:#ffffff;fill-opacity:1;fill-rule:nonzero;stroke:none;stroke-width:0.0352778" />
    <path
       id="path166"
       d="m -212.3924,869.59176 v 1.36172 h -9.2075 v -15.99494 h 1.64041 v 14.63322 h 7.56709"
       style="fill:#ffffff;fill-opacity:1;fill-rule:nonzero;stroke:none;stroke-width:0.0352778" />
    <path
       id="path167"
       d="m -200.59904,865.39723 -3.63008,-8.44903 -3.65125,8.44903 z m 0.58208,1.38642 h -8.47019 l -1.79564,4.16983 h -1.74978 l 7.00264,-15.99494 h 1.55575 l 7.00264,15.99494 h -1.75331 l -1.79211,-4.16983"
       style="fill:#ffffff;fill-opacity:1;fill-rule:nonzero;stroke:none;stroke-width:0.0352778" />
    <path
       id="path168"
       d="m -181.00576,849.7727 h 1.91911 l -3.34786,3.24203 h -1.38642 z m -8.41022,15.47284 v -10.287 h 1.64394 v 10.2235 c 0,2.76577 1.9685,4.62491 4.92478,4.62491 2.96333,0 4.9283,-1.85914 4.9283,-4.62491 v -10.2235 h 1.64395 v 10.287 c 0,3.56658 -2.61409,5.92313 -6.57225,5.92313 -3.92995,0 -6.56872,-2.35655 -6.56872,-5.92313"
       style="fill:#ffffff;fill-opacity:1;fill-rule:nonzero;stroke:none;stroke-width:0.0352778" />
    <path
       id="path169"
       d="m -172.11223,854.95854 h 1.05833 l 11.10897,13.14097 -0.0212,-13.14097 h 1.64394 v 15.99494 h -1.05833 l -11.1125,-13.14097 0.0247,13.14097 h -1.64394 v -15.99494"
       style="fill:#ffffff;fill-opacity:1;fill-rule:nonzero;stroke:none;stroke-width:0.0352778" />
    <path
       id="path170"
       d="m -153.96534,854.95854 h 1.64041 v 15.99494 h -1.64041 v -15.99494"
       style="fill:#ffffff;fill-opacity:1;fill-rule:nonzero;stroke:none;stroke-width:0.0352778" />
    <path
       id="path171"
       d="m -149.02293,862.91367 c 0,-4.90713 3.24556,-8.17033 8.08567,-8.17033 2.61408,0 4.55789,0.99483 6.02897,2.59292 l -1.03716,1.05833 c -1.12536,-1.29469 -2.74461,-2.28953 -4.92478,-2.28953 -3.84881,0 -6.42056,2.72345 -6.42056,6.80861 0,4.1275 2.55059,6.89328 6.3747,6.89328 2.37772,0 4.19453,-1.12183 5.33753,-2.78694 l 1.12536,1.03716 c -1.42875,1.92264 -3.69711,3.1115 -6.48406,3.1115 -4.84011,0 -8.08567,-3.30552 -8.08567,-8.255"
       style="fill:#ffffff;fill-opacity:1;fill-rule:nonzero;stroke:none;stroke-width:0.0352778" />
    <path
       id="path172"
       d="m -122.31765,865.39723 -3.63008,-8.44903 -3.65478,8.44903 z m 0.58561,1.38642 h -8.47019 l -1.79917,4.16983 h -1.74978 l 7.00264,-15.99494 h 1.55575 l 7.00264,15.99494 h -1.74977 l -1.79212,-4.16983"
       style="fill:#ffffff;fill-opacity:1;fill-rule:nonzero;stroke:none;stroke-width:0.0352778" />
    <path
       id="path173"
       d="m -111.13106,865.24554 v -10.287 h 1.64394 v 10.2235 c 0,2.76577 1.96497,4.62491 4.92478,4.62491 2.95981,0 4.928314,-1.85914 4.928314,-4.62491 v -10.2235 h 1.64394 v 10.287 c 0,3.56658 -2.617614,5.92313 -6.572254,5.92313 -3.92995,0 -6.56872,-2.35655 -6.56872,-5.92313"
       style="fill:#ffffff;fill-opacity:1;fill-rule:nonzero;stroke:none;stroke-width:0.0352778" />
    <path
       id="path174"
       d="m -92.186891,863.06537 h 4.039306 c 2.31775,0 3.869972,-1.36172 3.869972,-3.37256 0,-2.032 -1.534583,-3.37255 -3.869972,-3.37255 h -4.039306 z m 8.79475,7.88811 -4.258028,-6.52992 h -4.536722 v 6.52992 h -1.643945 v -15.99494 h 5.901973 c 3.242028,0 5.362222,1.8803 5.362222,4.73427 0,2.1837 -1.298222,3.82411 -3.414889,4.45206 l 4.536723,6.80861 h -1.947334"
       style="fill:#ffffff;fill-opacity:1;fill-rule:nonzero;stroke:none;stroke-width:0.0352778" />
    <path
       id="path175"
       d="m -68.981167,866.4979 c 0,-1.83445 -1.446389,-3.06917 -3.612445,-3.06917 h -4.512028 v 6.16303 h 4.512028 c 2.166056,0 3.612445,-1.2312 3.612445,-3.09386 z m -8.124473,-4.44853 h 3.951111 c 2.074334,0 3.436056,-1.14653 3.436056,-2.85397 0,-1.72861 -1.404056,-2.87514 -3.520723,-2.87514 h -3.866444 z m 9.831917,4.44853 c 0,2.68464 -2.056694,4.45558 -5.1435,4.45558 h -6.33589 v -15.99494 h 5.944306 c 2.878667,0 4.801306,1.61925 4.801306,4.04283 0,1.68628 -0.973666,2.93864 -2.596444,3.58775 2.056694,0.49742 3.330222,1.9438 3.330222,3.90878"
       style="fill:#ffffff;fill-opacity:1;fill-rule:nonzero;stroke:none;stroke-width:0.0352778" />
    <path
       id="path176"
       d="m -54.898278,865.39723 -3.630083,-8.44903 -3.65125,8.44903 z m 0.582084,1.38642 h -8.470195 l -1.792112,4.16983 h -1.753305 l 7.006167,-15.99494 h 1.552222 l 7.006167,15.99494 h -1.753305 l -1.795639,-4.16983"
       style="fill:#ffffff;fill-opacity:1;fill-rule:nonzero;stroke:none;stroke-width:0.0352778" />
    <path
       id="path177"
       d="m -48.534166,854.95854 h 1.061861 l 11.108973,13.14097 -0.02117,-13.14097 h 1.643945 v 15.99494 h -1.058334 l -11.1125,-13.14097 0.02469,13.14097 h -1.647472 v -15.99494"
       style="fill:#ffffff;fill-opacity:1;fill-rule:nonzero;stroke:none;stroke-width:0.0352778" />
    <path
       id="path178"
       d="m -30.383748,854.95854 h 1.640416 v 15.99494 h -1.640416 v -15.99494"
       style="fill:#ffffff;fill-opacity:1;fill-rule:nonzero;stroke:none;stroke-width:0.0352778" />
    <path
       id="path179"
       d="m -13.725581,869.59176 v 1.36172 H -25.80822 v -1.05833 l 9.662584,-13.57489 h -9.532057 v -1.36172 h 11.736918 v 1.03716 l -9.659056,13.59606 h 9.87425"
       style="fill:#ffffff;fill-opacity:1;fill-rule:nonzero;stroke:none;stroke-width:0.0352778" />
    <path
       id="path180"
       d="m -1.4947746,865.39723 -3.6300836,-8.44903 -3.6547781,8.44903 z m 0.58208334,1.38642 H -9.3864143 l -1.7921107,4.16983 h -1.753306 l 7.0061672,-15.99494 h 1.5557501 l 7.0026393,15.99494 H 0.88294773 l -1.79563899,-4.16983"
       style="fill:#ffffff;fill-opacity:1;fill-rule:nonzero;stroke:none;stroke-width:0.0352778" />
    <path
       id="path181"
       d="m 3.4017812,862.91367 c 0,-4.90713 3.242028,-8.17033 8.0821398,-8.17033 2.617611,0 4.564945,0.99483 6.0325,2.59292 l -1.037166,1.05833 c -1.125362,-1.29469 -2.744612,-2.28953 -4.928306,-2.28953 -3.8488064,0 -6.4205565,2.72345 -6.4205565,6.80861 0,4.1275 2.5505834,6.89328 6.3782225,6.89328 2.377723,0 4.191001,-1.12183 5.337528,-2.78694 l 1.125362,1.03716 c -1.425223,1.92264 -3.697112,3.1115 -6.487584,3.1115 -4.8401118,0 -8.0821398,-3.30552 -8.0821398,-8.255"
       style="fill:#ffffff;fill-opacity:1;fill-rule:nonzero;stroke:none;stroke-width:0.0352778" />
    <path
       id="path182"
       d="m 20.83606,854.95854 h 1.643945 v 15.99494 H 20.83606 v -15.99494"
       style="fill:#ffffff;fill-opacity:1;fill-rule:nonzero;stroke:none;stroke-width:0.0352778" />
    <path
       id="path183"
       d="m 35.638617,849.7727 h 1.922639 l -3.351389,3.24203 h -1.382889 z m 4.430889,13.18331 c 0,-4.10634 -2.529417,-6.85095 -6.268861,-6.85095 -3.781778,0 -6.290029,2.74461 -6.290029,6.85095 0,4.10633 2.508251,6.85094 6.290029,6.85094 3.739444,0 6.268861,-2.74461 6.268861,-6.85094 z m -14.287501,0 c 0,-4.92831 3.220861,-8.21267 8.01864,-8.21267 4.776611,0 7.972778,3.28436 7.972778,8.21267 0,4.9283 -3.196167,8.21266 -7.972778,8.21266 -4.797779,0 -8.01864,-3.28436 -8.01864,-8.21266"
       style="fill:#ffffff;fill-opacity:1;fill-rule:nonzero;stroke:none;stroke-width:0.0352778" />
    <path
       id="path184"
       d="m 45.071895,854.95854 h 1.061861 l 11.105446,13.14097 -0.02117,-13.14097 h 1.643944 v 15.99494 h -1.061861 l -11.108973,-13.14097 0.02117,13.14097 h -1.640417 v -15.99494"
       style="fill:#ffffff;fill-opacity:1;fill-rule:nonzero;stroke:none;stroke-width:0.0352778" />
    <path
       id="path185"
       d="m 78.991481,869.59176 v 1.36172 h -10.05064 v -15.99494 h 9.856612 v 1.36172 h -8.212667 v 5.79261 h 7.672917 v 1.36172 h -7.672917 v 6.11717 h 8.406695"
       style="fill:#ffffff;fill-opacity:1;fill-rule:nonzero;stroke:none;stroke-width:0.0352778" />
    <path
       id="path186"
       d="m 81.16812,862.91367 c 0,-4.90713 3.2385,-8.17033 8.082139,-8.17033 2.617611,0 4.561417,0.99483 6.032501,2.59292 l -1.037167,1.05833 c -1.125361,-1.29469 -2.748139,-2.28953 -4.931834,-2.28953 -3.845278,0 -6.420556,2.72345 -6.420556,6.80861 0,4.1275 2.554111,6.89328 6.378223,6.89328 2.377722,0 4.191,-1.12183 5.341056,-2.78694 l 1.121833,1.03716 c -1.425222,1.92264 -3.697111,3.1115 -6.484056,3.1115 -4.843639,0 -8.082139,-3.30552 -8.082139,-8.255"
       style="fill:#ffffff;fill-opacity:1;fill-rule:nonzero;stroke:none;stroke-width:0.0352778" />
    <path
       id="path187"
       d="m 111.54934,862.95601 c 0,-4.10634 -2.52942,-6.85095 -6.26886,-6.85095 -3.78178,0 -6.290026,2.74461 -6.290026,6.85095 0,4.10633 2.508246,6.85094 6.290026,6.85094 3.73944,0 6.26886,-2.74461 6.26886,-6.85094 z m -14.287497,0 c 0,-4.92831 3.220857,-8.21267 8.018637,-8.21267 4.77661,0 7.97278,3.28436 7.97278,8.21267 0,4.9283 -3.19617,8.21266 -7.97278,8.21266 -4.79778,0 -8.018637,-3.28436 -8.018637,-8.21266"
       style="fill:#ffffff;fill-opacity:1;fill-rule:nonzero;stroke:none;stroke-width:0.0352778" />
    <path
       id="path188"
       d="m 125.75923,869.59176 v 1.36172 h -9.2075 v -15.99494 h 1.64042 v 14.63322 h 7.56708"
       style="fill:#ffffff;fill-opacity:1;fill-rule:nonzero;stroke:none;stroke-width:0.0352778" />
    <path
       id="path189"
       d="m 136.1944,849.7727 h 1.92264 l -3.35139,3.24203 h -1.38289 z m 4.42736,13.18331 c 0,-4.10634 -2.52589,-6.85095 -6.26534,-6.85095 -3.7853,0 -6.29002,2.74461 -6.29002,6.85095 0,4.10633 2.50472,6.85094 6.29002,6.85094 3.73945,0 6.26534,-2.74461 6.26534,-6.85094 z m -14.2875,0 c 0,-4.92831 3.22439,-8.21267 8.02216,-8.21267 4.77662,0 7.97278,3.28436 7.97278,8.21267 0,4.9283 -3.19616,8.21266 -7.97278,8.21266 -4.79777,0 -8.02216,-3.28436 -8.02216,-8.21266"
       style="fill:#ffffff;fill-opacity:1;fill-rule:nonzero;stroke:none;stroke-width:0.0352778" />
    <path
       id="path190"
       d="m 159.97515,862.95601 c 0,5.0165 -2.93511,8.21266 -7.54239,8.21266 -4.70958,0 -7.84225,-3.28436 -7.84225,-8.21266 0,-4.92831 3.1115,-8.21267 7.84225,-8.21267 2.12019,0 3.78178,0.47625 5.34106,1.64042 l -1.07951,1.06186 c -1.14652,-0.93133 -2.55058,-1.34056 -4.26155,-1.34056 -3.67242,0 -6.11364,2.74461 -6.11364,6.85095 0,4.10633 2.44122,6.85094 6.13481,6.85094 3.41841,0 5.62327,-2.37772 5.79261,-5.96547 h -5.07648 v -1.38289 h 6.78745 c 0,0.17286 0.0176,0.32456 0.0176,0.49742"
       style="fill:#ffffff;fill-opacity:1;fill-rule:nonzero;stroke:none;stroke-width:0.0352778" />
    <path
       id="path191"
       d="m 162.8644,854.95854 h 1.64394 v 15.99494 h -1.64394 v -15.99494"
       style="fill:#ffffff;fill-opacity:1;fill-rule:nonzero;stroke:none;stroke-width:0.0352778" />
    <path
       id="path192"
       d="m 167.81387,862.91367 c 0,-4.90713 3.2385,-8.17033 8.08214,-8.17033 2.61408,0 4.55789,0.99483 6.02897,2.59292 l -1.03716,1.05833 c -1.12536,-1.29469 -2.74461,-2.28953 -4.92831,-2.28953 -3.84528,0 -6.42056,2.72345 -6.42056,6.80861 0,4.1275 2.55412,6.89328 6.37823,6.89328 2.37772,0 4.191,-1.12183 5.33753,-2.78694 l 1.12536,1.03716 c -1.42875,1.92264 -3.69711,3.1115 -6.48406,3.1115 -4.84364,0 -8.08214,-3.30552 -8.08214,-8.255"
       style="fill:#ffffff;fill-opacity:1;fill-rule:nonzero;stroke:none;stroke-width:0.0352778" />
    <path
       id="path193"
       d="m 194.51562,865.39723 -3.63008,-8.44903 -3.65478,8.44903 z m 0.58561,1.38642 h -8.47372 l -1.79564,4.16983 h -1.74978 l 7.00264,-15.99494 h 1.55575 l 7.00264,15.99494 h -1.74977 l -1.79212,-4.16983"
       style="fill:#ffffff;fill-opacity:1;fill-rule:nonzero;stroke:none;stroke-width:0.0352778" />
  </g>
</svg>
