<?xml version="1.0" encoding="UTF-8" standalone="no"?>
<svg
   width="160.0751mm"
   height="161.04109mm"
   viewBox="0 0 160.0751 161.04109"
   version="1.1"
   id="svg1352"
   inkscape:export-filename="fb_icon.svg"
   inkscape:export-xdpi="96"
   inkscape:export-ydpi="96"
   sodipodi:docname="ws_icon_green.svg"
   inkscape:version="1.3.2 (091e20e, 2023-11-25)"
   xmlns:inkscape="http://www.inkscape.org/namespaces/inkscape"
   xmlns:sodipodi="http://sodipodi.sourceforge.net/DTD/sodipodi-0.dtd"
   xmlns="http://www.w3.org/2000/svg"
   xmlns:svg="http://www.w3.org/2000/svg">
  <sodipodi:namedview
     id="namedview1354"
     pagecolor="#ffffff"
     bordercolor="#000000"
     borderopacity="0.25"
     inkscape:showpageshadow="2"
     inkscape:pageopacity="0.0"
     inkscape:pagecheckerboard="0"
     inkscape:deskcolor="#d1d1d1"
     inkscape:document-units="mm"
     showgrid="false"
     inkscape:zoom="0.2102413"
     inkscape:cx="1055.9295"
     inkscape:cy="-156.9625"
     inkscape:window-width="1861"
     inkscape:window-height="1025"
     inkscape:window-x="59"
     inkscape:window-y="25"
     inkscape:window-maximized="1"
     inkscape:current-layer="layer1"
     fill="#000000" />
  <defs
     id="defs1349"
     fill="#000000" />
  <g
     inkscape:label="Layer 1"
     inkscape:groupmode="layer"
     id="layer1"
     transform="translate(46.262433,-674.51202)">
    <path
       d="m 36.335523,822.9227 c -12.55537,0 -24.7897,-3.50654 -35.37655962,-10.14593 -0.44803,-0.2788 -0.95956000318,-0.41991 -1.47461,-0.41991 -0.27517,0 -0.55033998,0.0424 -0.81844998,0.12019 l -25.0048904,7.69744 c 1.83445,-6.70278 5.13645,-18.69723 7.05203,-25.36815 0.22225,-0.77258 0.0952,-1.60866 -0.33867,-2.28247 -7.02028,-10.80206 -10.7315,-23.35036 -10.7315,-36.29378 0,-36.77003 29.92262038,-66.69264 66.69265,-66.69264 36.77355,0 66.696167,29.92261 66.696167,66.69264 0,36.77356 -29.922617,66.69261 -66.696167,66.69261 z m 0,-138.9415 c -39.8391996,0 -72.2489,32.40969 -72.2489,72.24889 0,13.59253 3.77472,26.78642 10.93964,38.24464 -2.85397,9.99755 -8.00805,28.91018 -8.0645,29.10763 -0.26458,0.97733 0.0212,2.02491 0.75142,2.727 0.73025,0.702 1.78505,0.95236 2.74814,0.65966 l 28.63850038,-8.80882 c 11.21832962,6.75569 24.06649962,10.3222 37.23569962,10.3222 39.84272,0 72.252417,-32.40959 72.252417,-72.25231 0,-39.8392 -32.409697,-72.24889 -72.252417,-72.24889"
       style="fill:#80c329;fill-opacity:1;fill-rule:nonzero;stroke:none;stroke-width:0.0352778"
       id="path576" />
    <path
       d="m 49.254243,793.77623 c -28.52209,-4.27567 -46.4890596,-32.53317 -52.0064996,-46.88064 -5.47512,-14.22753 4.62138,-26.91342 7.15433,-29.7815 2.06375,-0.34925 4.23333,-0.49742 5.13997,-0.35278 1.8908896,2.63172 8.4419696,15.01069 8.7312496,17.24025 0,1.45697 -0.47272,3.48897 -6.13128,9.15106 -0.52211,0.51858 -0.81491,1.22414 -0.81491,1.96144 0,14.55209 30.69167,34.73803 36.12444,34.73803 4.72723,0 10.89025,-7.94456 14.40039,-13.12333 0.20461,0.0106 0.54681,0.0776 1.03011,0.32455 1.00189,0.50095 2.73756,1.63336 4.92831,3.06564 2.89631,1.89442 6.74158,4.4062 11.28183,7.0097 -2.06022,9.92011 -7.82461,19.95664 -29.83794,16.64758 z m 34.28295,-20.52108 c -5.12939,-2.85045 -9.50031,-5.70442 -12.68589,-7.78934 -2.43417,-1.59103 -4.19453,-2.73755 -5.48217,-3.38666 -3.60539,-1.79564 -6.33589,-0.52564 -7.37659,0.52563 -0.13052,0.13053 -0.24694,0.27164 -0.34572,0.41981 -3.74297,5.61622 -8.63247,10.98903 -10.06475,11.27831 -1.651,-0.25753 -9.39094,-4.65667 -17.08503,-11.06312 -7.85283,-6.54402 -12.79172,-12.80936 -13.51844,-17.07797 5.03766,-5.18583 6.85447,-8.44903 6.85447,-12.16025 0,-3.82764 -8.92528,-19.80495 -10.541,-21.41714 -1.61925,-1.61925 -5.2704996,-1.86972 -10.8443896,-0.75847 -0.53975,0.10583 -1.03364,0.37041 -1.42169,0.75847 -0.67381002,0.67381 -16.4747304,16.78517 -8.96762,36.30789 8.24088998,21.42772 29.3969796,46.33384 56.3703696,50.3802 3.06564,0.45861 5.93725,0.68792 8.62894,0.68792 15.86442,0 25.23067,-7.98337 27.86945,-23.81956 0.19756,-1.16064 -0.36336,-2.31775 -1.38994,-2.88572"
       style="fill:#80c329;fill-opacity:1;fill-rule:nonzero;stroke:none;stroke-width:0.0352778"
       id="path578" />
  </g>
</svg>
