<?xml version="1.0" encoding="UTF-8" standalone="no"?>
<!-- Created with Inkscape (http://www.inkscape.org/) -->

<svg
   width="160.0751mm"
   height="161.04109mm"
   viewBox="0 0 160.0751 161.04109"
   version="1.1"
   id="svg1352"
   inkscape:export-filename="fb_icon.svg"
   inkscape:export-xdpi="96"
   inkscape:export-ydpi="96"
   xmlns:inkscape="http://www.inkscape.org/namespaces/inkscape"
   xmlns:sodipodi="http://sodipodi.sourceforge.net/DTD/sodipodi-0.dtd"
   xmlns="http://www.w3.org/2000/svg"
   xmlns:svg="http://www.w3.org/2000/svg">
  <sodipodi:namedview
     id="namedview1354"
     pagecolor="#ffffff"
     bordercolor="#000000"
     borderopacity="0.25"
     inkscape:showpageshadow="2"
     inkscape:pageopacity="0.0"
     inkscape:pagecheckerboard="0"
     inkscape:deskcolor="#d1d1d1"
     inkscape:document-units="mm"
     showgrid="false"
     inkscape:zoom="0.2102413"
     inkscape:cx="1055.9295"
     inkscape:cy="-156.9625"
     inkscape:window-width="1280"
     inkscape:window-height="987"
     inkscape:window-x="0"
     inkscape:window-y="0"
     inkscape:window-maximized="1"
     inkscape:current-layer="layer1" />
  <defs
     id="defs1349" />
  <g
     inkscape:label="Layer 1"
     inkscape:groupmode="layer"
     id="layer1"
     transform="translate(46.262433,-674.51202)">
    <path
       d="m 16.200694,822.52326 h 21.66409 v -69.4126 h 19.7873 l 1.46403,-17.33902 h -21.25133 v -17.71651 c 0,-5.19641 4.20864,-9.40505 9.40505,-9.40505 h 12.28373 v -17.32492 h -21.81225 c -11.89567,0 -21.54062,9.64142 -21.54062,21.53356 v 22.9235 H 2.1036945 v 17.32844 H 16.200694 Z m -6.5299095,1.52037 V 759.64411 H 0.57264445 c -2.76224995,0 -4.99886995,-2.24367 -4.99886995,-5.00239 v -20.39056 c 0,-2.74461 2.2472,-4.99533 4.99886995,-4.99533 H 9.6707845 v -16.39711 c 0,-15.49753 12.5694695,-28.067 28.0705295,-28.067 h 23.3433 c 2.76225,0 4.99886,2.24014 4.99886,5.00239 v 20.38702 c 0,2.76225 -2.23661,4.99887 -4.99886,4.99887 h -13.81478 c -1.57691,0 -2.87514,1.30175 -2.87514,2.87513 v 11.21128 l 16.38653,-0.0106 c 2.76225,0.19403 4.99886,2.05669 4.99886,4.99533 -0.48683,6.90739 -1.16063,13.88887 -1.74625,20.80684 -0.21519,2.5788 -2.3883,4.58611 -4.97769,4.58611 h -14.66145 v 64.39952 c 0,2.7481 -2.24366,4.9954 -4.99533,4.9954 l -24.72972,0.007 c -2.7552,0 -4.9988595,-2.24356 -4.9988595,-5.00242 v 0"
       style="fill:#100f0d;fill-opacity:1;fill-rule:nonzero;stroke:none;stroke-width:0.0352778"
       id="path574" />
  </g>
</svg>
