<?xml version="1.0" encoding="UTF-8" standalone="no"?>
<!-- Created with Inkscape (http://www.inkscape.org/) -->

<svg
   width="177.91338mm"
   height="183.5208mm"
   viewBox="0 0 177.91338 183.5208"
   version="1.1"
   id="svg1"
   xmlns="http://www.w3.org/2000/svg"
   xmlns:svg="http://www.w3.org/2000/svg">
  <defs
     id="defs1" />
  <g
     id="layer1"
     transform="translate(259.05606,-232.87719)">
    <path
       id="path195"
       d="m 235.21306,132.41591 4.63973,-3.21733 3.21734,4.63903 -4.63974,3.21733 -3.21733,-4.63903"
       style="fill:#100f0d;fill-opacity:1;fill-rule:nonzero;stroke:none;stroke-width:0.0352778" />
    <path
       id="path196"
       d="m 286.62407,206.66153 4.63903,-3.21381 3.21522,4.63903 -4.63938,3.21381 -3.21487,-4.63903"
       style="fill:#100f0d;fill-opacity:1;fill-rule:nonzero;stroke:none;stroke-width:0.0352778" />
    <path
       id="path197"
       d="m 303.93982,211.82972 -13.91779,9.64142 -17.68193,-25.51642 4.63973,-3.2138 6.42973,9.27805 4.63903,-3.2138 -6.42938,-9.27806 4.63903,-3.2138 z m -55.11554,-0.25752 h 3.6e-4 l -33.11843,-47.79434 c -7.99289,-11.59228 -7.58049,-27.01925 1.02023,-38.16703 l 17.42017,25.13895 c -3.36021,3.89819 -3.66042,9.57791 -0.73025,13.80772 l 20.89644,30.15897 c 2.93405,4.22981 8.3559,5.94078 13.18754,4.16631 l 17.42087,25.13894 c -13.45917,4.13809 -28.05006,-0.89252 -36.09693,-12.44952 z m -23.28298,-93.06279 6.42973,9.27806 4.63938,-3.21381 -6.42973,-9.27805 4.63938,-3.21734 17.68087,25.51995 -13.91708,9.64494 -8.84132,-12.75997 -8.84096,-12.75644 z m 46.33948,70.78487 -5.23981,3.63008 c -2.56257,1.778 -6.07906,1.13947 -7.85424,-1.42522 l -20.89679,-30.15545 c -1.77518,-2.56116 -1.13736,-6.07836 1.42487,-7.85283 l 16.23695,-11.25009 c 2.55905,-1.778 3.19616,-5.29166 1.42451,-7.85636 l -17.68193,-25.51642 c -1.77588,-2.56116 -5.29202,-3.19969 -7.85424,-1.42522 l -16.23801,11.25361 c -0.0131,0.0106 -0.0215,0.0212 -0.0335,0.0282 -0.14006,0.0988 -0.27058,0.21166 -0.39018,0.33161 -12.51338,13.03161 -14.13369,33.06586 -3.87667,47.93544 l 33.11878,47.79434 c 10.31487,14.83784 29.65203,20.35881 46.24635,13.20447 0.0152,-0.007 0.0215,-0.0141 0.0353,-0.0212 0.1577,-0.067 0.30904,-0.1517 0.45191,-0.24695 l 16.23731,-11.25361 c 2.5594,-1.778 3.19687,-5.29167 1.42487,-7.85636 L 290.73327,183.0959 c -1.77765,-2.55764 -5.29132,-3.19617 -7.85389,-1.42169 l -5.35411,3.70769 -5.64445,3.91231"
       style="fill:#100f0d;fill-opacity:1;fill-rule:nonzero;stroke:none;stroke-width:0.0352778" />
    <path
       id="path198"
       d="m 276.81967,158.44386 h 5.64445 v 5.64444 h -5.64445 v -5.64444"
       style="fill:#100f0d;fill-opacity:1;fill-rule:nonzero;stroke:none;stroke-width:0.0352778" />
    <path
       id="path199"
       d="m 288.10856,158.44386 h 11.28889 v 5.64444 h -11.28889 v -5.64444"
       style="fill:#100f0d;fill-opacity:1;fill-rule:nonzero;stroke:none;stroke-width:0.0352778" />
    <path
       id="path200"
       d="m 101.97168,-67.557761 c -21.258393,0 -38.555093,17.28963 -38.555093,38.54803 0,8.15622 2.70581,16.08314 8.03628,23.5549696 L 101.97168,37.316019 132.49401,-5.4618214 c 5.32695,-7.4612496 8.0257,-15.3881596 8.0257,-23.5479096 0,-21.2584 -17.29317,-38.54803 -38.54803,-38.54803 z m 0,112.01047 -33.894893,-47.5015304 c -5.84201,-8.1879696 -8.80534,-16.9227496 -8.80534,-25.9609096 0,-23.54087 19.15584,-42.69317 42.700233,-42.69317 23.54086,0 42.68964,19.1523 42.68964,42.69317 0,8.91469 -3.04095,17.89289 -8.79475,25.9573896 L 101.97168,44.452709"
       style="fill:#100f0d;fill-opacity:1;fill-rule:nonzero;stroke:none;stroke-width:0.0352778" />
    <path
       id="path201"
       d="M 105.0232,-3.7896514 C 89.575057,-2.0751514 76.448197,-14.171901 76.448197,-29.277851 h 4.14514 c 0,12.66473 11.00314,22.8070896 23.953613,21.3712796 9.86367,-1.09361 17.8047,-9.0311096 18.91595,-18.8912496 1.45697,-12.96105 -8.68892,-23.98183 -21.3607,-23.98183 v -4.14514 c 15.113,0 27.21328,13.14097 25.47762,28.59617 -1.31939,11.76161 -10.79148,21.2301596 -22.55662,22.5389696"
       style="fill:#100f0d;fill-opacity:1;fill-rule:nonzero;stroke:none;stroke-width:0.0352778" />
    <path
       id="path202"
       d="m 81.521147,-35.670181 -3.94053,-1.28411 c 2.52589,-7.76817 8.67481,-13.91356 16.44297,-16.44297 l 1.28059,3.94405 c -6.51228,2.11667 -11.66284,7.27075 -13.78303,13.78303"
       style="fill:#100f0d;fill-opacity:1;fill-rule:nonzero;stroke:none;stroke-width:0.0352778" />
    <path
       id="path203"
       d="m 99.339947,2.9554586 h 4.603753 v 4.60375 h -4.603753 v -4.60375"
       style="fill:#100f0d;fill-opacity:1;fill-rule:nonzero;stroke:none;stroke-width:0.0352778" />
    <path
       id="path204"
       d="m 99.339947,11.242209 h 4.603753 v 4.60728 h -4.603753 v -4.60728"
       style="fill:#100f0d;fill-opacity:1;fill-rule:nonzero;stroke:none;stroke-width:0.0352778" />
    <path
       id="path205"
       d="m 99.339947,19.532489 h 4.603753 v 4.60375 h -4.603753 v -4.60375"
       style="fill:#100f0d;fill-opacity:1;fill-rule:nonzero;stroke:none;stroke-width:0.0352778" />
    <path
       id="path206"
       d="m -226.62021,285.892 h 5.94784 v 3.92289 c 0,0.98425 0.8008,1.78506 1.78858,1.78506 h 7.60236 c 0.98778,0 1.78858,-0.80081 1.78858,-1.78506 V 285.892 h 11.65225 v 3.92289 c 0,0.98425 0.80081,1.78506 1.78859,1.78506 h 7.60236 c 0.98778,0 1.78858,-0.80081 1.78858,-1.78506 V 285.892 h 11.65578 v 3.92289 c 0,0.98425 0.79728,1.78506 1.78506,1.78506 h 7.60589 c 0.98777,0 1.78505,-0.80081 1.78505,-1.78506 V 285.892 h 11.77573 0.11641 v 3.92289 c 0,0.98425 0.80081,1.78506 1.78859,1.78506 h 7.60589 c 0.98425,0 1.78505,-0.80081 1.78505,-1.78506 v -3.92994 c 0.0388,0.004 0.0776,0.007 0.11995,0.007 h 5.82789 v 9.75078 h -91.81043 z m 9.51442,-9.51441 h 4.04283 v 11.65577 h -4.04283 z m 22.83531,0 h 4.04283 v 11.65577 h -4.04283 z m 22.83178,0 h 4.04283 v 11.65577 h -4.04283 z m 23.07167,0 h 4.04283 v 11.65577 h -4.04283 z m -66.71734,84.19747 h -11.53584 v -61.36217 h 91.81043 v 5.77145 l 3.56658,0.067 v -20.94089 c 0,-0.98425 -0.8008,-1.78505 -1.78858,-1.78505 h -7.60589 c -0.0423,0 -0.0811,0.004 -0.11995,0.004 v -7.72936 c 0,-0.98778 -0.8008,-1.78859 -1.78505,-1.78859 h -7.84225 c -0.98778,0 -1.78859,0.80081 -1.78859,1.78859 v 7.72583 h -0.11994 -11.53584 v -7.72583 c 0,-0.98778 -0.79728,-1.78859 -1.78505,-1.78859 h -7.60589 c -0.98778,0 -1.78506,0.80081 -1.78506,1.78859 v 7.72583 h -11.65578 v -7.72583 c 0,-0.98778 -0.8008,-1.78859 -1.78858,-1.78859 h -7.60236 c -0.98778,0 -1.78859,0.80081 -1.78859,1.78859 v 7.72583 h -11.65225 v -7.72583 c 0,-0.98778 -0.8008,-1.78859 -1.78858,-1.78859 h -7.60236 c -0.98778,0 -1.78858,0.80081 -1.78858,1.78859 v 7.72583 h -7.72584 c -0.98778,0 -1.78858,0.8008 -1.78858,1.78505 v 78.24612 c 0,0.98778 0.8008,1.78506 1.78858,1.78506 h 13.24328 l 0.0706,-3.56659"
       style="fill:#100f0d;fill-opacity:1;fill-rule:nonzero;stroke:none;stroke-width:0.0352778" />
    <path
       id="path207"
       d="m -138.82792,377.65304 c -14.78492,0 -26.81112,-12.02973 -26.81112,-26.81112 0,-14.78491 12.0262,-26.81111 26.81112,-26.81111 14.78139,0 26.80758,12.0262 26.80758,26.81111 0,14.78139 -12.02619,26.81112 -26.80758,26.81112 z m -67.44406,-13.51139 h 40.23783 c 4.91772,10.12825 15.30703,17.12736 27.29795,17.12736 16.72167,0 30.32478,-13.60664 30.32478,-30.32478 0,-14.13934 -9.72256,-26.04559 -22.83178,-29.38992 v 0 -7.64469 l -3.56658,-0.0706 v 7.03086 c -1.28764,-0.1658 -2.59645,-0.25047 -3.92642,-0.25047 -16.72167,0 -30.32478,13.60311 -30.32478,30.32478 0,3.3655 0.55386,6.604 1.56986,9.63083 h -38.71031 l -0.0706,3.56659"
       style="fill:#100f0d;fill-opacity:1;fill-rule:nonzero;stroke:none;stroke-width:0.0352778" />
    <path
       id="path208"
       d="m -138.82792,370.02598 c -10.57981,0 -19.18406,-8.60778 -19.18406,-19.18406 0,-10.5798 8.60425,-19.18405 19.18406,-19.18405 10.57628,0 19.18406,8.60425 19.18406,19.18405 0,10.57628 -8.60778,19.18406 -19.18406,19.18406 z m 0,-41.94175 c -12.55184,0 -22.76123,10.20939 -22.76123,22.75769 0,12.54831 10.20939,22.7577 22.76123,22.7577 12.54831,0 22.7577,-10.20939 22.7577,-22.7577 0,-12.5483 -10.20939,-22.75769 -22.7577,-22.75769"
       style="fill:#100f0d;fill-opacity:1;fill-rule:nonzero;stroke:none;stroke-width:0.0352778" />
    <path
       id="path209"
       d="m -147.52742,346.55215 7.62705,5.71852 c 0.3175,0.23989 0.69498,0.35984 1.06892,0.35984 0.46214,0 0.92075,-0.17992 1.26647,-0.52564 l 7.57414,-7.57414 -2.4765,-2.57881 -6.52991,6.52992 -6.38528,-4.79072 -2.14489,2.86103"
       style="fill:#100f0d;fill-opacity:1;fill-rule:nonzero;stroke:none;stroke-width:0.0352778" />
    <path
       id="path210"
       d="m -213.29932,322.04467 h 19.2652 v 15.45872 h -19.2652 z m 19.2652,32.6002 h 3.56658 v -13.57136 h 17.17322 l -0.0459,-3.57012 h -17.12736 v -15.45872 h 19.2652 v 10.49161 h 3.57011 v -10.49161 h 9.56028 l 0.0705,-3.56658 h -9.63083 v -13.36675 l -3.57011,-0.0741 v 13.44084 h -19.2652 v -13.3985 l -3.56658,-0.067 v 13.46553 h -19.2652 v -13.36677 l -3.56658,-0.0741 v 13.44084 h -3.85586 l -0.0706,3.56658 h 3.92641 v 15.45872 h -3.85586 l -0.0706,3.57012 h 3.92642 v 13.5008 l 3.56658,0.0564 v -13.55725 h 19.2652 v 13.5008"
       style="fill:#100f0d;fill-opacity:1;fill-rule:nonzero;stroke:none;stroke-width:0.0352778" />
    <path
       id="path211"
       d="m -144.56409,314.60812 v -9.44034 l -3.56658,-0.0705 v 9.44033 l 3.56658,0.0706"
       style="fill:#100f0d;fill-opacity:1;fill-rule:nonzero;stroke:none;stroke-width:0.0352778" />
    <path
       id="path212"
       d="m 370.07195,586.39495 -26.65236,-26.65236 9.99419,-9.99419 26.65237,26.65236 z m -9.99419,3.33023 -19.98839,-19.98839 3.33022,-3.33023 19.98839,19.98839 z m -0.83256,15.82561 c -0.91722,0.91369 -2.40947,0.91722 -3.33375,0 l -3.33022,-3.33375 c -0.91723,-0.91722 -0.91723,-2.413 0,-3.33022 0.45861,-0.45862 1.06186,-0.68792 1.66864,-0.68792 0.59972,0 1.20297,0.2293 1.66511,0.68792 l 3.33022,3.33022 c 0.4445,0.4445 0.69144,1.03716 0.69144,1.66511 0,0.63147 -0.24694,1.22061 -0.69144,1.66864 z m -6.66397,6.66044 c -0.88548,0.889 -2.44123,0.889 -3.33023,0 l -3.33375,-3.33375 c -0.4445,-0.44097 -0.68791,-1.03364 -0.68791,-1.66158 0,-0.63147 0.24341,-1.22061 0.68791,-1.66511 0.46214,-0.46214 1.06539,-0.69145 1.66512,-0.69145 0.60325,0 1.2065,0.22931 1.66863,0.69145 l 3.33023,3.33022 c 0.91722,0.91722 0.91722,2.413 0,3.33022 z m -6.66398,6.66398 c -0.92075,0.91722 -2.40947,0.91722 -3.33022,0 l -3.33022,-3.33023 c -0.91722,-0.92075 -0.91722,-2.413 0,-3.33375 0.4445,-0.4445 1.03364,-0.68791 1.66511,-0.68791 0.62795,0 1.22061,0.24341 1.66511,0.68791 l 3.33022,3.33375 c 0.44803,0.4445 0.69145,1.03364 0.69145,1.66511 0,0.62795 -0.24342,1.22062 -0.69145,1.66512 z m -6.66044,6.66397 c -0.89253,0.89253 -2.43769,0.889 -3.33022,-0.004 l -3.33375,-3.32669 c -0.91723,-0.92075 -0.91723,-2.41653 0,-3.33375 0.92075,-0.91723 2.413,-0.91723 3.33375,0 l 3.33022,3.33022 c 0.91722,0.92075 0.91722,2.413 0,3.33375 z m -14.17461,-1.83092 c -0.635,0 -1.22061,-0.23989 -1.65806,-0.67733 -0.92075,-0.91722 -0.91722,-2.36361 -0.0247,-3.29847 0.0106,-0.0106 0.0212,-0.0141 0.0317,-0.0247 l 4.43441,-4.43794 2.2225,-2.21192 -0.004,-0.004 0.0106,-0.0106 -3.33375,-3.33022 -1.5875,1.59102 -5.09058,5.07295 c -0.0106,0.007 -0.0141,0.0176 -0.0212,0.0247 -0.89958,0.85725 -2.413,0.85373 -3.29142,-0.0282 -0.44803,-0.4445 -0.69144,-1.03364 -0.69144,-1.66158 0,-0.63147 0.24694,-1.22414 0.69144,-1.66864 l 6.66045,-6.66045 -3.33022,-3.33375 -6.66398,6.66398 c -0.92075,0.91369 -2.413,0.92075 -3.33375,0 -0.91722,-0.91723 -0.91722,-2.413 0,-3.33023 l 6.6675,-6.66397 -3.33375,-3.33022 -6.66397,6.66044 c -0.88547,0.889 -2.44122,0.89253 -3.33022,0 -0.91722,-0.91722 -0.91722,-2.413 0,-3.33022 l 4.99886,-4.99886 0.004,0.004 10.69975,-10.72092 c 0.0423,0 0.0811,0.0106 0.12347,0.0106 2.34597,0 4.58611,-0.68086 6.49464,-1.95086 l 8.49489,8.49489 c 2.667,2.667 7.32367,2.67053 9.99419,0 1.3335,-1.3335 2.07081,-3.10797 2.07081,-4.99533 0,-1.89089 -0.73731,-3.66536 -2.07081,-4.99886 l -8.26558,-8.26559 v 0 l 20.7645,20.7645 -0.69144,0.69145 c -2.35656,-0.62089 -4.96712,-0.0423 -6.80862,1.80269 -1.28763,1.28411 -1.94733,2.9457 -2.032,4.62845 -1.68627,0.0882 -3.34786,0.74789 -4.63197,2.032 -1.26294,1.26294 -1.96497,2.92453 -2.03905,4.69547 -1.70392,0.0882 -3.37961,0.72672 -4.62139,1.9685 -1.28764,1.28411 -1.94734,2.9457 -2.032,4.63197 -1.68628,0.0847 -3.34786,0.74436 -4.6355,2.032 -1.83798,1.83798 -2.42006,4.44148 -1.8027,6.79098 l -0.69497,0.69497 c -0.56092,0.56091 -1.22414,0.67733 -1.67922,0.67733 z m -18.30917,-63.96567 3.33375,3.33022 -19.99192,19.98839 -3.33022,-3.33022 z m -24.98372,18.32328 -9.99773,-9.9942 23.32214,-23.32214 9.9942,9.9942 z m 59.13261,5.83142 c 0.4445,0.4445 0.69145,1.03364 0.69145,1.66511 0,0.62794 -0.24695,1.21708 -0.69145,1.66511 -0.89253,0.89253 -2.43769,0.889 -3.33022,0 l -9.99772,-9.9942 c -0.88195,-0.88547 -2.44828,-0.88194 -3.33023,0 -2.667,2.67053 -7.32719,2.667 -9.99419,0 l -3.33022,3.33023 c 0.86077,0.8643 1.85913,1.524 2.91041,2.07433 l -12.07205,12.08264 -8.32909,-8.32556 20.96559,-20.96558 h 8.04333 z m 44.13956,-9.16517 -29.98259,-29.98259 c -0.88194,-0.88194 -2.44827,-0.88194 -3.33022,0 l -13.32442,13.32795 c -0.92075,0.92075 -0.92075,2.40947 0,3.33022 l 1.66512,1.66511 -4.49792,4.49792 -3.61245,0.71967 -6.88269,-6.8827 c -0.44097,-0.44097 -1.0407,-0.68791 -1.66511,-0.68791 h -9.017 l -4.31095,-4.31095 c 0.92075,-0.91722 0.92075,-2.40947 0,-3.33022 L 296.78236,539.7542 c -0.4445,-0.44097 -1.04069,-0.69144 -1.66864,-0.69144 -0.62441,0 -1.22061,0.25047 -1.66511,0.69144 l -26.65236,26.65236 c -0.44097,0.44098 -0.69144,1.0407 -0.69144,1.66511 0,0.62442 0.25047,1.22414 0.69144,1.66512 l 13.32794,13.32441 c 0.44098,0.4445 1.03717,0.69145 1.66512,0.69145 0.62441,0 1.22414,-0.24695 1.66511,-0.69145 l 15.29997,15.29998 c -1.24531,2.62466 -0.81139,5.85258 1.3582,8.02216 1.2453,1.24531 2.88219,1.94381 4.63197,2.032 0.0882,1.68628 0.74789,3.34434 2.02847,4.62845 1.28411,1.28411 2.94569,1.9438 4.63197,2.032 0.0882,1.74978 0.7867,3.38667 2.032,4.63197 1.24531,1.24531 2.8822,1.94381 4.63198,2.03553 0.0882,1.68275 0.74788,3.34433 2.02494,4.62139 1.32292,1.32644 3.09739,2.05669 4.98828,2.05669 1.90147,0 3.67947,-0.73025 5.00591,-2.05669 l 2.50473,2.50472 c 1.3335,1.3335 3.10797,2.07081 4.99886,2.07081 1.88383,0 3.66183,-0.73731 4.99533,-2.07081 1.28411,-1.28411 1.94381,-2.94569 2.032,-4.63197 1.68628,-0.0882 3.34434,-0.74789 4.63197,-2.032 1.24531,-1.24531 1.94381,-2.8822 2.032,-4.62845 1.74978,-0.0917 3.38314,-0.78669 4.62845,-2.032 1.28411,-1.28411 1.94381,-2.94569 2.032,-4.63197 1.68628,-0.0882 3.34786,-0.74789 4.63197,-2.032 1.3335,-1.3335 2.07081,-3.10797 2.07081,-4.99886 0,-1.88736 -0.73731,-3.66183 -2.07081,-4.99533 l -2.49061,-2.49414 1.66511,-1.66511 c 0.0106,-0.0106 0.0141,-0.0247 0.0212,-0.0353 l 4.96711,-4.96711 1.66864,1.66511 c 0.45861,0.45861 1.06186,0.69144 1.66511,0.69144 0.60325,0 1.20297,-0.23283 1.66511,-0.69144 l 13.32439,-13.3244 c 0.4445,-0.44097 0.69144,-1.04069 0.69144,-1.66511 0,-0.62795 -0.24694,-1.22414 -0.69144,-1.66864"
       style="fill:#100f0d;fill-opacity:1;fill-rule:nonzero;stroke:none;stroke-width:0.0352778" />
    <path
       id="path213"
       d="m 325.78775,495.44884 19.31106,15.80091 h -38.62564 z m 16.48884,41.71244 h -9.4227 v -11.77925 c 0,-1.29822 -1.0548,-2.35302 -2.35655,-2.35302 h -9.4227 c -1.30175,0 -2.35303,1.0548 -2.35303,2.35302 v 11.77925 h -9.42269 v -21.20194 h 32.97767 z m -18.84539,0 v -9.42269 h 4.71311 v 9.42269 z m -23.55498,-21.20194 h 4.70959 v 23.5585 c 0,1.29822 1.0548,2.35656 2.35655,2.35656 h 37.69078 c 1.30175,0 2.35656,-1.05834 2.35656,-2.35656 v -23.5585 h 4.70958 c 0.99484,0 1.88384,-0.62442 2.21898,-1.56281 0.33513,-0.93839 0.0423,-1.98261 -0.72673,-2.61408 L 327.27648,490.5805 c -0.86431,-0.70908 -2.11667,-0.70908 -2.98098,0 l -25.91153,21.20195 c -0.76905,0.63147 -1.06186,1.67569 -0.72672,2.61408 0.33514,0.93839 1.22061,1.56281 2.21897,1.56281"
       style="fill:#100f0d;fill-opacity:1;fill-rule:nonzero;stroke:none;stroke-width:0.0352778" />
    <path
       id="path214"
       d="m 281.03083,513.60631 h 4.70959 v -4.71311 h 4.71311 v -4.70958 h -4.71311 v -4.71312 h -4.70959 v 4.71312 h -4.71311 v 4.70958 h 4.71311 v 4.71311"
       style="fill:#100f0d;fill-opacity:1;fill-rule:nonzero;stroke:none;stroke-width:0.0352778" />
    <path
       id="path215"
       d="m 365.83156,532.4517 v 4.70958 h 4.71311 v 4.71312 h 4.70959 v -4.71312 h 4.71311 v -4.70958 h -4.71311 v -4.71311 h -4.70959 v 4.71311 h -4.71311"
       style="fill:#100f0d;fill-opacity:1;fill-rule:nonzero;stroke:none;stroke-width:0.0352778" />
    <path
       id="path216"
       d="m 356.41239,506.53664 h 4.70959 v -4.70958 h 4.70958 v -4.71311 h -4.70958 v -4.70959 h -4.70959 v 4.70959 h -4.71311 v 4.71311 h 4.71311 v 4.70958"
       style="fill:#100f0d;fill-opacity:1;fill-rule:nonzero;stroke:none;stroke-width:0.0352778" />
    <path
       id="path217"
       d="m 269.25158,541.8744 v -4.71312 h 4.70959 v -4.70958 h -4.70959 v -4.71311 h -4.71311 v 4.71311 h -4.70958 v 4.70958 h 4.70958 v 4.71312 h 4.71311"
       style="fill:#100f0d;fill-opacity:1;fill-rule:nonzero;stroke:none;stroke-width:0.0352778" />
    <path
       id="path218"
       d="m 539.81804,597.48629 h -8.19502 v -8.1915 h 8.19502 z m 2.04612,-12.28725 h -12.28725 c -1.13242,0 -2.04964,0.91722 -2.04964,2.04964 v 12.28725 c 0,1.13241 0.91722,2.04964 2.04964,2.04964 h 12.28725 c 1.13241,0 2.04963,-0.91723 2.04963,-2.04964 v -12.28725 c 0,-1.13242 -0.91722,-2.04964 -2.04963,-2.04964"
       style="fill:#100f0d;fill-opacity:1;fill-rule:nonzero;stroke:none;stroke-width:0.0352778" />
    <path
       id="path219"
       d="m 562.34643,574.9579 v -2.04964 h 8.19503 v 2.04964 z m -12.28725,-2.04964 h 8.1915 v 2.04964 h -8.1915 z m 8.1915,-6.14539 v 2.04964 h -8.1915 v -2.04964 z m 12.29078,2.04964 h -8.19503 v -2.04964 h 8.19503 z m 0,-6.14539 h -20.48228 c -2.25777,0 -4.09927,1.83797 -4.09927,4.09575 v 8.19503 c 0,2.25778 1.8415,4.09575 4.09927,4.09575 h 20.48228 c 2.25778,0 4.09575,-1.83797 4.09575,-4.09575 v -8.19503 c 0,-2.25778 -1.83797,-4.09575 -4.09575,-4.09575"
       style="fill:#100f0d;fill-opacity:1;fill-rule:nonzero;stroke:none;stroke-width:0.0352778" />
    <path
       id="path220"
       d="m 587.27724,613.87282 c 0.83961,-2.38478 3.09739,-4.09575 5.66914,-4.09928 0.067,0.0106 0.27517,0.0282 0.34572,0.0317 0.64206,0.0282 1.27,-0.25753 1.6757,-0.76553 0.40569,-0.50447 0.55033,-1.17475 0.38453,-1.80269 -0.15875,-0.59973 -0.23284,-1.09362 -0.23284,-1.55575 0,-3.3902 2.7552,-6.14539 6.14539,-6.14539 3.38667,0 6.14186,2.75519 6.14186,6.14539 0,1.13241 0.91723,2.04611 2.04964,2.04611 3.81,0 7.02381,2.61761 7.93398,6.14539 z m -37.21806,0 v -28.67378 h 20.48228 v 28.67378 z m -46.55961,0 c 0.98778,-1.70745 3.26319,-2.63525 5.33753,-1.60867 0.78669,0.38453 1.72861,0.22931 2.35303,-0.39158 0.62089,-0.61736 0.77611,-1.56281 0.38805,-2.35303 -0.28928,-0.58914 -0.43744,-1.19239 -0.43744,-1.79211 0,-2.25778 1.83797,-4.09575 4.09928,-4.09575 1.72508,0 3.27025,1.11125 3.84527,2.75872 0.29634,0.85019 1.04423,1.41111 2.01436,1.3723 0.13053,-0.004 0.254,-0.0176 0.28223,-0.0353 3.81,0 7.0238,2.61761 7.93397,6.14539 z m 24.92022,-61.48917 c 15.09889,-0.4692 27.26973,-12.64003 27.73892,-27.73892 l 2.69875,-2.70228 c 0.79728,-0.79375 2.08492,-0.79375 2.8822,0 l 30.48353,30.48353 h -63.84573 z m -13.60664,7.81402 c -0.89605,0.89606 -2.35302,0.89606 -3.24908,0 -0.55386,-0.55386 -0.66675,-1.19238 -0.66675,-1.6263 0,-0.43392 0.11289,-1.06892 0.66675,-1.62278 l 6.25122,-6.25122 c 1.65806,0.59972 3.38314,1.04775 5.16467,1.3335 l -0.99483,0.99483 c -0.004,0 -0.004,0.004 -0.004,0.004 z M 502.94924,523.7522 c 0,-13.55372 11.0243,-24.57803 24.57803,-24.57803 13.55372,0 24.57803,11.02431 24.57803,24.57803 0,13.55372 -11.02431,24.57803 -24.57803,24.57803 -13.55373,0 -24.57803,-11.02431 -24.57803,-24.57803 z m 55.90822,-14.097 c 0.79728,-0.79375 2.08492,-0.79375 2.8822,0 l 47.29339,47.29339 c 0.89605,0.89606 0.89605,2.35303 0,3.24908 -0.55386,0.55387 -1.18886,0.67028 -1.62631,0.67028 -0.43391,0 -1.06891,-0.11641 -1.62277,-0.67028 l -41.14801,-41.15153 c -2.39183,-2.39183 -6.27944,-2.39183 -8.6748,0 l -0.15523,0.15875 c -0.28575,-1.78505 -0.73377,-3.50661 -1.3335,-5.16466 z m 23.97125,5.9055 h 12.29078 v 21.68172 l -12.29078,-12.29078 z m -4.09575,-8.19503 h 20.48228 l 0.004,4.09575 h -20.48581 z m 10.24114,81.92912 v 8.1915 h -8.1915 v -8.1915 z m 4.08164,10.3258 c 0,-0.0282 0.0141,-0.0529 0.0141,-0.0847 v -12.28725 c 0,-1.13242 -0.91369,-2.04964 -2.04611,-2.04964 h -12.29078 c -1.13241,0 -2.04964,0.91722 -2.04964,2.04964 v 12.28725 c 0,1.13241 0.91723,2.04964 2.04964,2.04964 h 12.29078 c 0.39159,0 0.73378,-0.14112 1.04422,-0.33162 -0.64911,1.34762 -1.04422,2.83634 -1.04422,4.42737 0,0.067 0,0.13758 0,0.20461 -4.00403,0.81491 -7.1508,3.98286 -7.96925,7.98689 h -8.41728 v -30.72342 c 0,-1.12889 -0.91722,-2.04611 -2.04964,-2.04611 h -24.57802 c -1.13242,0 -2.04964,0.91722 -2.04964,2.04611 v 30.72342 h -12.4707 c -0.74789,-4.43089 -3.86644,-8.05745 -8.00806,-9.52853 v -47.81903 h 69.63834 v 41.01394 c -0.78316,0.5962 -1.48166,1.29117 -2.06375,2.08139 z m 18.27036,4.15573 c -0.89605,-4.74134 -5.06588,-8.33614 -10.06122,-8.33614 -0.70203,0 -1.38641,0.0705 -2.04964,0.20814 v -36.22676 l 3.67242,3.67242 c 1.2065,1.20297 2.81164,1.86972 4.51908,1.86972 1.71098,0 3.31611,-0.66675 4.52261,-1.86972 2.49062,-2.49414 2.49062,-6.55108 0,-9.0417 L 599.21524,541.33817 V 515.5607 c 2.25778,0 4.09575,-1.83797 4.09575,-4.09928 v -4.09575 c 0,-2.25778 -1.83797,-4.09575 -4.09575,-4.09575 h -20.48228 c -2.25777,0 -4.09575,1.83797 -4.09575,4.09575 v 4.09575 c 0,2.26131 1.83798,4.09928 4.09575,4.09928 v 5.29519 l -14.097,-14.097 c -2.39183,-2.39183 -6.27944,-2.39183 -8.6748,0 l -3.26673,3.26673 c -4.87186,-8.89706 -14.3263,-14.9472 -25.16716,-14.9472 -15.8115,0 -28.67378,12.86228 -28.67378,28.67378 0,10.84086 6.05014,20.29531 14.94719,25.16717 l -5.12939,5.13291 c -1.2065,1.2065 -1.87325,2.81164 -1.87325,4.51909 0,1.71097 0.66675,3.31611 1.87325,4.52261 1.24531,1.24531 2.8822,1.86619 4.51909,1.86619 1.63689,0 3.27377,-0.62088 4.51908,-1.86619 l 3.67242,-3.67242 v 42.94717 c -1.52048,-1.7533 -3.73945,-2.8328 -6.14186,-2.8328 -4.51909,0 -8.19503,3.67594 -8.19503,8.1915 -4.51909,0 -8.1915,3.67594 -8.1915,8.19503 0,1.13241 0.91369,2.04963 2.04611,2.04963 h 118.79792 c 1.13242,0 2.04964,-0.91722 2.04964,-2.04963 0,-6.14187 -4.52614,-11.24303 -10.42106,-12.14614"
       style="fill:#100f0d;fill-opacity:1;fill-rule:nonzero;stroke:none;stroke-width:0.0352778" />
    <path
       id="path221"
       d="m 529.57691,542.18484 v -4.09575 c 3.38666,0 6.14538,-2.7552 6.14538,-6.14539 v -4.09575 c 0,-3.38667 -2.75872,-6.14539 -6.14538,-6.14539 h -4.09576 c -1.13241,0 -2.04963,-0.91722 -2.04963,-2.04611 v -4.09575 c 0,-1.12889 0.91722,-2.04964 2.04963,-2.04964 h 4.09576 c 1.12888,0 2.04611,0.92075 2.04611,2.04964 v 2.04611 h 4.09927 v -2.04611 c 0,-3.3902 -2.75872,-6.14539 -6.14538,-6.14539 v -4.09575 h -4.09576 v 4.09575 c -3.39019,0 -6.14538,2.75519 -6.14538,6.14539 v 4.09575 c 0,3.38667 2.75519,6.14539 6.14538,6.14539 h 4.09576 c 1.12888,0 2.04611,0.91722 2.04611,2.04611 v 4.09575 c 0,1.12889 -0.91723,2.04964 -2.04611,2.04964 h -4.09576 c -1.13241,0 -2.04963,-0.92075 -2.04963,-2.04964 v -2.04611 h -4.09575 v 2.04611 c 0,3.39019 2.75519,6.14539 6.14538,6.14539 v 4.09575 h 4.09576"
       style="fill:#100f0d;fill-opacity:1;fill-rule:nonzero;stroke:none;stroke-width:0.0352778" />
    <path
       id="path222"
       d="m 556.20457,591.34443 h -4.09927 v 4.09575 h 2.04963 v 4.09575 h -2.04963 v 4.09575 h 4.09927 c 1.12889,0 2.04611,-0.91723 2.04611,-2.04611 v -8.19503 c 0,-1.12889 -0.91722,-2.04611 -2.04611,-2.04611"
       style="fill:#100f0d;fill-opacity:1;fill-rule:nonzero;stroke:none;stroke-width:0.0352778" />
    <path
       id="path223"
       d="m 1031.2587,521.09578 h -13.3703 v -31.19261 h 13.3703 z m -20.4858,-6.68514 c -1.2312,0 -2.2296,0.99836 -2.2296,2.22956 0,3.37255 -5.5174,6.68514 -11.1407,6.68514 -5.62328,0 -11.14072,-3.31259 -11.14072,-6.68514 0,-1.2312 -0.99484,-2.22956 -2.22603,-2.22956 h -15.59631 c -1.18886,0 -2.30716,-0.46214 -3.1503,-1.30527 -0.84314,-0.84667 -1.30881,-1.96498 -1.30881,-3.15031 0,-2.45533 2.00025,-4.45558 4.45911,-4.45558 h 24.50748 v -4.45559 h -24.50748 c -4.91772,0 -8.91469,3.99698 -8.91469,8.91117 h -0.0423 c -5.56684,0.127 -10.82323,2.59997 -14.47801,6.71336 -0.0176,-0.0282 -0.0423,-0.0459 -0.06,-0.0705 -1.00541,-1.57339 -0.66322,-3.85587 0.79375,-5.30931 l 18.13984,-18.12572 c 2.05669,-2.07081 4.92477,-3.25967 7.86694,-3.25967 h 22.98348 l 15.17655,6.50169 c 0.2751,0.11995 0.575,0.18345 0.8748,0.18345 h 2.6529 v 17.82233 z m -35.21783,15.59984 c 0,8.59719 -6.99911,15.5963 -15.5963,15.5963 -8.60073,0 -15.59631,-6.99911 -15.59631,-15.5963 0,-3.19617 0.9525,-6.25475 2.7693,-8.85473 2.82223,-4.10986 7.47889,-6.63222 12.40367,-6.74511 h 0.42334 c 0.27869,0 0.55033,0.0388 0.82902,0.0494 0.37748,0.64206 0.81139,1.25589 1.35114,1.79564 1.68275,1.68628 3.92289,2.61408 6.30061,2.61408 h 2.40242 c 2.99156,2.91748 4.71311,6.92503 4.71311,11.14073 z m 57.93313,-44.56289 h -17.8258 c -1.2312,0 -2.2296,0.99483 -2.2296,2.22602 v 4.45559 h -2.1942 l -15.17655,-6.5017 c -0.2787,-0.11994 -0.57503,-0.17991 -0.87842,-0.17991 h -23.43856 c -4.12397,0 -8.14564,1.66864 -11.0243,4.56847 l -18.13631,18.11867 c -2.9457,2.94922 -3.53483,7.51769 -1.37583,10.89025 0.35277,0.53269 0.75847,0.98777 1.18533,1.41464 -1.60514,2.921 -2.49061,6.17714 -2.49061,9.57086 0,11.05605 8.99583,20.05189 20.05542,20.05189 11.05605,0 20.05189,-8.99584 20.05189,-20.05189 0,-4.01461 -1.22414,-7.874 -3.41137,-11.14073 h 5.53509 c 1.59455,5.34812 8.75947,8.91117 15.26822,8.91117 6.5123,0 13.6772,-3.56305 15.2718,-8.91117 h 0.7584 v 4.45559 c 0,1.23119 0.9984,2.22603 2.2296,2.22603 h 17.8258 c 1.2312,0 2.2261,-0.99484 2.2261,-2.22603 v -35.65173 c 0,-1.23119 -0.9949,-2.22602 -2.2261,-2.22602"
       style="fill:#100f0d;fill-opacity:1;fill-rule:nonzero;stroke:none;stroke-width:0.0352778" />
    <path
       id="path224"
       d="m 989.38043,583.24112 c -0.26811,0.40217 -0.67733,0.67028 -1.15358,0.75494 -0.4833,0.0811 -0.95603,-0.0282 -1.34056,-0.31397 l -30.06725,-22.04861 c -0.78669,-0.57503 -1.84855,-0.57503 -2.63525,0 l -30.06725,22.04861 c -0.38805,0.28575 -0.86078,0.39511 -1.34055,0.31397 -0.47273,-0.0847 -0.88195,-0.35277 -1.15006,-0.75494 -0.52917,-0.79375 -0.33514,-1.84856 0.4445,-2.39889 l 33.43275,-23.59731 33.4257,23.59731 c 0.78317,0.55033 0.97719,1.60514 0.45155,2.39889 z m -13.82536,31.43603 h -17.82586 v -15.59631 c 0,-1.23119 -0.99483,-2.22955 -2.22603,-2.22955 H 942.1329 c -1.23119,0 -2.22955,0.99836 -2.22955,2.22955 v 15.59631 h -4.45559 V 580.9022 l 20.05542,-14.7073 20.05189,14.7073 z m -31.19261,0 V 601.3104 h 8.91117 v 13.36675 z m 26.73703,-55.70361 h 4.45558 v 6.97088 l -4.45558,-3.14325 z m 20.40467,18.22802 -11.4935,-8.11036 v -12.34369 c 0,-1.2312 -0.99484,-2.22956 -2.22603,-2.22956 h -8.9147 c -1.23119,0 -2.22603,0.99836 -2.22603,2.22956 v 2.90689 l -9.85661,-6.95678 c -0.77258,-0.54328 -1.79916,-0.54328 -2.56822,0 l -34.71686,24.50394 c -2.76578,1.95792 -3.46428,5.69384 -1.58397,8.51253 0.94897,1.4217 2.39888,2.37067 4.08163,2.667 1.67217,0.29986 3.37256,-0.0917 4.75545,-1.10419 l 4.23686,-3.10797 v 30.50822 c 0,2.45886 2.00025,4.45558 4.45558,4.45558 h 40.10731 c 2.45534,0 4.45559,-1.99672 4.45559,-4.45558 v -30.50822 l 4.24038,3.10797 c 1.0795,0.79022 2.34598,1.20297 3.65126,1.20297 0.36688,0 0.73377,-0.0318 1.10066,-0.0988 1.68628,-0.29633 3.1362,-1.2453 4.08517,-2.667 1.87678,-2.81869 1.17828,-6.55461 -1.58397,-8.51253"
       style="fill:#100f0d;fill-opacity:1;fill-rule:nonzero;stroke:none;stroke-width:0.0352778" />
    <path
       id="path225"
       d="m 964.41435,601.3104 h 4.45558 v 4.45558 h -4.45558 z m -4.45558,-2.22956 v 8.91117 c 0,1.23472 0.99483,2.22956 2.22602,2.22956 h 8.9147 c 1.23119,0 2.22603,-0.99484 2.22603,-2.22956 v -8.91117 c 0,-1.23119 -0.99484,-2.22955 -2.22603,-2.22955 h -8.9147 c -1.23119,0 -2.22602,0.99836 -2.22602,2.22955"
       style="fill:#100f0d;fill-opacity:1;fill-rule:nonzero;stroke:none;stroke-width:0.0352778" />
    <path
       id="path226"
       d="m 959.95877,583.48454 c 0,2.45533 -2.00025,4.45558 -4.45559,4.45558 -2.45886,0 -4.45911,-2.00025 -4.45911,-4.45558 0,-2.45534 2.00025,-4.45559 4.45911,-4.45559 2.45534,0 4.45559,2.00025 4.45559,4.45559 z m -13.37028,0 c 0,4.91419 3.99697,8.91116 8.91469,8.91116 4.9142,0 8.91117,-3.99697 8.91117,-8.91116 0,-4.9142 -3.99697,-8.9147 -8.91117,-8.9147 -4.91772,0 -8.91469,4.0005 -8.91469,8.9147"
       style="fill:#100f0d;fill-opacity:1;fill-rule:nonzero;stroke:none;stroke-width:0.0352778" />
    <path
       id="path227"
       d="m 957.72921,523.32534 h 4.45558 c 1.2312,0 2.22956,0.99836 2.22956,2.22603 h 4.45558 c 0,-3.683 -2.99861,-6.68162 -6.68514,-6.68162 v -2.22955 h -4.45558 v 2.22955 c -3.68653,0 -6.68514,2.99862 -6.68514,6.68162 0,3.68652 2.99861,6.68514 6.68514,6.68514 h 4.45558 c 1.2312,0 2.22956,0.99836 2.22956,2.22955 0,1.22767 -0.99836,2.22603 -2.22956,2.22603 h -4.45558 c -1.22767,0 -2.22603,-0.99836 -2.22603,-2.22603 h -4.45911 c 0,3.68653 2.99861,6.68514 6.68514,6.68514 v 2.22603 h 4.45558 v -2.22603 c 3.68653,0 6.68514,-2.99861 6.68514,-6.68514 0,-3.68653 -2.99861,-6.68514 -6.68514,-6.68514 h -4.45558 c -1.22767,0 -2.22603,-0.99836 -2.22603,-2.22955 0,-1.22767 0.99836,-2.22603 2.22603,-2.22603"
       style="fill:#100f0d;fill-opacity:1;fill-rule:nonzero;stroke:none;stroke-width:0.0352778" />
    <path
       id="path228"
       d="m 1024.5736,614.67715 h -22.2815 l -0,-4.45558 h 22.285 z m 2.2295,-13.36675 v 4.45558 h -22.2814 l -0,-4.45558 h 0 z m -2.2295,-4.45911 h -22.2815 l -0,-4.45559 h 22.285 z m -20.0519,-13.36675 h 22.2814 v 4.45558 h -22.2814 l -0,-4.45558 z m 22.2814,-4.45559 h -22.2814 c -2.4589,0 -4.4556,2.00025 -4.4556,4.45559 v 4.45558 c 0,0.20108 0.032,0.39511 0.06,0.58914 -1.35823,0.76553 -2.28956,2.20133 -2.28956,3.86644 v 4.45559 c 0,1.66864 0.93133,3.10444 2.28956,3.86997 -0.028,0.19403 -0.06,0.38806 -0.06,0.58914 v 4.45558 c 0,0.20109 0.032,0.39159 0.06,0.58914 -1.35823,0.762 -2.28956,2.20133 -2.28956,3.86645 v 4.45558 c 0,2.45886 2.00025,4.45558 4.45556,4.45558 h 22.2815 c 2.4588,0 4.4556,-1.99672 4.4556,-4.45558 v -4.45558 c 0,-0.20109 -0.032,-0.39159 -0.056,-0.58914 1.3546,-0.762 2.286,-2.20134 2.286,-3.86645 v -4.45558 c 0,-1.66511 -0.9314,-3.10445 -2.286,-3.86997 0.025,-0.19403 0.056,-0.38453 0.056,-0.58914 v -4.45559 c 0,-0.20108 -0.032,-0.39158 -0.056,-0.58561 1.3546,-0.76553 2.286,-2.20486 2.286,-3.86997 v -4.45558 c 0,-2.45534 -2.0003,-4.45559 -4.4556,-4.45559"
       style="fill:#100f0d;fill-opacity:1;fill-rule:nonzero;stroke:none;stroke-width:0.0352778" />
    <path
       id="path236"
       d="m 731.7962,588.46576 c -3.52778,0 -6.39587,2.86808 -6.39587,6.39586 0,3.52778 2.86809,6.39586 6.39587,6.39586 z m 1.32291,18.08339 h -1.32291 c -6.44525,0 -11.69106,-5.24228 -11.69106,-11.68753 0,-6.44525 5.24581,-11.68753 11.69106,-11.68753 h 88.65658 c 3.52425,0 6.39587,-2.87161 6.39587,-6.39586 0,-3.52778 -2.87162,-6.39586 -6.39587,-6.39586 l -1.17827,0.0141 c -1.03011,0.0176 -1.98261,-0.37394 -2.71639,-1.10067 -0.74789,-0.74083 -1.17828,-1.78152 -1.17475,-2.8575 l 0.10583,-67.90267 c 0.004,-2.18722 1.71097,-3.96522 3.80647,-3.96522 h 1.15711 c 6.44525,0 11.68753,5.24228 11.68753,11.68753 h -5.29166 c 0,-3.41489 -2.69523,-6.21595 -6.07131,-6.38528 l -0.0988,65.21803 c 6.36059,0.13759 11.46175,5.32695 11.46175,11.68753 0,6.44525 -5.24228,11.68753 -11.68753,11.68753 h -83.36492 v 14.11464 c 0,2.19075 -1.78153,3.96875 -3.96875,3.96875"
       style="fill:#100f0d;fill-opacity:1;fill-rule:nonzero;stroke:none;stroke-width:0.0352778" />
    <path
       id="path237"
       d="m 725.40033,524.34134 h -5.29519 c 0,-6.44525 5.24581,-11.68753 11.69106,-11.68753 h 84.7972 v 5.29167 h -84.7972 c -3.52778,0 -6.39587,2.87161 -6.39587,6.39586"
       style="fill:#100f0d;fill-opacity:1;fill-rule:nonzero;stroke:none;stroke-width:0.0352778" />
    <path
       id="path238"
       d="m 832.14031,576.77823 h -5.29166 v -70.52028 h 5.29166 v 70.52028"
       style="fill:#100f0d;fill-opacity:1;fill-rule:nonzero;stroke:none;stroke-width:0.0352778" />
    <path
       id="path239"
       d="m 725.40033,594.86515 -5.29519,-0.0106 0.14817,-72.13601 5.29166,0.0141 -0.14464,72.13248"
       style="fill:#100f0d;fill-opacity:1;fill-rule:nonzero;stroke:none;stroke-width:0.0352778" />
    <path
       id="path240"
       d="m 748.1157,616.62801 h 78.73295 V 603.36357 H 748.1157 Z m 84.02461,5.2952 H 742.82403 V 598.0719 h 89.31628 v 23.85131"
       style="fill:#100f0d;fill-opacity:1;fill-rule:nonzero;stroke:none;stroke-width:0.0352778" />
    <path
       id="path241"
       d="m 756.82578,607.90734 h -5.29167 v -7.18961 h 5.29167 v 7.18961"
       style="fill:#100f0d;fill-opacity:1;fill-rule:nonzero;stroke:none;stroke-width:0.0352778" />
    <path
       id="path242"
       d="m 768.07234,612.8674 h -5.29167 v -12.14967 h 5.29167 v 12.14967"
       style="fill:#100f0d;fill-opacity:1;fill-rule:nonzero;stroke:none;stroke-width:0.0352778" />
    <path
       id="path243"
       d="m 779.32242,607.90734 h -5.29519 v -7.18961 h 5.29519 v 7.18961"
       style="fill:#100f0d;fill-opacity:1;fill-rule:nonzero;stroke:none;stroke-width:0.0352778" />
    <path
       id="path244"
       d="m 790.56898,607.90734 h -5.29167 v -7.18961 h 5.29167 v 7.18961"
       style="fill:#100f0d;fill-opacity:1;fill-rule:nonzero;stroke:none;stroke-width:0.0352778" />
    <path
       id="path245"
       d="m 801.81553,612.8674 h -5.29166 v -12.14967 h 5.29166 v 12.14967"
       style="fill:#100f0d;fill-opacity:1;fill-rule:nonzero;stroke:none;stroke-width:0.0352778" />
    <path
       id="path246"
       d="m 813.06209,607.90734 h -5.29167 v -7.18961 h 5.29167 v 7.18961"
       style="fill:#100f0d;fill-opacity:1;fill-rule:nonzero;stroke:none;stroke-width:0.0352778" />
    <path
       id="path247"
       d="m 824.31217,607.90734 h -5.29519 v -7.18961 h 5.29519 v 7.18961"
       style="fill:#100f0d;fill-opacity:1;fill-rule:nonzero;stroke:none;stroke-width:0.0352778" />
    <path
       id="path248"
       d="m 752.3067,533.80637 h -5.2952 v -7.50006 h 13.67367 v 5.2952 h -8.37847 v 2.20486"
       style="fill:#100f0d;fill-opacity:1;fill-rule:nonzero;stroke:none;stroke-width:0.0352778" />
    <path
       id="path249"
       d="M 801.81553,574.82384 H 747.0115 v -28.448 h 5.2952 v 23.15633 h 44.21717 v -24.7015 h -13.56431 v -13.22916 h -10.80558 v -5.2952 h 16.09725 v 13.2327 h 13.5643 v 35.28483"
       style="fill:#100f0d;fill-opacity:1;fill-rule:nonzero;stroke:none;stroke-width:0.0352778" />
    <path
       id="path250"
       d="m 774.35884,572.17801 h -5.29167 V 556.52173 H 763.331 v -5.2952 h 21.17373 v 5.2952 h -10.14589 v 15.65628"
       style="fill:#100f0d;fill-opacity:1;fill-rule:nonzero;stroke:none;stroke-width:0.0352778" />
  </g>
</svg>
